<?xml version="1.0" encoding="utf-8"?>
<!-- Generator: Adobe Illustrator 23.0.3, SVG Export Plug-In . SVG Version: 6.00 Build 0)  -->
<svg version="1.1" id="Layer_1" xmlns="http://www.w3.org/2000/svg" xmlns:xlink="http://www.w3.org/1999/xlink" x="0px" y="0px"
	 viewBox="0 0 257 164" style="enable-background:new 0 0 257 164;" xml:space="preserve">
<style type="text/css">
	.st0{fill:none;}
	.st1{fill:#3A3939;}
	.st2{fill-rule:evenodd;clip-rule:evenodd;fill:#FFFFFF;}
	.st3{fill:#FFFFFF;}
	.st4{fill:#DD463E;}
</style>
<title>logo</title>
<desc>Created with Sketch.</desc>
<polygon id="Path" class="st0" points="68.8,69.7 66.1,83.7 71.6,83.7 69,69.7 "/>
<path class="st0" d="M204.7,67.7H203v8h1.6c1.9,0,2.8-0.9,2.8-4.2C207.4,68.7,206.5,67.7,204.7,67.7z"/>
<path class="st0" d="M42.4,124.9c-3.9,0-4.4,1.7-4.4,8.7v2.9c0,7.3,0.7,8.9,4.7,8.9s4.3-1.5,4.3-8.7v-3.1
	C47,126.5,46.2,124.9,42.4,124.9z"/>
<path id="Shape" class="st1" d="M111.8,34.3c0,0-8-17.2-18.3-22.9c-1.1-2.3-50.3,0-74.4-11.5C16.8-1.1,42,45.8,111.8,34.3z"/>
<path class="st1" d="M239.7,0c-24,11.4-73.2,9.1-74.4,11.4c-10.3,5.7-18.3,22.9-18.3,22.9C216.8,45.8,242-1.1,239.7,0z"/>
<polygon class="st2" points="33.6,78.7 34,78.7 34,98.7 47,98.7 45.4,55.7 27.7,55.7 24.5,75.7 23.8,75.7 20.5,55.7 1.7,55.7 
	0,98.7 12.9,98.7 12.9,78.7 13.3,78.7 17.3,98.7 29.5,98.7 "/>
<path class="st3" d="M74.4,98.7h14.3l-8.9-43H58.6l-8.9,43h13.6l1.5-7h8.1L74.4,98.7z M66.2,83.7l2.6-14H69l2.6,14H66.2z"/>
<path class="st2" d="M107.1,67.2c3.7,0.3,7.5,0.9,11.1,1.8l1.6-12.1c-4.9-0.9-9.9-1.4-14.9-1.4c-10,0-15.7,5.3-15.7,14.4
	c0,10.6,9.8,12.6,14.4,14.8c1.5,0.7,2.3,1.1,2.3,2.1s-0.7,1.5-2.1,1.5c-2.9,0-6.4-0.8-12.4-2.3l-1,11.6c4.8,1.2,9.7,1.9,14.7,1.8
	c10.4,0,15.9-5.1,15.9-14.6c0-9.7-9.4-12.1-14-14.1c-1.6-0.7-2.7-0.9-2.7-1.9C104.2,67.7,105.3,67.2,107.1,67.2z"/>
<polygon class="st2" points="129.9,98.7 144.9,98.7 144.9,67.7 154.2,67.7 155.1,55.7 120.8,55.7 120.2,67.7 129.9,67.7 "/>
<polygon class="st2" points="184.7,67.7 185.7,56.7 156.9,56.7 156.9,98.7 184.7,98.7 185.7,88.7 171.9,88.7 171.9,82.7 182.9,82.7 
	182.9,72.7 171.9,72.7 171.9,67.7 "/>
<path class="st3" d="M222.5,69.5c0-9.5-4.9-13.9-15.4-13.9H189v43h14v-15h1.1l4.4,15h15L217,80.5C220.5,78.1,222.5,75.4,222.5,69.5z
	 M204.6,75.7H203v-8h1.7c1.9,0,2.7,1,2.7,3.8C207.4,74.8,206.5,75.7,204.6,75.7z"/>
<path class="st2" d="M243,70.8c-1.6-0.7-2.7-0.9-2.7-1.9c0-1.2,1-1.7,2.8-1.7c3.8,0.3,7.5,0.9,11.1,1.8l1.6-12.1
	C251,56,246,55.5,241,55.5c-10,0-15.7,5.3-15.7,14.4c0,10.6,9.8,12.6,14.4,14.8c1.4,0.7,2.3,1.1,2.3,2.1c0,1-0.7,1.5-2.1,1.5
	c-2.9,0-6.5-0.8-12.4-2.3l-1,11.6c4.8,1.3,9.7,1.9,14.6,1.8c10.4,0,15.9-5.1,15.9-14.5C257,75.2,247.6,72.9,243,70.8z"/>
<path class="st3" d="M42.2,112.7c-14.1,0-19.6,6.5-19.6,21.8c0,14.8,5.4,22.2,19.3,22.2c14.1,0,19.7-7.3,19.7-22.6
	C61.6,119.4,56.3,112.7,42.2,112.7z M47,136.7c0,7.1-0.4,8.7-4.3,8.7s-4.7-1.5-4.7-8.9v-2.9c0-7,0.5-8.7,4.4-8.7s4.6,1.6,4.6,8.8
	V136.7z"/>
<polygon class="st2" points="65.9,156.7 80.9,156.7 80.9,140.7 89.9,140.7 89.9,130.7 80.9,130.7 80.9,124.7 93.7,124.7 94.7,113.7 
	65.9,113.7 "/>
<path class="st4" d="M225,104.7H101v59h134l2-28h-12V104.7z M130,129.7v10h-11v6h13.3l-0.9,10H109v-42h23.3l-0.9,11H119v5H130z
	 M168.5,156.7h-21.3l-8.8-43h16l3.3,26h0.8l2.9-26h15.3L168.5,156.7z M195,156.7h-14v-43h14V156.7z M228.1,144.7l-1,11H201v-42h15
	v31H228.1z"/>
<polygon class="st2" points="131.3,124.7 132.2,113.7 108.9,113.7 108.9,155.7 131.3,155.7 132.2,145.7 118.9,145.7 118.9,139.7 
	129.9,139.7 129.9,129.7 118.9,129.7 118.9,124.7 "/>
<polygon class="st2" points="158.5,139.7 157.7,139.7 154.4,113.7 138.4,113.7 147.2,156.7 168.5,156.7 176.8,113.7 161.5,113.7 "/>
<rect id="Rectangle" x="180.9" y="113.7" class="st2" width="14" height="43"/>
<polygon class="st2" points="215.9,113.7 200.9,113.7 200.9,155.7 227.1,155.7 228.1,144.7 215.9,144.7 "/>
</svg>
