<?xml version="1.0" encoding="UTF-8"?>
<svg width="293px" height="140px" viewBox="0 0 293 140" version="1.1" xmlns="http://www.w3.org/2000/svg" xmlns:xlink="http://www.w3.org/1999/xlink">
    <!-- Generator: Sketch 52.4 (67378) - http://www.bohemiancoding.com/sketch -->
    <title>4ps</title>
    <desc>Created with Sketch.</desc>
    <defs>
        <polygon id="path-1" points="0.0235135135 0.0613285714 28.7974613 0.0613285714 28.7974613 53.9768571 0.0235135135 53.9768571"></polygon>
    </defs>
    <g id="4ps" stroke="none" stroke-width="1" fill="none" fill-rule="evenodd">
        <g id="4PS_logo_RGB" transform="translate(109.000000, 44.000000)">
            <g id="Group-4" transform="translate(0.000000, 5.000000)">
                <mask id="mask-2" fill="white">
                    <use xlink:href="#path-1"></use>
                </mask>
                <g id="Clip-2"></g>
                <path d="M4.90060811,26.6806286 C4.90060811,26.6806286 23.8697432,18.5482286 26.7493649,17.3089286 C29.6293784,16.0700143 29.3715135,12.9387857 26.6063243,11.7334286 L0,0.0613285714 L0.0184189189,34.8057 L4.97193243,37.0247143 L4.90060811,26.6806286" id="Fill-1" fill="#212528" mask="url(#mask-2)"></path>
                <path d="M21.5744324,45.2261571 L21.6065676,37.7598857 C21.6089189,37.1199857 21.6332162,36.3547286 21.6775,35.4652714 L21.5857973,35.5046143 C21.4404054,35.9628429 21.1625541,36.6987857 20.7518514,37.7105143 L16.0209324,47.5902 L21.5744324,45.2261571 Z M28.5963514,45.9563143 L25.9651892,47.0760429 L25.9444189,52.1246571 L21.5375946,54 L21.5587568,48.9513857 L11.9962027,53.0214429 L12.0107027,49.6935 L21.2867838,30.4097143 L26.0451351,28.3843286 L25.9812568,43.3512 L28.6124189,42.2307 L28.5963514,45.9563143 Z" id="Fill-3" fill="#212528" mask="url(#mask-2)"></path>
            </g>
            <path d="M50.6773986,27.3438413 L49.0331011,27.9734307 L49,35 L50.6447113,34.3704106 C52.8707608,33.5181392 53.9891645,31.9080898 53.9999224,29.539896 C54.0106802,27.2237102 52.9034482,26.4915699 50.6773986,27.3438413" id="Fill-5" fill="#E57335"></path>
            <path d="M69.6345871,37.0375958 C68.4733902,39.063747 66.7058331,40.5917593 64.331916,41.6231772 C62.5432113,42.3993472 61.0571099,42.6036228 59.8743808,42.2360039 L59.8962975,36.9317896 C61.2620496,37.9496921 62.7785267,38.0964307 64.4461131,37.3720054 C65.3116278,36.9958912 65.9664352,36.4529583 66.4101509,35.7405038 C66.7800421,35.1396478 66.9676792,34.5121472 66.9699862,33.8599328 C66.9738312,33.0972782 66.7039106,32.5199776 66.1606089,32.1264865 C65.7295818,31.8291477 64.9382761,31.5603844 63.7866917,31.3213549 C61.163617,30.7513913 59.8574627,29.0021127 59.8697668,26.0739052 C59.8786104,23.9411755 60.4576708,21.9829874 61.6054102,20.1989549 C62.753534,18.4160809 64.2815462,17.109335 66.1913691,16.2802619 C67.8670301,15.5523612 69.2604664,15.2507748 70.3728315,15.3739579 L70.3524529,20.3294751 C69.1939475,19.7297775 67.8735666,19.7525606 66.3897722,20.3966659 C65.6519123,20.71756 65.0632393,21.1936882 64.6245222,21.824278 C64.1861896,22.4567986 63.9643318,23.1317962 63.9612557,23.8504292 C63.9581797,24.6123115 64.1481239,25.164512 64.5307036,25.5058724 C64.8902133,25.8240634 65.5850089,26.0955299 66.6170131,26.3194993 C68.1450252,26.671672 69.2350892,27.1844848 69.8879741,27.8606408 C70.6777418,28.6866247 71.0691652,29.9400813 71.0622441,31.619466 C71.0541696,33.5861494 70.5781557,35.3925789 69.6345871,37.0375958 Z M56.306584,34.2229177 C55.048108,36.301972 53.3536064,37.8044981 51.2203877,38.7308821 L49.3678556,39.5360136 L49.3336349,47.7232554 L45.4474702,49.4107493 L45.5462873,25.6429571 L51.6337276,22.9993453 C55.9801416,21.1118235 58.142967,22.693125 58.1222039,27.7428638 C58.1125913,30.0748491 57.5070002,32.2342235 56.306584,34.2229177 Z M79.8708072,0 C79.8708072,0 78.2755072,0.686582203 54.0714722,11.2339986 C50.4659942,12.8052601 43.7225929,14.1452152 37.7528103,11.5463973 C31.9114514,9.00357179 12.0769005,0.137084748 12.0769005,0.137084748 L12,5.43318987 L30.0539208,13.5208038 C33.4736842,15.056153 35.6818809,18.4593302 35.6999525,22.2212446 L35.9118133,55.7178062 C42.9355167,58.6158936 47.7921652,58.8985585 54.9481374,55.7282324 C62.1037251,52.5579062 80,44.8572188 80,44.8572188 L79.8708072,0 Z" id="Fill-6" fill="#E57335"></path>
        </g>
    </g>
</svg>