<?xml version="1.0" encoding="UTF-8"?>
<svg width="293px" height="140px" viewBox="0 0 293 140" version="1.1" xmlns="http://www.w3.org/2000/svg" xmlns:xlink="http://www.w3.org/1999/xlink">
    <!-- Generator: Sketch 52.4 (67378) - http://www.bohemiancoding.com/sketch -->
    <title>AVEX</title>
    <desc>Created with Sketch.</desc>
    <g id="AVEX" stroke="none" stroke-width="1" fill="none" fill-rule="evenodd">
        <g id="AVEX-def" transform="translate(90.000000, 35.000000)">
            <rect id="Rectangle" fill="#DA291C" x="0" y="0" width="22" height="71"></rect>
            <rect id="Rectangle" fill="#DA291C" x="31" y="0" width="22" height="71"></rect>
            <rect id="Rectangle" fill="#DA291C" x="62" y="0" width="22" height="71"></rect>
            <rect id="Rectangle" fill="#DA291C" x="93" y="0" width="22" height="71"></rect>
            <path d="M16.0198413,54 L14.8730159,50.6666667 L8.05952381,50.6666667 L6.91269841,54 L3,54 L10.015873,35 L12.984127,35 L20,54 L16.0198413,54 Z M11.5674603,40.6 L9.13888892,47.5333333 L13.9285714,47.5333333 L11.5674603,40.6 Z" id="Shape" fill="#FFFFFF" fill-rule="nonzero"></path>
            <polygon id="Path" fill="#FFFFFF" points="43.8695652 54 41.1304348 54 35 35 38.7826087 35 42.5 47.4 46.2173913 35 50 35"></polygon>
            <polygon id="Path" fill="#FFFFFF" points="67 53.9335664 67 35 79 35 79 38.3216783 70.5744681 38.3216783 70.5744681 42.7727272 77.723404 42.7727272 77.723404 46.0944056 70.5744681 46.0944056 70.5744681 50.6783217 79 50.6783217 79 54 67 54"></polygon>
            <polygon id="Path" fill="#FFFFFF" points="107.746836 54 104.033756 47.4 100.320675 54 96 54 101.940928 44.2666667 96.3375527 35 100.590717 35 103.966244 41.1333334 107.341772 35 111.594937 35 105.991561 44.2666667 112 54"></polygon>
        </g>
    </g>
</svg>