<?xml version="1.0" encoding="utf-8"?>
<!-- Generator: Adobe Illustrator 23.0.3, SVG Export Plug-In . SVG Version: 6.00 Build 0)  -->
<svg version="1.1" id="Layer_1" xmlns="http://www.w3.org/2000/svg" xmlns:xlink="http://www.w3.org/1999/xlink" x="0px" y="0px"
	 viewBox="0 0 293 140" style="enable-background:new 0 0 293 140;" xml:space="preserve">
<style type="text/css">
	.st0{fill:#5591F7;}
</style>
<title>4ps</title>
<desc>Created with Sketch.</desc>
<g>
	<path class="st0" d="M68.69,78.67c-1.18,0.63-2.36,1.02-3.61,1.34c-1.26,0.24-2.51,0.39-3.85,0.39c-1.41,0-2.67-0.24-3.85-0.63
		c-1.18-0.47-2.2-1.02-3.06-1.89c-0.86-0.79-1.49-1.81-1.96-2.91c-0.39-1.26-0.63-2.51-0.63-3.93c0-1.41,0.24-2.67,0.71-3.85
		c0.47-1.18,1.1-2.12,1.96-2.91c0.86-0.79,1.89-1.41,3.06-1.89c1.18-0.47,2.44-0.63,3.85-0.63c1.41,0,2.75,0.16,3.93,0.55
		c1.18,0.31,2.28,0.94,3.14,1.73l-2.75,2.99c-0.55-0.55-1.1-0.94-1.81-1.26c-0.63-0.31-1.49-0.39-2.51-0.39
		c-0.86,0-1.57,0.16-2.28,0.39c-0.71,0.24-1.26,0.63-1.73,1.18c-0.47,0.47-0.86,1.1-1.1,1.81c-0.24,0.71-0.39,1.49-0.39,2.28
		c0,0.86,0.16,1.57,0.39,2.28c0.24,0.71,0.63,1.26,1.1,1.81c0.47,0.47,1.1,0.94,1.73,1.18c0.63,0.24,1.41,0.39,2.28,0.39
		c0.86,0,1.57-0.08,2.2-0.31c0.63-0.24,1.1-0.39,1.49-0.55v-2.91h-3.14v-3.61h6.91v9.35H68.69z"/>
	<path class="st0" d="M83.14,77.81c-0.63,0.79-1.34,1.34-2.28,1.81c-0.94,0.39-1.89,0.63-2.83,0.63c-0.94,0-1.81-0.16-2.67-0.47
		s-1.57-0.71-2.12-1.26c-0.63-0.55-1.1-1.26-1.41-2.04s-0.55-1.65-0.55-2.59s0.16-1.81,0.55-2.59c0.39-0.79,0.86-1.49,1.41-2.04
		c0.63-0.55,1.34-1.02,2.12-1.26c0.86-0.31,1.73-0.47,2.67-0.47c0.86,0,1.65,0.16,2.36,0.47s1.34,0.71,1.81,1.26
		c0.47,0.55,0.86,1.26,1.1,2.04s0.39,1.65,0.39,2.59v1.18h-8.64c0.16,0.71,0.47,1.26,0.94,1.73c0.47,0.39,1.1,0.63,1.89,0.63
		c0.63,0,1.1-0.16,1.57-0.39c0.47-0.24,0.79-0.63,1.1-1.1L83.14,77.81z M80,72.46c0-0.63-0.16-1.18-0.63-1.65s-1.02-0.71-1.65-0.71
		c-0.39,0-0.79,0.08-1.1,0.24c-0.31,0.16-0.55,0.31-0.79,0.55c-0.24,0.24-0.39,0.47-0.55,0.71c-0.16,0.24-0.16,0.55-0.24,0.86H80z"
		/>
	<path class="st0" d="M86.05,67.75h3.61v1.65h0.08c0.08-0.24,0.31-0.47,0.47-0.71c0.24-0.24,0.47-0.47,0.79-0.63
		c0.31-0.16,0.63-0.31,1.02-0.47c0.39-0.08,0.79-0.16,1.26-0.16c0.86,0,1.57,0.16,2.28,0.55c0.63,0.31,1.18,0.86,1.49,1.65
		c0.47-0.79,0.94-1.34,1.57-1.65c0.63-0.31,1.41-0.47,2.28-0.47c0.79,0,1.49,0.16,2.04,0.39c0.55,0.24,1.02,0.63,1.34,1.1
		s0.55,1.02,0.71,1.65c0.16,0.63,0.24,1.34,0.24,2.04v7.15h-3.77v-7.07c0-0.55-0.16-1.02-0.39-1.49c-0.24-0.39-0.71-0.63-1.26-0.63
		c-0.47,0-0.79,0.08-1.1,0.24c-0.31,0.16-0.55,0.31-0.71,0.55c-0.16,0.24-0.31,0.55-0.39,0.86c-0.08,0.31-0.08,0.71-0.08,1.02v6.44
		h-3.77v-6.44c0-0.24,0-0.47,0-0.79s-0.08-0.63-0.16-0.86c-0.08-0.31-0.24-0.55-0.47-0.71s-0.55-0.31-1.02-0.31
		s-0.86,0.08-1.18,0.24c-0.31,0.16-0.55,0.39-0.71,0.71s-0.24,0.63-0.31,1.02c-0.08,0.39-0.08,0.79-0.08,1.18v6.05h-3.77V67.75z"/>
	<path class="st0" d="M119.29,77.81c-0.63,0.79-1.34,1.34-2.28,1.81c-0.94,0.39-1.89,0.63-2.83,0.63s-1.81-0.16-2.67-0.47
		c-0.86-0.31-1.57-0.71-2.12-1.26c-0.63-0.55-1.1-1.26-1.41-2.04c-0.31-0.79-0.55-1.65-0.55-2.59s0.16-1.81,0.55-2.59
		c0.39-0.79,0.86-1.49,1.41-2.04c0.63-0.55,1.34-1.02,2.12-1.26c0.86-0.31,1.73-0.47,2.67-0.47c0.86,0,1.65,0.16,2.36,0.47
		s1.34,0.71,1.81,1.26c0.47,0.55,0.86,1.26,1.1,2.04s0.39,1.65,0.39,2.59v1.18h-8.64c0.16,0.71,0.47,1.26,0.94,1.73
		c0.47,0.39,1.1,0.63,1.89,0.63c0.63,0,1.1-0.16,1.57-0.39c0.47-0.24,0.79-0.63,1.1-1.1L119.29,77.81z M116.14,72.46
		c0-0.63-0.16-1.18-0.63-1.65c-0.47-0.47-1.02-0.71-1.65-0.71c-0.39,0-0.79,0.08-1.1,0.24s-0.55,0.31-0.79,0.55
		c-0.24,0.24-0.39,0.47-0.55,0.71c-0.16,0.24-0.16,0.55-0.24,0.86H116.14z"/>
	<path class="st0" d="M133.66,77.81c-0.63,0.79-1.34,1.34-2.28,1.81s-1.89,0.63-2.83,0.63s-1.81-0.16-2.67-0.47
		c-0.86-0.31-1.57-0.71-2.12-1.26c-0.63-0.55-1.1-1.26-1.41-2.04c-0.31-0.79-0.55-1.65-0.55-2.59s0.16-1.81,0.55-2.59
		c0.39-0.79,0.86-1.49,1.41-2.04c0.63-0.55,1.34-1.02,2.12-1.26c0.86-0.31,1.73-0.47,2.67-0.47c0.86,0,1.65,0.16,2.36,0.47
		c0.71,0.31,1.34,0.71,1.81,1.26c0.47,0.55,0.86,1.26,1.1,2.04s0.39,1.65,0.39,2.59v1.18h-8.64c0.16,0.71,0.47,1.26,0.94,1.73
		c0.47,0.39,1.1,0.63,1.89,0.63c0.63,0,1.1-0.16,1.57-0.39c0.47-0.24,0.79-0.63,1.1-1.1L133.66,77.81z M130.52,72.46
		c0-0.63-0.16-1.18-0.63-1.65s-1.02-0.71-1.73-0.71c-0.39,0-0.79,0.08-1.1,0.24c-0.31,0.16-0.55,0.31-0.79,0.55
		c-0.24,0.24-0.39,0.47-0.55,0.71c-0.08,0.24-0.16,0.55-0.16,0.86H130.52z"/>
	<path class="st0" d="M136.49,67.75h3.61v1.65h0.08c0.08-0.24,0.31-0.47,0.47-0.71c0.24-0.24,0.47-0.47,0.79-0.63
		s0.63-0.31,1.02-0.47c0.39-0.08,0.79-0.16,1.26-0.16c0.94,0,1.73,0.16,2.28,0.47s1.02,0.71,1.34,1.18c0.31,0.55,0.55,1.1,0.63,1.81
		c0.08,0.71,0.16,1.49,0.16,2.28v6.68h-3.77v-5.97c0-0.31,0-0.71,0-1.1c0-0.39-0.08-0.71-0.24-1.02c-0.16-0.31-0.31-0.55-0.55-0.79
		c-0.24-0.24-0.63-0.31-1.1-0.31c-0.47,0-0.86,0.08-1.18,0.24s-0.55,0.39-0.71,0.71c-0.16,0.31-0.24,0.63-0.31,1.02
		c-0.08,0.39-0.08,0.79-0.08,1.18v6.05h-3.77v-12.1H136.49z"/>
	<path class="st0" d="M159.2,70.74h-3.3v4.09c0,0.31,0,0.63,0.08,0.94c0,0.24,0.08,0.55,0.24,0.71c0.16,0.16,0.31,0.39,0.55,0.47
		c0.24,0.08,0.55,0.16,0.94,0.16c0.24,0,0.47,0,0.79-0.08c0.31-0.08,0.55-0.16,0.71-0.31v3.14c-0.39,0.16-0.86,0.24-1.34,0.31
		c-0.47,0.08-0.86,0.08-1.34,0.08c-0.63,0-1.18-0.08-1.73-0.24c-0.55-0.16-1.02-0.31-1.41-0.63s-0.71-0.71-0.94-1.1
		c-0.24-0.47-0.31-1.02-0.31-1.73v-5.81h-2.44v-2.99h2.44v-3.61h3.77v3.61h3.3V70.74z"/>
	<path class="st0" d="M172.56,77.81c-0.63,0.79-1.34,1.34-2.28,1.81c-0.94,0.39-1.89,0.63-2.83,0.63c-0.94,0-1.81-0.16-2.67-0.47
		s-1.57-0.71-2.12-1.26c-0.63-0.55-1.1-1.26-1.41-2.04s-0.55-1.65-0.55-2.59s0.16-1.81,0.55-2.59c0.31-0.79,0.86-1.49,1.41-2.04
		c0.63-0.55,1.34-1.02,2.12-1.26c0.86-0.31,1.73-0.47,2.67-0.47c0.86,0,1.65,0.16,2.36,0.47s1.34,0.71,1.81,1.26
		c0.47,0.55,0.86,1.26,1.1,2.04s0.39,1.65,0.39,2.59v1.18h-8.72c0.16,0.71,0.47,1.26,0.94,1.73c0.47,0.39,1.1,0.63,1.89,0.63
		c0.63,0,1.1-0.16,1.57-0.39c0.39-0.31,0.79-0.63,1.1-1.1L172.56,77.81z M169.41,72.46c0-0.63-0.16-1.18-0.63-1.65
		s-1.02-0.71-1.65-0.71c-0.39,0-0.79,0.08-1.1,0.24s-0.55,0.31-0.79,0.55c-0.24,0.24-0.39,0.47-0.55,0.71
		c-0.16,0.24-0.16,0.55-0.24,0.86H169.41z"/>
	<path class="st0" d="M183.32,62.17h5.89c1.41,0,2.75,0.16,4.01,0.47c1.26,0.31,2.36,0.86,3.38,1.57c0.94,0.71,1.73,1.65,2.28,2.75
		c0.55,1.1,0.86,2.51,0.86,4.16c0,1.41-0.24,2.67-0.79,3.77s-1.26,2.04-2.2,2.75c-0.94,0.71-1.96,1.34-3.14,1.73
		c-1.18,0.39-2.44,0.55-3.77,0.55h-6.36V62.17H183.32z M187.25,76.31h2.04c0.86,0,1.73-0.08,2.51-0.31
		c0.79-0.16,1.41-0.47,2.04-0.94c0.55-0.39,1.02-1.02,1.34-1.65c0.31-0.71,0.47-1.57,0.47-2.51c0-0.86-0.16-1.65-0.47-2.28
		c-0.31-0.63-0.79-1.18-1.34-1.57c-0.55-0.39-1.18-0.71-1.96-0.94c-0.71-0.24-1.49-0.31-2.36-0.31h-2.28L187.25,76.31L187.25,76.31z
		"/>
	<path class="st0" d="M213.34,77.81c-0.63,0.79-1.34,1.34-2.28,1.81c-0.94,0.39-1.89,0.63-2.83,0.63c-0.94,0-1.81-0.16-2.67-0.47
		s-1.57-0.71-2.12-1.26c-0.63-0.55-1.1-1.26-1.41-2.04s-0.55-1.65-0.55-2.59s0.16-1.81,0.55-2.59c0.31-0.79,0.86-1.49,1.41-2.04
		c0.63-0.55,1.34-1.02,2.12-1.26c0.86-0.31,1.73-0.47,2.67-0.47c0.86,0,1.65,0.16,2.36,0.47s1.34,0.71,1.81,1.26
		c0.47,0.55,0.86,1.26,1.1,2.04s0.39,1.65,0.39,2.59v1.18h-8.72c0.16,0.71,0.47,1.26,0.94,1.73c0.47,0.39,1.1,0.63,1.89,0.63
		c0.63,0,1.1-0.16,1.57-0.39c0.39-0.31,0.79-0.63,1.1-1.1L213.34,77.81z M210.19,72.46c0-0.63-0.16-1.18-0.63-1.65
		s-1.02-0.71-1.65-0.71c-0.39,0-0.79,0.08-1.1,0.24s-0.55,0.31-0.79,0.55c-0.24,0.24-0.39,0.47-0.55,0.71
		c-0.16,0.24-0.16,0.55-0.24,0.86H210.19z"/>
	<path class="st0" d="M216.24,60.99h3.77v18.94h-3.77V60.99z"/>
	<path class="st0" d="M224.02,70.74h-2.51v-2.99h2.51v-2.2c0-0.63,0.08-1.34,0.16-1.89c0.08-0.63,0.31-1.1,0.71-1.57
		c0.31-0.47,0.79-0.79,1.41-1.1c0.63-0.24,1.41-0.39,2.44-0.39c0.39,0,0.79,0,1.1,0.08c0.39,0,0.71,0.08,1.1,0.16l-0.16,3.14
		c-0.24-0.08-0.39-0.16-0.63-0.16c-0.16,0-0.31,0-0.55,0c-0.63,0-1.02,0.16-1.34,0.39c-0.31,0.24-0.47,0.79-0.47,1.57v1.96h2.75
		v2.99h-2.75v9.19h-3.77L224.02,70.74L224.02,70.74z"/>
	<path class="st0" d="M240.29,70.74h-3.3v4.09c0,0.31,0,0.63,0.08,0.94c0,0.24,0.08,0.55,0.24,0.71c0.16,0.16,0.31,0.39,0.55,0.47
		c0.24,0.08,0.55,0.16,0.94,0.16c0.24,0,0.47,0,0.79-0.08c0.31-0.08,0.55-0.16,0.71-0.31v3.14c-0.39,0.16-0.86,0.24-1.34,0.31
		c-0.47,0.08-0.86,0.08-1.34,0.08c-0.63,0-1.18-0.08-1.73-0.24c-0.55-0.16-1.02-0.31-1.41-0.63c-0.39-0.31-0.71-0.71-0.94-1.1
		c-0.24-0.47-0.31-1.02-0.31-1.73v-5.81h-2.44v-2.99h2.44v-3.61h3.77v3.61h3.3V70.74L240.29,70.74z"/>
</g>
</svg>
