<?xml version="1.0" encoding="utf-8"?>
<!-- Generator: Adobe Illustrator 23.0.3, SVG Export Plug-In . SVG Version: 6.00 Build 0)  -->
<svg version="1.1" id="Layer_1" xmlns="http://www.w3.org/2000/svg" xmlns:xlink="http://www.w3.org/1999/xlink" x="0px" y="0px"
	 viewBox="0 0 293 140" style="enable-background:new 0 0 293 140;" xml:space="preserve">
<style type="text/css">
	.st0{fill-rule:evenodd;clip-rule:evenodd;fill:#000105;}
	.st1{filter:url(#Adobe_OpacityMaskFilter);}
	.st2{fill-rule:evenodd;clip-rule:evenodd;fill:#FFFFFF;}
	.st3{mask:url(#b_4_);fill-rule:evenodd;clip-rule:evenodd;fill:#000105;}
	.st4{filter:url(#Adobe_OpacityMaskFilter_1_);}
	.st5{mask:url(#b_3_);fill-rule:evenodd;clip-rule:evenodd;fill:#2EABD6;}
</style>
<title>4ps</title>
<desc>Created with Sketch.</desc>
<g>
	<path class="st0" d="M120.49,74.65h-3.71v-7.57h-6.95v7.57h-3.72V57.1h3.72v6.88h6.95V57.1h3.71L120.49,74.65 M134.13,74.65
		l-0.49-1.72h-0.19c-0.39,0.62-0.95,1.11-1.67,1.45c-0.72,0.34-1.54,0.51-2.46,0.51c-1.58,0-2.76-0.42-3.56-1.27
		c-0.8-0.84-1.2-2.06-1.2-3.64v-8.75h3.66v7.84c0,0.97,0.17,1.69,0.52,2.18c0.34,0.48,0.89,0.73,1.64,0.73
		c1.02,0,1.76-0.34,2.22-1.03c0.46-0.68,0.68-1.82,0.68-3.4v-6.31h3.66v13.42L134.13,74.65 M152.79,74.65h-3.66v-7.84
		c0-0.97-0.16-1.69-0.49-2.18c-0.32-0.48-0.83-0.73-1.53-0.73c-0.94,0-1.62,0.34-2.04,1.03c-0.42,0.69-0.64,1.82-0.64,3.4v6.31
		h-3.66V61.23h2.8l0.49,1.72h0.2c0.36-0.62,0.88-1.1,1.56-1.45c0.68-0.35,1.46-0.52,2.34-0.52c2.01,0,3.37,0.66,4.08,1.97h0.32
		c0.36-0.62,0.89-1.11,1.59-1.45s1.49-0.52,2.37-0.52c1.52,0,2.67,0.39,3.45,1.17c0.78,0.78,1.17,2.03,1.17,3.75v8.75h-3.67v-7.84
		c0-0.97-0.16-1.69-0.49-2.18c-0.32-0.48-0.83-0.73-1.53-0.73c-0.9,0-1.57,0.32-2.01,0.96c-0.45,0.64-0.67,1.66-0.67,3.05
		L152.79,74.65 M172.35,68.43l-1.42,0.05c-1.06,0.03-1.86,0.22-2.38,0.58c-0.52,0.35-0.78,0.89-0.78,1.61
		c0,1.03,0.59,1.55,1.78,1.55c0.85,0,1.53-0.24,2.03-0.73c0.51-0.49,0.76-1.14,0.76-1.94L172.35,68.43L172.35,68.43z M173.43,74.65
		l-0.71-1.82h-0.1c-0.62,0.78-1.25,1.31-1.9,1.61c-0.65,0.3-1.5,0.45-2.55,0.45c-1.29,0-2.3-0.37-3.04-1.1
		c-0.74-0.74-1.11-1.78-1.11-3.14c0-1.42,0.5-2.47,1.49-3.15c1-0.68,2.5-1.05,4.51-1.12l2.33-0.07v-0.59c0-1.36-0.7-2.04-2.09-2.04
		c-1.07,0-2.33,0.32-3.78,0.97l-1.21-2.47c1.54-0.81,3.26-1.21,5.14-1.21c1.8,0,3.18,0.39,4.14,1.18c0.96,0.78,1.44,1.98,1.44,3.58
		v8.94L173.43,74.65L173.43,74.65z M192.14,74.65h-3.66v-7.84c0-0.97-0.17-1.69-0.52-2.18c-0.34-0.48-0.89-0.73-1.64-0.73
		c-1.02,0-1.76,0.34-2.22,1.03c-0.46,0.68-0.68,1.82-0.68,3.4v6.31h-3.66V61.23h2.8l0.49,1.72h0.2c0.4-0.65,0.99-1.16,1.69-1.47
		c0.72-0.33,1.53-0.5,2.44-0.5c1.56,0,2.74,0.42,3.55,1.27c0.81,0.84,1.21,2.06,1.21,3.65L192.14,74.65 M195.91,74.65h3.66V61.23
		h-3.66V74.65z M195.75,57.76c0-1.19,0.66-1.79,1.99-1.79s1.99,0.6,1.99,1.79c0,0.57-0.17,1.01-0.5,1.33
		c-0.33,0.31-0.83,0.47-1.49,0.47C196.42,59.56,195.75,58.96,195.75,57.76z M209.06,71.97c0.64,0,1.41-0.14,2.3-0.42v2.72
		c-0.91,0.41-2.03,0.61-3.36,0.61c-1.46,0-2.53-0.37-3.2-1.11c-0.67-0.74-1-1.85-1-3.33v-6.47h-1.75v-1.55l2.02-1.22l1.06-2.83h2.34
		v2.86h3.76v2.75h-3.76v6.47c0,0.52,0.15,0.9,0.44,1.15C208.19,71.85,208.58,71.97,209.06,71.97 M221.52,68.43l-1.42,0.05
		c-1.06,0.03-1.86,0.22-2.38,0.58c-0.52,0.35-0.78,0.89-0.78,1.61c0,1.03,0.59,1.55,1.78,1.55c0.85,0,1.53-0.24,2.03-0.73
		c0.51-0.49,0.76-1.14,0.76-1.94L221.52,68.43L221.52,68.43z M222.6,74.65l-0.71-1.82h-0.1c-0.62,0.78-1.25,1.31-1.9,1.61
		c-0.65,0.3-1.5,0.45-2.55,0.45c-1.29,0-2.3-0.37-3.04-1.1c-0.74-0.74-1.11-1.78-1.11-3.14c0-1.42,0.5-2.47,1.49-3.15
		c1-0.68,2.5-1.05,4.51-1.12l2.33-0.07v-0.59c0-1.36-0.7-2.04-2.09-2.04c-1.07,0-2.33,0.32-3.78,0.97l-1.21-2.47
		c1.54-0.81,3.26-1.21,5.14-1.21c1.8,0,3.18,0.39,4.14,1.18c0.96,0.78,1.44,1.98,1.44,3.58v8.94L222.6,74.65L222.6,74.65z
		 M238.28,70.66c0,1.38-0.48,2.42-1.43,3.14c-0.96,0.72-2.39,1.08-4.29,1.08c-0.98,0-1.81-0.07-2.5-0.2
		c-0.66-0.12-1.31-0.32-1.93-0.58v-3.02c0.68,0.32,1.45,0.59,2.3,0.8c0.85,0.21,1.6,0.32,2.25,0.32c1.33,0,1.99-0.38,1.99-1.15
		c0-0.29-0.09-0.52-0.26-0.7c-0.18-0.18-0.48-0.39-0.91-0.61c-0.56-0.29-1.14-0.56-1.73-0.8c-1.03-0.43-1.79-0.83-2.27-1.2
		c-0.48-0.37-0.84-0.79-1.06-1.27c-0.22-0.48-0.33-1.06-0.33-1.76c0-1.19,0.46-2.11,1.39-2.77c0.92-0.65,2.23-0.98,3.93-0.98
		c1.62,0,3.19,0.35,4.72,1.06l-1.1,2.64c-0.62-0.27-1.24-0.5-1.88-0.71c-0.58-0.18-1.18-0.28-1.79-0.28c-1.08,0-1.62,0.29-1.62,0.88
		c0,0.33,0.17,0.61,0.52,0.85c0.35,0.24,1.11,0.6,2.29,1.07c1.05,0.42,1.82,0.82,2.3,1.19s0.85,0.79,1.08,1.27
		C238.16,69.43,238.28,70,238.28,70.66 M112.19,83.86c0-0.98-0.19-1.71-0.58-2.18c-0.39-0.47-0.98-0.71-1.77-0.71H109v6h0.64
		c0.88,0,1.52-0.26,1.93-0.77C111.99,85.69,112.19,84.91,112.19,83.86z M115.19,83.76c0,1.79-0.49,3.16-1.47,4.13
		c-0.98,0.97-2.37,1.45-4.15,1.45h-3.46v-10.7h3.7c1.72,0,3.04,0.44,3.98,1.32C114.73,80.83,115.19,82.1,115.19,83.76z
		 M121.77,89.34l-2.19-7.71h-0.07c0.1,1.31,0.15,2.33,0.15,3.06v4.65h-2.56v-10.7h3.85l2.23,7.6h0.06l2.19-7.6h3.86v10.7h-2.66
		v-4.69c0-0.24,0-0.52,0.01-0.81c0.01-0.3,0.04-1.03,0.1-2.19h-0.07l-2.16,7.69L121.77,89.34"/>
	<defs>
		<filter id="Adobe_OpacityMaskFilter" filterUnits="userSpaceOnUse" x="131.61" y="78.63" width="9.17" height="10.7">
			<feColorMatrix  type="matrix" values="1 0 0 0 0  0 1 0 0 0  0 0 1 0 0  0 0 0 1 0"/>
		</filter>
	</defs>
	<mask maskUnits="userSpaceOnUse" x="131.61" y="78.63" width="9.17" height="10.7" id="b_4_">
		<g class="st1">
			<path id="a_4_" class="st2" d="M54.49,50.52h86.28v39.94H54.49V50.52z"/>
		</g>
	</mask>
	<path class="st3" d="M140.78,89.34h-2.9v-4.36h-3.36v4.36h-2.91v-10.7h2.91v3.97h3.36v-3.97h2.91L140.78,89.34"/>
	<defs>
		<filter id="Adobe_OpacityMaskFilter_1_" filterUnits="userSpaceOnUse" x="54.48" y="50.52" width="39.62" height="39.94">
			<feColorMatrix  type="matrix" values="1 0 0 0 0  0 1 0 0 0  0 0 1 0 0  0 0 0 1 0"/>
		</filter>
	</defs>
	<mask maskUnits="userSpaceOnUse" x="54.48" y="50.52" width="39.62" height="39.94" id="b_3_">
		<g class="st4">
			<path id="a_3_" class="st2" d="M54.49,50.52h86.28v39.94H54.49V50.52z"/>
		</g>
	</mask>
	<path class="st5" d="M94.1,50.52H80.92v13.56H67.72V50.52H54.48v39.94h13.25V77.27h13.19v12.06c7.67-2.73,13.16-10.04,13.16-18.64
		l0-0.02h0.03V50.52"/>
</g>
</svg>
