<?xml version="1.0" encoding="utf-8"?>
<!-- Generator: Adobe Illustrator 23.0.3, SVG Export Plug-In . SVG Version: 6.00 Build 0)  -->
<svg version="1.1" id="Layer_1" xmlns="http://www.w3.org/2000/svg" xmlns:xlink="http://www.w3.org/1999/xlink" x="0px" y="0px"
	 viewBox="0 0 293 140" style="enable-background:new 0 0 293 140;" xml:space="preserve">
<style type="text/css">
	.st0{fill-rule:evenodd;clip-rule:evenodd;fill:#DF0000;}
</style>
<title>4ps</title>
<desc>Created with Sketch.</desc>
<g id="Symbols">
	<g>
		<g id="Logo">
			<path id="Combined-Shape" class="st0" d="M223.44,65.5l-0.67,4.08l-2.81,15.13c-0.05,0.29-0.3,0.41-0.6,0.41l-3.1,0
				c-0.18,0-0.35,0.01-0.47-0.13c-0.09-0.11-0.14-0.25-0.14-0.39c0-0.04,0-0.08,0.01-0.11c0,0,0.08-0.42,0.13-0.7
				c-2.53,1.59-5.09,2.2-7.49,1.76c-2.74-0.55-5.3-3.28-5.81-6.2c-0.14-0.78,0.12-1.56,0.13-2.34c0,0,0.01-0.23,0.01-0.52
				l-1.41,8.26c-0.05,0.21-0.23,0.36-0.44,0.36h-3.81c-0.14,0-0.27-0.08-0.36-0.19c-0.06-0.08-0.1-0.18-0.1-0.28
				c0-0.04,0.01-0.07,0.01-0.11c1.33-6.69,2.7-15.84,3.51-19.61c-1.94,2.31-15.04,20.02-15.04,20.02c-0.09,0.1-0.21,0.16-0.34,0.16
				l-3.87,0c-0.14,0-0.27-0.06-0.36-0.17c-0.07-0.08-0.1-0.19-0.1-0.29c0-0.03,0-0.07,0.01-0.1c1.33-6.8,2.77-15.87,3.48-19.64
				c-1.87,2.27-18.13,20.03-18.13,20.03c-0.09,0.11-0.22,0.17-0.36,0.16l-4.93,0c-0.18,0-0.34-0.1-0.41-0.27
				c-0.06-0.14-0.05-0.33,0.03-0.45c0-0.01,0-0.01,0-0.01c0.01-0.01,0.01-0.02,0.02-0.03c0,0,0,0.01-0.01,0.01
				c0.18-0.3,0.33-0.55,0.46-0.77c0.4-0.78,0.61-1.51,0.71-2.01c0.53-3.48-0.18-6.42-0.18-6.42c-1.18-6.19-6.44-9.65-10.66-7.78
				c0.04,0,0.09,0,0.13,0c0.2,0,0.39,0.02,0.58,0.06c4.58-0.73,8.79,4,8.36,10.31c0,0-0.26,2.99-1.7,6.38
				c-1.03,0.54-2.13,0.98-3.3,1.28c-0.18,0.05-0.37,0.09-0.55,0.13c2.31-2.92,3.36-5.81,3.36-5.81c2.08-6.12-0.98-11.93-5.77-12.19
				c0.21,0.08,0.4,0.18,0.58,0.31c4.62,1.47,6.12,7.92,2.54,13.31c0,0-1.74,2.5-4.69,4.72c-1.41-0.07-2.8-0.34-4.14-0.79
				c3.42-1.36,5.72-3.31,5.72-3.31c4.74-4.19,5.02-10.64,1.17-13.37c0.17,0.22,0.31,0.46,0.41,0.72c2.94,3.66,1.02,9.76-4.59,12.54
				c0,0-2.65,1.25-6.23,1.69c-1.03-0.68-1.96-1.47-2.78-2.35c3.45,0.47,6.2-0.02,6.2-0.02c6.16-1.22,9.58-6.65,7.6-10.97
				c0,0.06,0,0.12,0,0.17c0,0.16-0.01,0.31-0.04,0.47c0.9,4.73-3.81,9.16-10.11,8.71c0,0-2.77-0.25-5.98-1.59
				c-0.61-1.14-1.09-2.36-1.41-3.65c-0.03-0.11-0.05-0.21-0.07-0.32c2.75,2.16,5.37,3.13,5.37,3.13c5.89,2.06,11.49-0.85,11.97-5.54
				c-0.11,0.23-0.25,0.45-0.41,0.64c-1.67,4.39-7.81,5.73-12.97,2.2c0,0-2.67-2.1-4.72-4.57l-2.72,15.03
				c-0.05,0.29-0.31,0.4-0.6,0.4l-3.1-0.01c-0.18,0-0.37-0.04-0.49-0.18c-0.09-0.11-0.12-0.19-0.12-0.33c0-0.04,0-0.08,0.01-0.11
				c0,0,0.08-0.42,0.13-0.7c-2.53,1.59-5.09,2.2-7.49,1.76c-2.74-0.55-5.3-3.28-5.81-6.2c-0.14-0.78-0.2-2.37-0.22-2.42l-1.38,7.77
				c-0.05,0.3-0.3,0.41-0.6,0.41l-3.46,0c-0.18,0-0.35,0.01-0.46-0.13c-0.12-0.14-0.16-0.32-0.13-0.5l3.45-19.1
				c0.05-0.29,0.3-0.5,0.59-0.5l3.47,0c0.18,0,0.35,0.08,0.46,0.22c0.12,0.14,0.17,0.32,0.14,0.5l-1.43,7.78
				c0.04-0.08,0.06-0.13,0.06-0.13c0.67-1.98,1.82-3.81,3.47-5.36c2.8-2.65,6.23-3.73,9.61-2.9c0.04,0.01,0.44,0.15,0.44,0.15
				c0.75,0.33,1.55,0.69,2.25,1.32c0.11-0.73,0.28-1.1,0.28-1.1c0.15-0.32,0.38-0.47,0.66-0.47h3.13c0.18,0,0.36,0.05,0.49,0.18
				c0.11,0.1,0.19,0.29,0.22,0.41c1.13,3.19,3.17,5.95,3.17,5.95c4.19,4.9,10.68,5.11,13.29,0.99c-0.14,0.11-0.29,0.21-0.44,0.3
				l-0.07,0.05l-0.02,0.01c-3.56,3.36-9.83,1.46-12.64-4.4c0,0-1.17-2.58-1.63-6.09c0.74-1.26,1.64-2.39,2.66-3.38
				c-0.49,3.56,0,6.42,0,6.42c1.21,6.32,6.65,9.79,10.92,7.66c-0.16,0.03-0.32,0.04-0.48,0.04c-0.1,0-0.19-0.01-0.28-0.02
				c-4.65,0.91-9-3.87-8.56-10.28c0,0,0.26-2.89,1.63-6.21c1.07-0.59,2.22-1.05,3.44-1.38c-2.12,2.8-3.08,5.45-3.08,5.45
				c-2.07,6.11,0.96,11.91,5.74,12.18c-0.15-0.07-0.3-0.15-0.44-0.25l-0.06-0.03l-0.02-0.02c-4.64-1.45-6.16-7.91-2.57-13.32
				c0,0,1.65-2.37,4.46-4.54c1.45,0.01,2.89,0.23,4.28,0.65c-3.36,1.35-5.63,3.27-5.63,3.27c-4.8,4.24-5.03,10.81-1.01,13.48
				c-0.15-0.18-0.28-0.38-0.38-0.6c-3.21-3.62-1.33-9.92,4.4-12.76c0,0,2.69-1.27,6.29-1.7c1.16,0.72,2.2,1.58,3.11,2.56
				c-3.6-0.54-6.52-0.03-6.52-0.03c-6.23,1.23-9.66,6.78-7.53,11.12c-0.02-0.14-0.03-0.28-0.03-0.42c0-0.09,0-0.18,0.01-0.27
				c-0.99-4.77,3.74-9.26,10.09-8.81c0,0,2.98,0.27,6.35,1.75c0.58,1.11,1.04,2.29,1.35,3.53c0.05,0.19,0.09,0.38,0.13,0.56
				c-2.89-2.36-5.74-3.42-5.74-3.42c-5.89-2.06-11.49,0.86-11.97,5.55c0.11-0.26,0.26-0.51,0.44-0.72c1.7-4.33,7.81-5.64,12.94-2.12
				c0,0,2.47,1.77,4.66,4.78c-0.07,1.27-0.28,2.51-0.63,3.71c-1.33-3.4-3.2-5.68-3.2-5.68c-4.09-4.78-10.38-5.09-13.1-1.27
				c0.18-0.11,0.37-0.2,0.57-0.27c3.59-3.08,9.66-1.14,12.42,4.6c0,0,1.68,3.91,2.04,7.5l21.02-24.66c0.09-0.1,0.21-0.18,0.34-0.18
				l4.38,0c0.14,0,0.26,0.06,0.35,0.17c0.07,0.08,0.1,0.22,0.1,0.33c0,0.03,0,0.06-0.01,0.09c0,0-2.6,15.79-3.32,18.58
				c1.98-2.27,14.52-19,14.52-19c0.09-0.1,0.21-0.17,0.34-0.17l4.18-0.01c0.14,0,0.27,0.07,0.36,0.18c0.09,0.11,0.12,0.27,0.08,0.41
				l-3.11,16.96c0.7-1.63,1.74-3.14,3.14-4.44c2.8-2.65,6.21-3.69,9.61-2.93c0.04,0.01,0.08,0.02,0.11,0.04l0.32,0.14
				c0.99,0.39,1.69,0.79,2.38,1.43l0.24-1.21c0.06-0.28,0.31-0.47,0.59-0.47h3.13c0.18,0,0.35,0.06,0.47,0.2
				C223.4,65.21,223.44,65.35,223.44,65.5z M129.91,75.52c0.13-0.44,0.2-0.93,0.2-1.42c0-0.9-0.21-1.82-0.62-2.54
				c-0.73-1.33-1.89-1.85-2.74-2.05c-1.51-0.35-3.23-0.01-4.49,0.89c-2.2,1.68-3.4,3.87-3.4,6.14c0,0.36,0,0.6,0.11,1.1
				c0.3,1.08,0.81,2.16,1.75,2.81c0.89,0.58,2.39,0.78,4.08,0.45C127.07,80.33,129.21,78.02,129.91,75.52z M217.72,75.52
				c0.14-0.44,0.18-0.93,0.18-1.42c0-0.9-0.2-1.82-0.61-2.54c-0.73-1.33-1.89-1.85-2.74-2.05c-1.5-0.35-3.22-0.01-4.49,0.89
				c-2.2,1.68-3.4,3.87-3.4,6.14c0,0.36,0.03,0.73,0.09,1.1c0.27,1.05,0.83,2.16,1.77,2.81c0.88,0.58,2.16,0.81,3.89,0.52
				C214.69,80.39,216.96,78.01,217.72,75.52z M257.55,65.11c0.09,0.11,0.14,0.25,0.14,0.39c0,0.03,0,0.07-0.01,0.1l-0.53,3.09
				c-0.05,0.29-0.3,0.51-0.59,0.51c0,0-2.97,0-3.76,0.01c-0.16,0.95-2.8,15.41-2.8,15.41c-0.05,0.29-0.3,0.5-0.59,0.5h-3.92
				c-0.1,0-0.19-0.07-0.28-0.11c-0.07,0.03-0.14,0.11-0.21,0.11l-3.76,0c-0.2,0-0.39-0.1-0.5-0.27c0,0-3.65-6.16-4.9-8.09
				c-0.48,2.86-1.36,7.6-1.47,7.94c-0.08,0.26-0.31,0.42-0.58,0.42h-3.37c-0.18,0-0.34-0.08-0.46-0.22
				c-0.11-0.14-0.16-0.31-0.13-0.48c0.02-0.14,1.39-8.41,2.55-15.4c-0.07,0.05-0.42,0.04-0.5,0.06c-1.68,0.25-3.59,1.12-4.35,4.04
				l-2.3,11.53c-0.06,0.29-0.3,0.48-0.58,0.48h-1.45l-1.54,0c-0.18,0-0.36-0.06-0.48-0.2c-0.12-0.14-0.18-0.3-0.14-0.48l3.34-18.58
				l0.09-0.48c0.06-0.29,0.31-0.46,0.6-0.46h3.13c0.18,0,0.35,0.05,0.46,0.19c0.11,0.14,0.16,0.32,0.13,0.5l-0.07,0.44
				c1.13-0.74,2.71-1.34,4.14-1.38c0.18-0.01,0.35,0.11,0.47,0.25c0.01,0.01,0.01,0.02,0.02,0.03c0.47-2.81,0.94-5.06,1.02-5.53
				c0.05-0.3,0.3-0.51,0.6-0.51l3.43,0.01c0.18,0,0.34,0.08,0.46,0.22c0.09,0.11,0.14,0.25,0.14,0.39c0,0.04,0,0.07-0.01,0.1
				c0,0-1.48,8.02-1.97,10.9c1.65-1.82,4.47-5.44,4.47-5.44c0.11-0.13,0.27-0.18,0.44-0.18l0.91,0l3.1,0c0.2,0,0.38,0.1,0.49,0.27
				c0.11-0.18,0.3-0.27,0.52-0.26l0.56,0l0.52,0c0,0,0.54,0.01,0.85,0c0.14-0.83,1-5.48,1-5.48c0.05-0.29,0.3-0.51,0.59-0.51h3.48
				c0.18,0,0.35,0.08,0.46,0.22c0.09,0.11,0.14,0.25,0.14,0.39c0,0.03,0,0.07-0.01,0.1c0,0-0.79,4.16-0.98,5.26
				c1.02,0,3.52,0,3.52,0C257.27,64.89,257.43,64.97,257.55,65.11z M245.5,83.43c0.52-3.2,2.39-13.15,2.57-14.23h-1.71
				c-0.18,0-0.35-0.08-0.46-0.22c-0.12-0.14-0.16-0.32-0.13-0.5l0.44-2.37c-1,1.19-5.94,7.3-6.4,7.86
				C240.16,74.56,244.11,81.16,245.5,83.43z M111.83,59.14c0.11,0.14,0.16,0.32,0.13,0.51l-4.56,25.06c-0.05,0.29-0.31,0.4-0.6,0.4
				l-3.1,0c-0.18,0-0.35,0.01-0.47-0.13c-0.09-0.11-0.14-0.25-0.14-0.39c0-0.04,0-0.08,0.01-0.11c0,0,0.08-0.42,0.13-0.7
				c-2.53,1.59-5.09,2.2-7.49,1.76c-2.74-0.55-5.3-3.28-5.81-6.2c-0.14-0.78-0.2-1.56-0.19-2.34c-0.11,0.1-0.25,0.16-0.41,0.16
				c0,0-13.72,0.01-14.4,0.01c-0.01,0.06-0.02,0.11-0.02,0.18c0,0.23,0.08,0.51,0.17,0.84c0,0,0.04,0.15,0.06,0.22
				c0.69,1.71,2.32,2.78,4.19,2.73c1.85-0.04,3.56-0.94,5.09-2.67c0.12-0.13,0.28-0.21,0.45-0.21h3.21c0.21,0,0.4,0.11,0.51,0.29
				c0.11,0.18,0.12,0.4,0.04,0.59c-1.82,3.89-5.91,6.51-10.2,6.51c-2.98-0.12-5.49-1.59-6.88-4.06c-0.69-1.32-1.02-2.95-1.01-4.62
				l-1.43,7.77c-0.05,0.21-0.23,0.36-0.44,0.36h-3.75c-0.14,0-0.27-0.07-0.36-0.17c-0.06-0.08-0.1-0.18-0.1-0.28
				c0-0.04,0-0.07,0.01-0.11c1.59-6.71,2.83-16.44,3.64-20.21c-1.94,2.31-15.17,20.6-15.17,20.6c-0.09,0.1-0.21,0.17-0.34,0.17
				l-3.87,0c-0.14,0-0.27-0.07-0.35-0.18c-0.07-0.08-0.1-0.19-0.1-0.29c0-0.03,0-0.07,0.01-0.1c1.45-6.79,2.94-16.42,3.65-20.19
				c-1.87,2.27-17.78,20.58-17.78,20.58c-0.09,0.11-0.22,0.17-0.36,0.17c-1.16,0.01-5.04,0.01-5.04,0.01
				c-0.18,0-0.34-0.14-0.41-0.31c-0.07-0.16-0.05-0.36,0.07-0.49l25.08-29.36c0.09-0.1,0.21-0.17,0.34-0.17l3.95-0.01
				c0.14,0,0.27,0.06,0.35,0.17c0.07,0.08,0.1,0.2,0.1,0.3c0,0.03,0,0.06-0.01,0.09c0,0-2.69,15.73-3.27,18.58
				c1.98-2.27,14.62-18.97,14.62-18.97c0.09-0.1,0.21-0.17,0.34-0.17H74c0.14,0,0.27,0.07,0.36,0.18c0.09,0.11,0.12,0.27,0.08,0.41
				l-2.97,16.49c0.03-0.06,0.06-0.12,0.09-0.18c1.91-3.76,5.83-6.4,9.74-6.89c0.01,0,0.03,0,0.04,0c3.54-0.18,6.28,1.18,7.91,3.93
				c0.01,0.02,0.02,0.03,0.02,0.05c0.59,1.2,1.03,2.81,1.11,4.48c0.67-1.98,1.86-3.81,3.51-5.36c2.8-2.65,6.21-3.69,9.61-2.93
				c0.04,0.01,0.08,0.02,0.11,0.04l0.32,0.14c0.75,0.33,1.57,0.69,2.27,1.33c0.37-1.76,1.44-7.06,1.44-7.06
				c0.06-0.29,0.31-0.49,0.59-0.49h3.13C111.54,58.91,111.71,59,111.83,59.14z M76.3,72.63c1.44-0.01,8.33,0.01,9.32,0.01
				c-0.07-0.68-0.42-1.38-1.16-2.13c-0.81-0.71-1.65-1.17-3.51-1.03C79.22,69.72,77.23,70.82,76.3,72.63z M105.29,74.16
				c0.03-0.94-0.19-1.87-0.62-2.57c-0.79-1.3-1.83-1.88-2.68-2.08c-1.51-0.35-3.23-0.01-4.49,0.89c-2.2,1.68-3.46,3.87-3.46,6.14
				c0,0.36,0.01,0.66,0.11,1.1c0.22,1.09,0.83,2.16,1.77,2.82c0.88,0.58,2.25,0.81,4,0.47c2.27-0.56,4.55-2.88,5.2-5.4
				C105.21,75.08,105.27,74.77,105.29,74.16z M112.82,64.33c-0.18,0-0.35-0.08-0.47-0.23c-0.11-0.14-0.16-0.41-0.13-0.59l0.72-4.07
				c0.06-0.29,0.31-0.52,0.6-0.52l3.48,0c0.18,0,0.35,0.09,0.46,0.23c0.11,0.14,0.16,0.32,0.13,0.5l-0.75,4.1
				c-0.05,0.29-0.3,0.59-0.59,0.59L112.82,64.33z M259.15,55.46c2.05,0,3.76,1.67,3.76,3.84c0,2.1-1.67,3.82-3.76,3.82
				c-2.09,0-3.76-1.71-3.76-3.82C255.39,57.13,257.08,55.46,259.15,55.46z M259.15,62.44c1.7,0,3.08-1.42,3.08-3.15
				c0-1.77-1.38-3.15-3.08-3.15c-1.69,0-3.08,1.38-3.08,3.15C256.07,61.02,257.44,62.44,259.15,62.44z M258.41,61.34h-0.86v-4.11
				h1.89c0.24,0,1.54,0,1.54,1.23c0,0.78-0.55,1.01-0.75,1.1l0.75,1.79h-0.92l-0.66-1.64h-0.99V61.34z M258.41,59.01h0.9
				c0.29,0,0.77-0.08,0.77-0.58c0-0.24-0.17-0.54-0.7-0.54h-0.97V59.01z"/>
		</g>
	</g>
</g>
</svg>
