<?xml version="1.0" encoding="UTF-8"?>
<svg width="293px" height="140px" viewBox="0 0 293 140" version="1.1" xmlns="http://www.w3.org/2000/svg" xmlns:xlink="http://www.w3.org/1999/xlink">
    <!-- Generator: Sketch 52.4 (67378) - http://www.bohemiancoding.com/sketch -->
    <title>Nooteboom</title>
    <desc>Created with Sketch.</desc>
    <g id="Nooteboom" stroke="none" stroke-width="1" fill="none" fill-rule="evenodd">
        <g id="Nooteboom-def" transform="translate(88.000000, 37.000000)">
            <g id="Achtergrond" fill="#DF1931">
                <rect id="Rectangle" x="0" y="0" width="118.979012" height="71.831085"></rect>
            </g>
            <g id="Group" transform="translate(9.000000, 22.000000)" fill="#FFFFFF">
                <path d="M10.3927536,20.6378378 L3.53395445,13.9036036 L12.1701863,3.70900901 L18.9244306,8.86846847 L44.6867495,8.86846847 L50.520911,3.79189189 L56.3550725,8.86846847 L82.1173913,8.86846847 L88.8716356,3.70900901 L97.5078675,13.9036036 L90.6490683,20.6378378 L10.3927536,20.6378378 Z M91.652795,22.9792793 L100.916356,13.945045 L89.2689441,0.186486486 L81.2809524,6.27837838 L57.3169772,6.27837838 L50.520911,0.372972973 L43.7039337,6.2990991 L19.7399586,6.2990991 L11.7519669,0.207207207 L0.104554865,13.9657658 L9.36811594,23 L91.652795,23 L91.652795,22.9792793 Z" id="Shape" fill-rule="nonzero"></path>
                <g transform="translate(11.082816, 10.153153)">
                    <polygon id="Path" points="6.21055901 5.53243243 6.18964803 5.53243243 2.21656315 0.455855856 0.0418219462 0.455855856 0.0418219462 8.74414414 2.21656315 8.74414414 2.21656315 3.66756757 2.23747412 3.66756757 6.21055901 8.74414414 8.38530021 8.74414414 8.38530021 0.455855856 6.21055901 0.455855856"></polygon>
                    <path d="M14.0312629,0.186486486 C11.626501,0.186486486 9.40993789,1.94774775 9.40993789,4.45495495 C9.40993789,7.14864865 11.3546584,9.03423423 14.0312629,9.03423423 C16.7078675,9.03423423 18.652588,7.14864865 18.652588,4.45495495 C18.652588,1.94774775 16.4360248,0.186486486 14.0312629,0.186486486 Z M14.0312629,6.94144144 C12.7347826,6.94144144 11.668323,5.90540541 11.668323,4.47567568 C11.668323,3.33603604 12.7347826,2.27927928 14.0312629,2.27927928 C15.3277433,2.27927928 16.3942029,3.31531532 16.3942029,4.47567568 C16.3942029,5.88468468 15.3277433,6.94144144 14.0312629,6.94144144 Z" id="Shape" fill-rule="nonzero"></path>
                    <path d="M23.8803313,0.186486486 C21.4755694,0.186486486 19.2590062,1.94774775 19.2590062,4.45495495 C19.2590062,7.14864865 21.2037267,9.03423423 23.8803313,9.03423423 C26.5569358,9.03423423 28.5016563,7.14864865 28.5016563,4.45495495 C28.5016563,1.94774775 26.2850932,0.186486486 23.8803313,0.186486486 Z M23.8803313,6.94144144 C22.5838509,6.94144144 21.5173913,5.90540541 21.5173913,4.47567568 C21.5173913,3.33603604 22.5838509,2.27927928 23.8803313,2.27927928 C25.1768116,2.27927928 26.2432712,3.31531532 26.2432712,4.47567568 C26.2432712,5.88468468 25.1768116,6.94144144 23.8803313,6.94144144 Z" id="Shape" fill-rule="nonzero"></path>
                    <polygon id="Path" points="30.6763975 8.74414414 32.8511387 8.74414414 32.8511387 2.27927928 34.6494824 2.27927928 34.6494824 0.455855856 28.8780538 0.455855856 28.8780538 2.27927928 30.6763975 2.27927928"></polygon>
                    <polygon id="Path" points="35.4231884 8.74414414 40.1908903 8.74414414 40.1908903 6.92072072 37.5979296 6.92072072 37.5979296 5.49099099 40.0654244 5.49099099 40.0654244 3.66756757 37.5979296 3.66756757 37.5979296 2.27927928 40.1908903 2.27927928 40.1908903 0.455855856 35.4231884 0.455855856"></polygon>
                    <path d="M47.9279503,6.44414414 C47.9279503,5.28378378 47.426087,4.47567568 46.2132505,4.33063063 L46.2132505,4.30990991 C46.8824017,3.97837838 47.1333333,3.35675676 47.1333333,2.61081081 C47.1333333,1.03603604 46.1296066,0.455855856 44.6449275,0.455855856 L41.5291925,0.455855856 L41.5291925,8.74414414 L44.8749482,8.74414414 C46.4223602,8.74414414 47.9279503,8.18468468 47.9279503,6.44414414 Z M43.7039337,2.11351351 L43.8503106,2.11351351 C44.4358178,2.11351351 45.1258799,2.15495495 45.1258799,2.92162162 C45.1258799,3.62612613 44.5194617,3.72972973 43.9548654,3.72972973 L43.7039337,3.72972973 L43.7039337,2.11351351 Z M43.9966874,7.10720721 L43.7039337,7.10720721 L43.7039337,5.32522523 L43.9339545,5.32522523 C44.6449275,5.32522523 45.7113872,5.22162162 45.7113872,6.23693694 C45.7322981,7.12792793 44.6240166,7.10720721 43.9966874,7.10720721 Z" id="Shape" fill-rule="nonzero"></path>
                    <path d="M53.2602484,0.186486486 C50.8554865,0.186486486 48.6389234,1.94774775 48.6389234,4.45495495 C48.6389234,7.14864865 50.5836439,9.03423423 53.2602484,9.03423423 C55.936853,9.03423423 57.8815735,7.14864865 57.8815735,4.45495495 C57.8815735,1.94774775 55.6650104,0.186486486 53.2602484,0.186486486 Z M53.2602484,6.94144144 C51.9637681,6.94144144 50.8973085,5.90540541 50.8973085,4.47567568 C50.8973085,3.33603604 51.9637681,2.27927928 53.2602484,2.27927928 C54.5567288,2.27927928 55.6231884,3.31531532 55.6231884,4.47567568 C55.6231884,5.88468468 54.5567288,6.94144144 53.2602484,6.94144144 Z" id="Shape" fill-rule="nonzero"></path>
                    <path d="M63.1093168,0.186486486 C60.7045549,0.186486486 58.4879917,1.94774775 58.4879917,4.45495495 C58.4879917,7.14864865 60.4327122,9.03423423 63.1093168,9.03423423 C65.7859213,9.03423423 67.7306418,7.14864865 67.7306418,4.45495495 C67.7306418,1.94774775 65.5140787,0.186486486 63.1093168,0.186486486 Z M63.1093168,6.94144144 C61.8128364,6.94144144 60.7463768,5.90540541 60.7463768,4.47567568 C60.7463768,3.33603604 61.8128364,2.27927928 63.1093168,2.27927928 C64.4057971,2.27927928 65.4722567,3.31531532 65.4722567,4.47567568 C65.4722567,5.88468468 64.4057971,6.94144144 63.1093168,6.94144144 Z" id="Shape" fill-rule="nonzero"></path>
                    <polygon id="Path" points="77.4751553 0.455855856 75.3004141 0.455855856 73.5020704 4.89009009 71.8082816 0.455855856 69.6753623 0.455855856 68.2534161 8.74414414 70.4072464 8.74414414 71.1182195 3.97837838 71.1391304 3.97837838 73.06294 8.74414414 73.9202899 8.74414414 75.9277433 3.97837838 75.9486542 3.97837838 76.5550725 8.74414414 78.7507246 8.74414414"></polygon>
                </g>
            </g>
            <g id="SPECIAL_TRAILERS_SINCE_1881" transform="translate(20.000000, 49.000000)" fill="#FFFFFF">
                <path d="M0.68968254,3.59090909 C0.794179894,3.97727273 1.06587302,4.20454545 1.46296296,4.20454545 C1.86005291,4.20454545 2.11084656,3.95454545 2.11084656,3.54545455 C2.11084656,3.11363636 1.81825397,3 1.40026455,2.79545455 C0.68968254,2.40909091 0.292592593,2.11363636 0.292592593,1.45454545 C0.292592593,0.75 0.773280423,0.25 1.5047619,0.25 C2.11084656,0.25 2.52883598,0.522727273 2.67513228,0.977272727 L2.1526455,1.27272727 C1.98544974,1 1.7973545,0.863636364 1.54656085,0.863636364 C1.19126984,0.863636364 0.961375661,1.09090909 0.961375661,1.40909091 C0.961375661,1.84090909 1.27486772,1.95454545 1.73465608,2.18181818 C2.4452381,2.54545455 2.77962963,2.86363636 2.77962963,3.47727273 C2.77962963,4.29545455 2.27804233,4.84090909 1.44206349,4.84090909 C0.752380952,4.84090909 0.292592593,4.47727273 0.167195767,3.84090909 L0.68968254,3.59090909 Z" id="Path"></path>
                <path d="M4.20079365,4.72727273 L3.57380952,4.72727273 L3.57380952,0.318181818 L4.57698413,0.318181818 C4.99497354,0.318181818 5.30846561,0.340909091 5.6010582,0.545454545 C5.85185185,0.75 6.01904762,1.11363636 6.01904762,1.52272727 C6.01904762,1.95454545 5.85185185,2.31818182 5.6010582,2.52272727 C5.32936508,2.72727273 4.99497354,2.75 4.57698413,2.75 L4.20079365,2.75 L4.20079365,4.72727273 Z M4.40978836,2.15909091 C5.01587302,2.15909091 5.32936508,2.09090909 5.32936508,1.56818182 C5.32936508,1.04545455 5.03677249,0.931818182 4.40978836,0.931818182 L4.24259259,0.931818182 L4.24259259,2.15909091 L4.40978836,2.15909091 Z" id="Shape" fill-rule="nonzero"></path>
                <polygon id="Path" points="6.68783069 0.318181818 8.94497354 0.318181818 8.94497354 0.931818182 7.33571429 0.931818182 7.33571429 2.04545455 8.94497354 2.04545455 8.94497354 2.68181818 7.33571429 2.68181818 7.33571429 4.11363636 8.94497354 4.11363636 8.94497354 4.75 6.68783069 4.75"></polygon>
                <path d="M11.7873016,0.886363636 C10.8886243,0.886363636 10.2825397,1.56818182 10.2825397,2.54545455 C10.2825397,3.52272727 10.9095238,4.18181818 11.7037037,4.18181818 C12.1843915,4.18181818 12.6232804,4 13.0203704,3.63636364 L13.0203704,4.43181818 C12.6650794,4.70454545 12.2470899,4.84090909 11.7664021,4.84090909 C11.139418,4.84090909 10.6169312,4.61363636 10.2198413,4.18181818 C9.82275132,3.75 9.61375661,3.15909091 9.61375661,2.52272727 C9.61375661,1.88636364 9.82275132,1.29545455 10.2407407,0.863636364 C10.6378307,0.431818182 11.1603175,0.204545455 11.7664021,0.204545455 C12.2470899,0.204545455 12.6859788,0.363636364 13.0830688,0.659090909 L13.0412698,1.38636364 C12.6441799,1.04545455 12.2470899,0.886363636 11.7873016,0.886363636 Z" id="Path"></path>
                <polygon id="Path" points="13.9399471 0.318181818 14.5878307 0.318181818 14.5878307 4.72727273 13.9399471 4.72727273"></polygon>
                <path d="M17.8481481,3.59090909 L16.2388889,3.59090909 L15.7791005,4.72727273 L15.089418,4.72727273 L17.0539683,0.159090909 L19.0185185,4.72727273 L18.328836,4.72727273 L17.8481481,3.59090909 Z M17.618254,3 L17.2002646,2 C17.1584656,1.88636364 17.0957672,1.72727273 17.0539683,1.5 C17.0121693,1.72727273 16.9494709,1.88636364 16.907672,2 L16.4896825,3 L17.618254,3 Z" id="Shape" fill-rule="nonzero"></path>
                <polygon id="Path" points="19.4574074 0.318181818 20.105291 0.318181818 20.105291 4.09090909 21.568254 4.09090909 21.568254 4.72727273 19.4365079 4.72727273"></polygon>
                <polygon id="Path" points="25.2465608 4.72727273 24.5986772 4.72727273 24.5986772 0.931818182 23.5328042 0.931818182 23.5328042 0.318181818 26.3333333 0.318181818 26.3333333 0.931818182 25.2674603 0.931818182"></polygon>
                <path d="M27.5246032,4.72727273 L26.897619,4.72727273 L26.897619,0.318181818 L27.8171958,0.318181818 C28.2560847,0.318181818 28.5695767,0.363636364 28.8203704,0.568181818 C29.071164,0.772727273 29.2174603,1.11363636 29.2174603,1.54545455 C29.2174603,2.25 28.9039683,2.65909091 28.2978836,2.72727273 L29.6981481,4.72727273 L28.9457672,4.72727273 L27.6082011,2.75 L27.5246032,2.75 L27.5246032,4.72727273 Z M27.6917989,2.20454545 C28.2769841,2.20454545 28.5486772,2.13636364 28.5486772,1.59090909 C28.5486772,1.04545455 28.2769841,0.931818182 27.6917989,0.931818182 L27.5664021,0.931818182 L27.5664021,2.20454545 L27.6917989,2.20454545 Z" id="Shape" fill-rule="nonzero"></path>
                <path d="M32.3941799,3.59090909 L30.7849206,3.59090909 L30.3251323,4.72727273 L29.6354497,4.72727273 L31.6,0.159090909 L33.5645503,4.72727273 L32.8748677,4.72727273 L32.3941799,3.59090909 Z M32.1433862,3 L31.7253968,2 C31.6835979,1.88636364 31.6208995,1.72727273 31.5791005,1.5 C31.5373016,1.72727273 31.4746032,1.88636364 31.4328042,2 L31.0148148,3 L32.1433862,3 Z" id="Shape" fill-rule="nonzero"></path>
                <polygon id="Path" points="34.0243386 0.318181818 34.6722222 0.318181818 34.6722222 4.72727273 34.0243386 4.72727273"></polygon>
                <polygon id="Path" points="35.6962963 0.318181818 36.3441799 0.318181818 36.3441799 4.09090909 37.8071429 4.09090909 37.8071429 4.72727273 35.6753968 4.72727273 35.6753968 0.318181818"></polygon>
                <polygon id="Path" points="38.4550265 0.318181818 40.7121693 0.318181818 40.7121693 0.931818182 39.1029101 0.931818182 39.1029101 2.04545455 40.7121693 2.04545455 40.7121693 2.68181818 39.1029101 2.68181818 39.1029101 4.11363636 40.7121693 4.11363636 40.7121693 4.75 38.4550265 4.75"></polygon>
                <path d="M42.1751323,4.72727273 L41.5481481,4.72727273 L41.5481481,0.318181818 L42.4677249,0.318181818 C42.9066138,0.318181818 43.2201058,0.363636364 43.4708995,0.568181818 C43.7216931,0.772727273 43.8679894,1.11363636 43.8679894,1.54545455 C43.8679894,2.25 43.5544974,2.65909091 42.9484127,2.72727273 L44.3486772,4.72727273 L43.5962963,4.72727273 L42.2587302,2.75 L42.1751323,2.75 L42.1751323,4.72727273 Z M42.3214286,2.20454545 C42.9066138,2.20454545 43.1783069,2.13636364 43.1783069,1.59090909 C43.1783069,1.04545455 42.9066138,0.931818182 42.3214286,0.931818182 L42.1960317,0.931818182 L42.1960317,2.20454545 L42.3214286,2.20454545 Z" id="Shape" fill-rule="nonzero"></path>
                <path d="M45.1010582,3.59090909 C45.2055556,3.97727273 45.4772487,4.20454545 45.8743386,4.20454545 C46.2714286,4.20454545 46.5222222,3.95454545 46.5222222,3.54545455 C46.5222222,3.11363636 46.2296296,3 45.8116402,2.79545455 C45.1010582,2.40909091 44.7039683,2.11363636 44.7039683,1.45454545 C44.7039683,0.75 45.1846561,0.25 45.9161376,0.25 C46.5222222,0.25 46.9402116,0.522727273 47.0865079,0.977272727 L46.5640212,1.27272727 C46.3968254,1 46.2087302,0.863636364 45.9579365,0.863636364 C45.6026455,0.863636364 45.3727513,1.09090909 45.3727513,1.40909091 C45.3727513,1.84090909 45.6862434,1.95454545 46.1460317,2.18181818 C46.8566138,2.54545455 47.1910053,2.86363636 47.1910053,3.47727273 C47.1910053,4.29545455 46.689418,4.84090909 45.8534392,4.84090909 C45.1637566,4.84090909 44.7039683,4.47727273 44.5785714,3.84090909 L45.1010582,3.59090909 Z" id="Path"></path>
                <path d="M50.0333333,3.59090909 C50.1378307,3.97727273 50.4095238,4.20454545 50.8066138,4.20454545 C51.2037037,4.20454545 51.4544974,3.95454545 51.4544974,3.54545455 C51.4544974,3.11363636 51.1619048,3 50.7439153,2.79545455 C50.0333333,2.40909091 49.6362434,2.11363636 49.6362434,1.45454545 C49.6362434,0.75 50.1169312,0.25 50.8484127,0.25 C51.4544974,0.25 51.8724868,0.522727273 52.0187831,0.977272727 L51.4962963,1.27272727 C51.3291005,1 51.1410053,0.863636364 50.8902116,0.863636364 C50.5349206,0.863636364 50.3050265,1.09090909 50.3050265,1.40909091 C50.3050265,1.84090909 50.6185185,1.95454545 51.0783069,2.18181818 C51.7888889,2.54545455 52.1232804,2.86363636 52.1232804,3.47727273 C52.1232804,4.29545455 51.6216931,4.84090909 50.7857143,4.84090909 C50.0960317,4.84090909 49.6362434,4.47727273 49.5108466,3.84090909 L50.0333333,3.59090909 Z" id="Path"></path>
                <polygon id="Path" points="52.9383598 0.318181818 53.5862434 0.318181818 53.5862434 4.72727273 52.9383598 4.72727273"></polygon>
                <path d="M54.6312169,0.159090909 L57.2018519,2.84090909 C57.3690476,3.02272727 57.5153439,3.18181818 57.6407407,3.38636364 L57.6407407,0.340909091 L58.2468254,0.340909091 L58.2468254,4.90909091 L55.6343915,2.15909091 C55.4880952,2 55.3626984,1.84090909 55.2373016,1.65909091 L55.2373016,4.72727273 L54.6312169,4.72727273 L54.6312169,0.159090909 Z" id="Path"></path>
                <path d="M61.2772487,0.886363636 C60.3785714,0.886363636 59.7724868,1.56818182 59.7724868,2.54545455 C59.7724868,3.52272727 60.3994709,4.18181818 61.1936508,4.18181818 C61.6743386,4.18181818 62.1132275,4 62.5103175,3.63636364 L62.5103175,4.43181818 C62.1550265,4.70454545 61.737037,4.84090909 61.2563492,4.84090909 C60.6293651,4.84090909 60.1068783,4.61363636 59.7097884,4.18181818 C59.3126984,3.75 59.1037037,3.15909091 59.1037037,2.52272727 C59.1037037,1.88636364 59.3126984,1.29545455 59.7306878,0.863636364 C60.1277778,0.431818182 60.6502646,0.204545455 61.2563492,0.204545455 C61.737037,0.204545455 62.1759259,0.363636364 62.5730159,0.659090909 L62.5312169,1.38636364 C62.134127,1.04545455 61.737037,0.886363636 61.2772487,0.886363636 Z" id="Path"></path>
                <polygon id="Path" points="63.4089947 0.318181818 65.6661376 0.318181818 65.6661376 0.931818182 64.0568783 0.931818182 64.0568783 2.04545455 65.6661376 2.04545455 65.6661376 2.68181818 64.0568783 2.68181818 64.0568783 4.11363636 65.6661376 4.11363636 65.6661376 4.75 63.4089947 4.75"></polygon>
                <polygon id="Path" points="69.281746 0.931818182 68.4457672 0.931818182 68.6965608 0.363636364 69.8878307 0.363636364 69.8878307 4.72727273 69.281746 4.72727273"></polygon>
                <path d="M70.9328042,1.45454545 C70.9328042,0.772727273 71.4134921,0.272727273 72.1867725,0.272727273 C72.9600529,0.272727273 73.4407407,0.75 73.4407407,1.47727273 C73.4407407,1.90909091 73.231746,2.22727273 72.8555556,2.38636364 C73.2944444,2.54545455 73.5661376,2.97727273 73.5661376,3.52272727 C73.5661376,4.31818182 73.0645503,4.81818182 72.165873,4.81818182 C71.2880952,4.81818182 70.7865079,4.31818182 70.7865079,3.52272727 C70.7865079,2.95454545 71.0373016,2.52272727 71.4970899,2.36363636 C71.1208995,2.22727273 70.9328042,1.93181818 70.9328042,1.45454545 Z M72.9391534,3.5 C72.9391534,3.02272727 72.6465608,2.72727273 72.1867725,2.72727273 C71.7269841,2.72727273 71.4343915,3.02272727 71.4343915,3.5 C71.4343915,3.97727273 71.7060847,4.27272727 72.1867725,4.27272727 C72.6674603,4.27272727 72.9391534,3.97727273 72.9391534,3.5 Z M71.5806878,1.47727273 C71.5806878,1.84090909 71.810582,2.06818182 72.1867725,2.06818182 C72.5838624,2.06818182 72.7928571,1.84090909 72.7928571,1.47727273 C72.7928571,1.09090909 72.562963,0.863636364 72.1867725,0.863636364 C71.810582,0.863636364 71.5806878,1.11363636 71.5806878,1.47727273 Z" id="Shape" fill-rule="nonzero"></path>
                <path d="M74.339418,1.45454545 C74.339418,0.772727273 74.8201058,0.272727273 75.5933862,0.272727273 C76.3666667,0.272727273 76.8473545,0.75 76.8473545,1.47727273 C76.8473545,1.90909091 76.6383598,2.22727273 76.2621693,2.38636364 C76.7010582,2.54545455 76.9727513,2.97727273 76.9727513,3.52272727 C76.9727513,4.31818182 76.471164,4.81818182 75.5724868,4.81818182 C74.694709,4.81818182 74.1931217,4.31818182 74.1931217,3.52272727 C74.1931217,2.95454545 74.4439153,2.52272727 74.9037037,2.36363636 C74.5275132,2.22727273 74.339418,1.93181818 74.339418,1.45454545 Z M76.3666667,3.5 C76.3666667,3.02272727 76.0740741,2.72727273 75.6142857,2.72727273 C75.1544974,2.72727273 74.8619048,3.02272727 74.8619048,3.5 C74.8619048,3.97727273 75.1335979,4.27272727 75.6142857,4.27272727 C76.0740741,4.27272727 76.3666667,3.97727273 76.3666667,3.5 Z M74.9873016,1.47727273 C74.9873016,1.84090909 75.2171958,2.06818182 75.5933862,2.06818182 C75.9904762,2.06818182 76.1994709,1.84090909 76.1994709,1.47727273 C76.1994709,1.09090909 75.9695767,0.863636364 75.5933862,0.863636364 C75.2171958,0.863636364 74.9873016,1.11363636 74.9873016,1.47727273 Z" id="Shape" fill-rule="nonzero"></path>
                <polygon id="Path" points="78.247619 0.931818182 77.4116402 0.931818182 77.6624339 0.363636364 78.8537037 0.363636364 78.8537037 4.72727273 78.247619 4.72727273"></polygon>
            </g>
        </g>
    </g>
</svg>