<?xml version="1.0" encoding="utf-8"?>
<!-- Generator: Adobe Illustrator 23.0.3, SVG Export Plug-In . SVG Version: 6.00 Build 0)  -->
<svg version="1.1" id="Layer_1" xmlns="http://www.w3.org/2000/svg" xmlns:xlink="http://www.w3.org/1999/xlink" x="0px" y="0px"
	 viewBox="0 0 293 140" style="enable-background:new 0 0 293 140;" xml:space="preserve">
<style type="text/css">
	.st0{fill-rule:evenodd;clip-rule:evenodd;fill:#047052;}
	.st1{fill-rule:evenodd;clip-rule:evenodd;fill:#FFDD00;}
</style>
<title>4ps</title>
<desc>Created with Sketch.</desc>
<g id="Symbols">
	<g transform="translate(-58.000000, -37.000000)">
		<g id="Header" transform="translate(58.000000, 37.000000)">
			<g>
				<g id="OZHZ_logo_POS_RGB">
					<polyline id="Fill-1" class="st0" points="181.77,48.7 181.77,63.83 161.31,63.83 161.31,48.7 181.77,48.7 					"/>
					<polygon id="Fill-2" class="st0" points="161.31,91.46 181.77,91.46 181.77,75.02 161.31,75.02 					"/>
					<g id="Group" transform="translate(43.605000, 19.125000)">
						<polyline id="Fill-3" class="st0" points="62.55,29.58 62.55,45.94 79.24,29.58 62.55,29.58 						"/>
						<polyline id="Fill-4" class="st0" points="106.17,55.19 88.68,72.34 106.17,72.34 106.17,55.19 						"/>
						<polyline id="Fill-5" class="st0" points="106.17,29.58 96.86,29.58 62.55,63.21 62.55,72.34 71.06,72.34 106.17,37.92 
							106.17,29.58 						"/>
					</g>
					<polyline id="Fill-6" class="st0" points="193.39,48.7 193.39,65.06 210.07,48.7 193.39,48.7 					"/>
					<polyline id="Fill-7" class="st0" points="237,74.32 219.51,91.46 237,91.46 237,74.32 					"/>
					<polyline id="Fill-8" class="st0" points="237,48.7 227.69,48.7 193.39,82.34 193.39,91.46 201.89,91.46 237,57.04 237,48.7 
											"/>
					<path id="Fill-9" class="st1" d="M77.81,82.45c-6.89,0-12.47-5.47-12.47-12.23c0-6.75,5.58-12.23,12.47-12.23
						c6.89,0,12.47,5.47,12.47,12.23C90.28,76.97,84.7,82.45,77.81,82.45z M77.81,48.54C65.76,48.54,56,58.11,56,69.91
						c0,11.81,9.76,21.38,21.81,21.38c12.04,0,21.81-9.57,21.81-21.38C99.61,58.11,89.85,48.54,77.81,48.54L77.81,48.54z"/>
				</g>
			</g>
		</g>
	</g>
</g>
</svg>
