<?xml version="1.0" encoding="utf-8"?>
<!-- Generator: Adobe Illustrator 23.0.3, SVG Export Plug-In . SVG Version: 6.00 Build 0)  -->
<svg version="1.1" id="Layer_1" xmlns="http://www.w3.org/2000/svg" xmlns:xlink="http://www.w3.org/1999/xlink" x="0px" y="0px"
	 viewBox="0 0 293 140" style="enable-background:new 0 0 293 140;" xml:space="preserve">
<title>4ps</title>
<desc>Created with Sketch.</desc>
<g>
	<path d="M85.18,68.83c0.84,5.55-0.52,10.49-3.99,14.78c-8.64,10.69-25.38,9.89-32.82-1.54c-2.31-3.55-2.02-7.94,0.73-11.18
		c2.83-3.32,7.22-4.39,11.06-2.44c1.71,0.87,3.15,2.25,4.73,3.36c1.64,1.15,3.18,2.55,4.98,3.31c5.66,2.39,11.47,0.31,14.6-4.98
		C84.73,69.71,84.95,69.26,85.18,68.83z"/>
	<path d="M162.45,86.29c-9.18-0.02-15.75-6.65-15.7-15.87c0.04-9.34,6.64-15.88,15.96-15.83c8.99,0.05,15.55,6.77,15.53,15.9
		C178.21,79.74,171.65,86.31,162.45,86.29z M162.5,60.9c-5.35,0-8.53,3.51-8.58,9.48c-0.05,5.98,3.27,9.68,8.64,9.64
		c5.31-0.04,8.48-3.64,8.47-9.61C171.01,64.43,167.86,60.91,162.5,60.9z"/>
	<path d="M137.75,72.83c2.65,4.34,5.91,8.22,8.44,13.05c-2.57,0-4.66,0.19-6.68-0.09c-0.88-0.12-1.81-1.07-2.39-1.88
		c-1.79-2.5-3.47-5.08-5.07-7.71c-0.82-1.35-1.77-2.07-3.68-1.51c0,2.74,0,5.6,0,8.46c0,2.8,0,2.8-2.71,2.8
		c-4.33,0-4.33,0-4.33-4.38c0-8.17,0.04-16.35-0.03-24.52c-0.01-1.64,0.43-2.23,2.12-2.14c3.64,0.18,7.31-0.09,10.92,0.31
		c5.06,0.56,7.97,3.13,8.73,7C143.92,66.52,142.18,70.07,137.75,72.83z M128.47,68.97c2.67-0.16,5.41,0.54,7.18-2.04
		c0.96-1.4,1.07-3.08,0.04-4.44c-1.88-2.48-4.64-1.52-7.22-1.73C128.47,63.55,128.47,66.11,128.47,68.97z"/>
	<path d="M248.37,85.88c-2.58,0-4.77,0.15-6.92-0.09c-0.73-0.08-1.51-1.05-1.98-1.8c-1.91-3-3.72-6.06-5.73-9.38
		c-1.89,3-3.73,5.67-5.29,8.51c-1.17,2.12-2.62,3.25-5.1,2.83c-1.25-0.21-2.52-0.33-3.78-0.49c0.56-1.09,1.04-2.22,1.7-3.25
		c2.28-3.61,4.58-7.21,6.96-10.75c0.7-1.04,0.74-1.76,0.01-2.83c-2.63-3.83-5.14-7.74-7.66-11.64c-0.3-0.47-0.34-1.11-0.5-1.67
		c0.52-0.13,1.04-0.38,1.56-0.37c7.07,0.12,5.01-1.08,8.8,4.85c1.17,1.83,2.31,3.69,3.61,5.76c1.86-2.92,3.7-5.61,5.32-8.43
		c0.97-1.68,2.17-2.47,4.11-2.23c0.93,0.12,1.89-0.03,2.82,0.04c0.52,0.04,1.01,0.29,1.52,0.45c-0.16,0.51-0.23,1.09-0.51,1.52
		c-2.57,3.87-5.14,7.74-7.82,11.54c-0.75,1.06-0.67,1.77,0,2.8c2.68,4.1,5.28,8.25,7.88,12.39
		C247.74,84.24,247.95,84.92,248.37,85.88z"/>
	<path d="M101.33,75.8c0,2.72-0.07,5.42,0.03,8.1c0.06,1.49-0.29,2.1-1.95,2.08c-5-0.06-5,0.01-5-5.04c0-7.86,0-15.72,0-23.59
		c0-2.42,0-2.46,2.5-2.42c3.83,0.07,7.69-0.09,11.48,0.39c5.55,0.7,8.59,4.51,8.54,9.95c-0.05,5.28-3.38,9.19-8.68,9.99
		C106.03,75.6,103.77,75.62,101.33,75.8z M101.43,69.76c2.82-0.32,5.8,0.83,7.78-1.99c1.06-1.51,1.01-4.03-0.12-5.34
		c-2.11-2.45-4.94-1.46-7.66-1.63C101.43,63.81,101.43,66.61,101.43,69.76z"/>
	<path d="M188.51,60.97c-2.64,0-4.96-0.05-7.27,0.02c-1.14,0.03-1.51-0.37-1.55-1.51c-0.17-4.54-0.2-4.54,4.36-4.54
		c6.09,0,12.18,0.05,18.27-0.03c1.6-0.02,2.25,0.36,2.2,2.08c-0.14,4.84,0.46,3.9-4,3.99c-1.56,0.03-3.12,0.01-4.9,0.01
		c0,0.8,0,1.47,0,2.14c0,6.97-0.04,13.94,0.03,20.91c0.01,1.48-0.41,1.96-1.92,1.96c-5.22,0-5.22,0.05-5.22-5.25
		c0-5.84,0-11.68,0-17.52C188.51,62.52,188.51,61.85,188.51,60.97z"/>
	<path d="M215.62,70.43c0,4.59-0.04,9.18,0.02,13.77c0.02,1.29-0.35,1.75-1.69,1.77c-5.44,0.09-5.44,0.13-5.44-5.23
		c0-7.86,0.04-15.72-0.03-23.57c-0.02-1.71,0.47-2.31,2.24-2.27c4.9,0.09,4.9,0.01,4.9,4.98C215.62,63.39,215.62,66.91,215.62,70.43
		z"/>
	<path d="M70.9,50.94c4.45-1.11,7.82,1.68,7.31,5.94c-0.7,5.92-3.23,10.75-8.66,13.71c-1.03,0.56-2.08,1.05-2.85-0.55
		C71.22,64.44,71.65,57.85,70.9,50.94z"/>
	<path d="M64.3,68.42c-0.16-0.73-0.51-1.48-0.45-2.19c0.37-3.93-0.93-7.42-2.75-10.77c-0.74-1.37-1.61-2.68-2.42-4
		c2.32-2.82,6.32-3.45,9.11-1.42c0.32,0.23,0.64,0.65,0.69,1.02c0.87,5.92,0.66,11.65-3,16.76c-0.15,0.2-0.29,0.41-0.44,0.61
		C64.8,68.42,64.55,68.42,64.3,68.42z"/>
	<path d="M70.72,72.96c6.85-5.12,8.14-7.12,10.03-15.43c3.34,2.1,4.38,7.6,2.17,11.51C80.43,73.48,75.28,75.18,70.72,72.96z"/>
	<path d="M61.01,66.31c-0.56-0.54-1.3-0.99-1.64-1.65c-1.71-3.32-4.11-5.98-7.37-7.8c-1.22-0.68-1.21-1.38-0.6-2.41
		c1.52-2.56,4.83-2.8,6.17-0.22c1.51,2.91,2.67,6,3.83,9.07c0.3,0.79,0.05,1.8,0.05,2.71C61.31,66.11,61.16,66.21,61.01,66.31z"/>
	<path d="M57.17,65.36c-1.12-0.26-1.82-0.37-2.49-0.58c-2.37-0.76-4.71-1.65-7.11-2.28c-1.24-0.33-1.5-0.93-1.25-2.01
		c0.49-2.09,2.42-2.99,4.24-1.93C53.21,60.13,55.54,62.04,57.17,65.36z"/>
	<path d="M52.34,65.96c-3.46,1.34-5.04,4.34-6.73,7.59c-1.26-2.95-1.38-5.63,0.09-8.22c0.28-0.49,1.18-0.97,1.73-0.91
		c1.65,0.18,3.26,0.63,4.89,0.97C52.32,65.59,52.33,65.78,52.34,65.96z"/>
</g>
</svg>
