<?xml version="1.0" encoding="utf-8"?>
<!-- Generator: Adobe Illustrator 23.0.3, SVG Export Plug-In . SVG Version: 6.00 Build 0)  -->
<svg version="1.1" id="Layer_1" xmlns="http://www.w3.org/2000/svg" xmlns:xlink="http://www.w3.org/1999/xlink" x="0px" y="0px"
	 viewBox="0 0 293 140" style="enable-background:new 0 0 293 140;" xml:space="preserve">
<style type="text/css">
	.st0{fill-rule:evenodd;clip-rule:evenodd;}
	.st1{fill-rule:evenodd;clip-rule:evenodd;fill:#FFFFFF;filter:url(#Adobe_OpacityMaskFilter);}
	.st2{mask:url(#mask0_2_);}
	.st3{fill-rule:evenodd;clip-rule:evenodd;fill:#C5C5C5;}
	.st4{fill-rule:evenodd;clip-rule:evenodd;fill:#FFFFFF;filter:url(#Adobe_OpacityMaskFilter_1_);}
	.st5{mask:url(#mask1_2_);}
	.st6{fill-rule:evenodd;clip-rule:evenodd;fill:#C3C3C3;}
	.st7{fill-rule:evenodd;clip-rule:evenodd;fill:#BFBFBF;}
	.st8{fill-rule:evenodd;clip-rule:evenodd;fill:#010101;}
	.st9{fill-rule:evenodd;clip-rule:evenodd;fill:#020202;}
	.st10{fill-rule:evenodd;clip-rule:evenodd;fill:#030303;}
</style>
<title>4ps</title>
<desc>Created with Sketch.</desc>
<path class="st0" d="M214.91,73.2c3.3-1.62,5.4-4.36,5.9-8.15c0.01-0.1,0.14-0.68,0.14-0.68c0.08-0.25,0.04-0.76,0.01-1.08
	c-0.01-0.08-0.01-0.14-0.01-0.19c-0.01-0.22-0.01-0.25,0-0.32c0-0.04,0-0.1,0-0.23V62.4c-0.01-0.11-0.03-0.21-0.04-0.32
	c-0.14-1.02-0.28-2.03-0.74-2.99c-0.8-1.68-1.97-3.04-3.4-4.17c-2.68-2.11-5.74-3.06-9.14-2.93c-0.13,0.01-0.25,0-0.38,0
	c-0.22-0.01-0.45-0.02-0.67,0.05c-2.54,0.08-4.95,0.63-7.22,1.84c-7.99,4.26-7.94,14.54-0.99,18.76
	C203.72,75.9,209.36,75.93,214.91,73.2z M214.08,57.48c-2.09-1.51-4.42-2.09-6.92-2.12c-2.03,0.01-3.98,0.32-5.77,1.31
	c-2.76,1.53-4.4,3.78-4.33,7.08c0.06,3.13,1.63,5.3,4.31,6.73c1.4,0.75,2.92,1.08,4.49,1.19c2.74,0.19,5.38-0.14,7.78-1.64
	C218.18,67.18,218.34,60.55,214.08,57.48z"/>
<path class="st0" d="M85.24,52.05c3.67,0.12,7.05,1.07,9.87,3.57c0.59,0.52,1.12,1.1,1.63,1.69c0.23,0.27,0.27,0.45-0.14,0.53
	c-0.04,0.01-0.08,0.04-0.13,0.06c-0.8,0.29-1.58,0.72-2.4,0.83c-0.93,0.12-1.32-0.91-2.01-1.35c-2.75-1.76-5.76-2.2-8.92-1.93
	c-1.89,0.16-3.66,0.73-5.23,1.84c-4.7,3.33-4.39,10.06,0.6,12.92c2.33,1.33,4.87,1.61,7.48,1.44c2.91-0.19,5.5-1.16,7.57-3.3
	c0.25-0.25,0.39-0.14,0.6-0.03c0.72,0.41,1.43,0.85,2.17,1.21c0.48,0.23,0.51,0.4,0.15,0.79c-1.95,2.12-4.29,3.59-7.11,4.18
	c-3.88,0.81-7.73,0.83-11.43-0.77c-3.62-1.56-6.13-4.15-6.92-8.19c-0.02-0.11,0-0.25-0.16-0.28v-3.44c0.84-5.21,4.33-7.85,8.97-9.34
	c1.41-0.46,2.88-0.49,4.35-0.49C84.53,52.03,84.89,51.94,85.24,52.05z"/>
<path class="st0" d="M189.23,91.97c-0.13-0.26-0.4-0.21-0.61-0.28c-1.71-0.6-2.69-1.86-2.69-3.47c0.01-1.58,1.03-2.87,2.73-3.43
	c2.12-0.71,4.39-0.18,5.72,1.37c-0.36,0.18-0.72,0.32-1.05,0.53c-0.32,0.2-0.43-0.09-0.59-0.2c-1.29-0.9-2.65-0.97-4.03-0.3
	c-0.88,0.42-1.4,1.13-1.34,2.17c0.05,1.02,0.64,1.68,1.53,2.04c1.03,0.42,2.07,0.43,3.11,0.02c0.55-0.22,0.96-0.59,1.26-1.25
	c-0.89,0-1.71-0.04-2.52,0.01c-0.52,0.03-0.57-0.2-0.56-0.62c0.01-0.37-0.04-0.67,0.53-0.65c1.25,0.05,2.51,0.04,3.77,0
	c0.51-0.02,0.59,0.18,0.55,0.62c-0.17,1.66-1.45,2.99-3.18,3.29c-0.13,0.02-0.29-0.06-0.35,0.14H189.23z"/>
<path class="st0" d="M135.59,91.97c-0.72-0.39-1.57-0.39-2.29-0.82c-0.76-0.46-0.76-0.41-0.27-1.09c0.23-0.32,0.39-0.32,0.72-0.13
	c1.4,0.79,2.9,0.95,4.46,0.61c0.23-0.05,0.46-0.14,0.65-0.27c0.61-0.4,0.57-1.02-0.1-1.32c-0.57-0.26-1.19-0.27-1.81-0.29
	c-0.88-0.03-1.75-0.05-2.6-0.28c-0.93-0.25-1.4-0.7-1.47-1.43c-0.09-0.82,0.26-1.53,1.11-1.89c2.19-0.91,4.33-0.66,6.44,0.47
	c-0.2,0.23-0.37,0.4-0.51,0.59c-0.23,0.31-0.45,0.34-0.83,0.17c-1.17-0.55-2.42-0.62-3.68-0.42c-0.45,0.07-1.09,0.12-1.05,0.73
	c0.03,0.6,0.66,0.57,1.12,0.63c1.13,0.13,2.27,0.15,3.38,0.41c1.34,0.31,1.88,0.83,1.91,1.84c0.04,1.05-0.57,1.81-1.79,2.18
	c-0.31,0.09-0.65,0.12-0.97,0.18c-0.32,0.16-0.69-0.06-1.01,0.13h-0.43c-0.28-0.12-0.57-0.12-0.85,0H135.59z"/>
<defs>
	<filter id="Adobe_OpacityMaskFilter" filterUnits="userSpaceOnUse" x="206.58" y="51.92" width="1.15" height="0.12">
		<feColorMatrix  type="matrix" values="1 0 0 0 0  0 1 0 0 0  0 0 1 0 0  0 0 0 1 0"/>
	</filter>
</defs>
<mask maskUnits="userSpaceOnUse" x="206.58" y="51.92" width="1.15" height="0.12" id="mask0_2_">
	<path class="st1" d="M206.58,51.91h1.15v0.21h-1.15V51.91z"/>
</mask>
<g class="st2">
	<path class="st3" d="M207.73,51.92c-0.01,0.04-0.01,0.08,0.01,0.12c-0.38,0-0.77,0-1.15,0c0.01-0.04,0.01-0.08,0.01-0.12H207.73z"
		/>
</g>
<defs>
	<filter id="Adobe_OpacityMaskFilter_1_" filterUnits="userSpaceOnUse" x="84.09" y="51.92" width="1.16" height="0.12">
		<feColorMatrix  type="matrix" values="1 0 0 0 0  0 1 0 0 0  0 0 1 0 0  0 0 0 1 0"/>
	</filter>
</defs>
<mask maskUnits="userSpaceOnUse" x="84.09" y="51.92" width="1.16" height="0.12" id="mask1_2_">
	<path class="st4" d="M84.09,51.91h1.16v0.21h-1.16V51.91z"/>
</mask>
<g class="st5">
	<path class="st6" d="M84.09,52.04c0-0.04,0.01-0.08,0.01-0.12h1.14c-0.01,0.04-0.01,0.08,0.01,0.12
		C84.86,52.05,84.47,52.04,84.09,52.04z"/>
</g>
<path class="st7" d="M114.68,51.92c0,0.04,0,0.08,0.01,0.12c-0.34,0.29-0.67,0.29-1.01,0c0-0.04,0-0.08,0.01-0.12H114.68z"/>
<path class="st0" d="M185.33,56.84c-1.69,2.15-3.39,4.29-5.08,6.44c-1.86,2.35-3.74,4.7-5.57,7.07c-0.38,0.5-0.52,0.38-0.84-0.03
	c-3.47-4.45-6.95-8.89-10.43-13.34c-0.04-0.06-0.07-0.12-0.14-0.24c-0.22,0.3-0.14,0.56-0.14,0.8c-0.01,5.38-0.01,10.76,0.01,16.14
	c0,0.58-0.13,0.8-0.73,0.76c-0.78-0.05-1.56-0.03-2.35-0.01c-0.37,0.01-0.55-0.06-0.55-0.5c0.01-6.91,0.01-13.82,0-20.73
	c0-0.34,0.09-0.46,0.44-0.45c1.26,0.02,2.51,0.02,3.77,0c0.4-0.01,0.53,0.27,0.71,0.5c3.14,3.98,6.28,7.96,9.4,11.97
	c0.4,0.51,0.54,0.5,0.92,0c3.14-4.01,6.31-8,9.46-12.01c0.26-0.34,0.53-0.47,0.95-0.46c1.11,0.03,2.23,0.03,3.34,0
	c0.4-0.01,0.58,0.06,0.58,0.54c-0.02,6.86-0.02,13.73,0,20.59c0,0.44-0.11,0.59-0.55,0.57c-0.8-0.04-1.61-0.05-2.42,0
	c-0.56,0.04-0.65-0.18-0.65-0.69c0.02-5.4,0.01-10.81,0.01-16.21v-0.63C185.42,56.89,185.37,56.86,185.33,56.84z"/>
<path class="st0" d="M154.08,55.41c-0.66,0.73-1.28,1.39-1.86,2.09c-0.24,0.28-0.42,0.33-0.77,0.16c-3.63-1.8-7.45-2.58-11.49-2.15
	c-1.14,0.12-2.25,0.33-3.26,0.89c-0.77,0.43-1.33,1.02-1.3,1.98c0.03,0.97,0.66,1.5,1.46,1.85c1.17,0.51,2.42,0.63,3.67,0.74
	c2.9,0.26,5.82,0.28,8.69,0.86c0.98,0.2,1.93,0.48,2.84,0.89c3.64,1.65,4.5,6.28,1.7,9.19c-1.3,1.35-2.93,2.09-4.72,2.45
	c-5,1.01-9.93,0.81-14.73-1.05c-1.08-0.42-2.08-1.01-3.03-1.69c-0.33-0.24-0.44-0.4-0.13-0.77c0.49-0.58,0.95-1.2,1.38-1.82
	c0.23-0.33,0.41-0.34,0.74-0.14c3.54,2.11,7.38,3.04,11.47,2.85c1.8-0.08,3.59-0.3,5.18-1.27c1-0.61,1.64-1.46,1.56-2.69
	c-0.08-1.29-0.92-1.99-2.05-2.38c-0.31-0.11-0.63-0.21-0.95-0.26c-2.5-0.43-5.04-0.51-7.56-0.72c-1.98-0.16-3.96-0.37-5.86-1
	c-1.77-0.58-3.05-1.65-3.36-3.59c-0.32-1.96,0.16-3.7,1.68-5.06c1.58-1.42,3.51-2.05,5.55-2.32c4.39-0.58,8.69-0.26,12.79,1.61
	c0.54,0.24,1.05,0.54,1.57,0.83C153.53,55.03,153.78,55.22,154.08,55.41z"/>
<path class="st0" d="M114.69,52.05l-1.01,0c-2.81,0.08-5.47,0.71-7.9,2.2c-7.1,4.35-7.39,13.58-0.57,18.3
	c2.14,1.48,4.54,2.21,7.11,2.42c3.44,0.28,6.75-0.12,9.83-1.82c7.57-4.18,7.64-14.2,0.8-18.63
	C120.41,52.87,117.65,52.14,114.69,52.05z M120.73,57.23c-1.99-1.37-4.23-1.84-6.42-1.86c-2.18,0.01-4.13,0.34-5.92,1.32
	c-2.7,1.48-4.33,3.71-4.33,6.88c0,3.15,1.53,5.43,4.28,6.9c1.4,0.75,2.92,1.09,4.49,1.21c2.57,0.19,5.06-0.06,7.36-1.36
	C125.33,67.4,125.61,60.57,120.73,57.23z"/>
<path class="st8" d="M129.46,89.85c-0.16-0.23-0.32-0.46-0.49-0.69c1.41-0.64,1.86-1.42,1.63-2.7c-0.19-1.03-1.02-1.68-2.38-1.72
	c-0.98-0.03-1.96-0.02-2.94-0.02c-0.75,0-1.5,0.01-2.25,0c-0.47-0.01-0.47,0.24-0.46,0.57c0,0,0,0.01,0,0.01c0,0.2,0,0.4,0,0.6
	c0.01,1.76,0.01,3.51-0.01,5.27c-0.01,0.48,0.16,0.57,0.6,0.6c0.66,0.05,0.89-0.18,0.79-0.82c-0.01-0.08-0.01-0.16-0.01-0.24
	c0-0.04,0-0.08,0-0.11c0-1.26,0.01-1.26,1.04-1.37c0.1-0.01,0.2-0.02,0.32-0.04c1.59-0.19,2.6,0.35,3.35,1.76
	c0.51,0.96,0.89,1,2.06,0.69C130.29,91.04,129.88,90.45,129.46,89.85z M125.74,87.92c0.17,0,0.35,0.01,0.52,0.01
	c0.18,0,0.36,0,0.54,0c0.41,0,0.82,0,1.23,0c0.77-0.02,1.17-0.35,1.17-0.94c0-0.61-0.39-0.95-1.16-0.97
	c-0.66-0.01-1.33-0.01-1.99-0.01c-0.29,0-0.57,0-0.86,0c-1.24,0-1.24,0-1.26,1.21c0,0.02,0,0.04,0,0.06
	c-0.01,0.48,0.09,0.69,0.62,0.65C124.95,87.91,125.34,87.91,125.74,87.92z"/>
<path class="st0" d="M182,90.51c0-1.83,0.03-3.46-0.02-5.08c-0.02-0.65,0.24-0.7,0.77-0.73c0.64-0.04,0.65,0.26,0.65,0.75
	c-0.02,1.91-0.02,3.82,0,5.73c0.01,0.47-0.14,0.54-0.58,0.6c-1.08,0.14-1.78-0.27-2.43-1.15c-1.13-1.55-2.39-3-3.72-4.64
	c0,1.81-0.03,3.44,0.01,5.07c0.01,0.57-0.15,0.71-0.7,0.72c-0.6,0.02-0.74-0.16-0.72-0.75c0.04-1.91,0.03-3.82,0-5.73
	c-0.01-0.47,0.14-0.54,0.58-0.6c1.08-0.13,1.78,0.28,2.42,1.15C179.41,87.4,180.67,88.86,182,90.51z"/>
<path class="st0" d="M108.03,89.96c-0.31,0.57-0.62,1.15-0.93,1.73l0.03,0c1.4,0.16,1.43,0.16,2.01-0.99
	c0.2-0.39,0.44-0.48,0.83-0.47c1.16,0.02,2.32,0.03,3.48-0.01c0.45-0.02,0.66,0.16,0.85,0.54c0.57,1.11,0.59,1.11,1.9,0.92l0.02,0
	c0-0.01,0.01-0.03,0.01-0.05c0.01-0.03,0.02-0.07,0-0.09c-0.19-0.35-0.38-0.7-0.56-1.05c-0.98-1.82-1.96-3.65-2.95-5.46
	c-0.27-0.49-1.76-0.47-2.03,0.02C109.81,86.68,108.93,88.31,108.03,89.96z M113.29,88.93l-1.57-2.96l-0.1,0.19
	c-0.52,0.97-0.99,1.86-1.48,2.77H113.29z"/>
<path class="st8" d="M105.17,88.27c0,1-0.03,2.01,0.01,3.01c0.03,0.63-0.38,0.47-0.7,0.47c-0.33,0-0.74,0.14-0.7-0.48
	c0.04-0.69,0-1.39,0.01-2.08c0.01-0.34-0.1-0.46-0.44-0.46c-1.49,0.01-2.99,0.02-4.48,0c-0.36,0-0.43,0.14-0.43,0.46
	c0.02,0.69-0.02,1.39,0.02,2.08c0.02,0.44-0.17,0.57-0.53,0.47c-0.31-0.08-0.88,0.33-0.88-0.43c0.01-2.06,0-4.11,0-6.17
	c0-0.7,0.52-0.36,0.82-0.41c0.28-0.05,0.63-0.12,0.59,0.42c-0.05,0.62,0.01,1.24-0.02,1.86c-0.01,0.36,0.08,0.5,0.47,0.49
	c1.47-0.02,2.94-0.02,4.41,0c0.39,0.01,0.49-0.13,0.48-0.5c-0.02-0.57,0.03-1.15-0.02-1.72c-0.05-0.6,0.28-0.59,0.69-0.57
	c0.36,0.02,0.75-0.11,0.71,0.54C105.13,86.26,105.17,87.27,105.17,88.27z"/>
<path class="st9" d="M146.16,84.72c1.16,0,2.32,0.03,3.48-0.01c0.55-0.02,0.56,0.25,0.54,0.65c-0.01,0.36,0.07,0.71-0.52,0.67
	c-0.73-0.05-1.47,0.02-2.2-0.02c-0.52-0.03-0.63,0.17-0.62,0.65c0.03,1.5-0.02,3.01,0.02,4.51c0.01,0.55-0.2,0.63-0.66,0.6
	c-0.4-0.03-0.77,0.07-0.75-0.59c0.05-1.5-0.01-3.01,0.03-4.51c0.02-0.56-0.17-0.69-0.68-0.66c-0.73,0.04-1.47-0.02-2.2,0.02
	c-0.56,0.03-0.45-0.34-0.45-0.66c0-0.32-0.11-0.67,0.45-0.66C143.8,84.74,144.98,84.72,146.16,84.72z"/>
<path class="st9" d="M162.17,88.17c0-0.98,0.04-1.96-0.01-2.94c-0.03-0.6,0.32-0.52,0.67-0.51c0.36,0.01,0.75-0.13,0.73,0.52
	c-0.05,1.41-0.01,2.82-0.01,4.23c0,1.04,0,1.04,0.99,1.04c1.28,0,2.56,0.03,3.83-0.02c0.55-0.02,0.54,0.24,0.54,0.63
	c0,0.4,0,0.65-0.55,0.64c-1.89-0.04-3.79-0.03-5.68-0.01c-0.4,0-0.53-0.1-0.52-0.52C162.19,90.22,162.17,89.19,162.17,88.17z"/>
<path class="st8" d="M151.12,84.78c0.99-0.12,1.76-0.16,2.37,0.69c0.54,0.75,1.27,1.35,1.87,2.06c0.32,0.38,0.49,0.28,0.75-0.03
	c0.56-0.65,1.22-1.21,1.72-1.9c0.62-0.86,1.4-1.04,2.36-0.82c0.01,0.27-0.22,0.4-0.37,0.56c-0.96,1.05-1.93,2.1-2.93,3.13
	c-0.37,0.38-0.58,0.77-0.52,1.32c0.04,0.4-0.03,0.82,0.02,1.22c0.08,0.63-0.14,0.81-0.77,0.78c-0.49-0.02-0.71-0.15-0.62-0.65
	c0.29-1.56-0.33-2.72-1.48-3.74C152.68,86.63,151.97,85.7,151.12,84.78z"/>
<path class="st10" d="M172.32,88.24c0,1-0.04,2,0.01,3c0.03,0.59-0.31,0.52-0.67,0.51c-0.35-0.01-0.75,0.14-0.74-0.52
	c0.04-2,0.04-4.01,0-6.01c-0.01-0.66,0.4-0.49,0.75-0.51c0.37-0.02,0.69-0.06,0.66,0.52C172.29,86.24,172.32,87.24,172.32,88.24z"/>
<path class="st8" d="M118.26,88.21c0-0.98,0.04-1.96-0.01-2.93c-0.03-0.61,0.3-0.58,0.7-0.56c0.34,0.02,0.74-0.16,0.73,0.51
	c-0.04,2-0.04,4.01,0,6.01c0.01,0.66-0.37,0.51-0.72,0.52c-0.38,0.01-0.75,0.1-0.71-0.54C118.3,90.21,118.26,89.21,118.26,88.21z"/>
</svg>
