<?xml version="1.0" encoding="UTF-8"?>
<svg width="293px" height="140px" viewBox="0 0 293 140" version="1.1" xmlns="http://www.w3.org/2000/svg" xmlns:xlink="http://www.w3.org/1999/xlink">
    <!-- Generator: Sketch 52.4 (67378) - http://www.bohemiancoding.com/sketch -->
    <title>Radar</title>
    <desc>Created with Sketch.</desc>
    <g id="Radar" stroke="none" stroke-width="1" fill="none" fill-rule="evenodd">
        <g id="Radar-def" transform="translate(62.000000, 49.000000)">
            <path d="M6.31807512,6.31807512 C2.26720071,10.3580255 -0.00656876366,15.8458229 -2.83248886e-05,21.5669014" id="Path" stroke="#FFD400" stroke-width="4"></path>
            <path d="M6.31807512,36.8157277 C10.3580255,40.8666021 15.8458229,43.1403716 21.5669014,43.1338311" id="Path" stroke="#FFD400"></path>
            <path d="M21.5669014,43.1338395 C27.2640009,43.1412523 32.7309879,40.8864895 36.7664319,36.8650235" id="Path" stroke="#FFD400"></path>
            <path d="M36.8157277,6.31807512 C32.7757773,2.26720071 27.28798,-0.00656876366 21.5669014,-2.83248886e-05" id="Path" stroke="#FFD400" stroke-width="4"></path>
            <path d="M21.5669014,-2.83248886e-05 C15.8458229,-0.00656876366 10.3580255,2.26720071 6.31807512,6.31807512" id="Path" stroke="#1E196A" stroke-width="4"></path>
            <path d="M7.18896035,21.5669014 C7.18634505,25.380339 8.70309806,29.0376947 11.4037559,31.7300469" id="Path" stroke="#FFD400" stroke-width="4"></path>
            <path d="M11.4037559,31.7300469 C14.0961081,34.4307048 17.7534638,35.9474578 21.5669014,35.9448425" id="Path" stroke="#FFD400" stroke-width="4"></path>
            <path d="M31.6807512,31.7875587 C34.4136752,29.0893097 35.9497792,25.4073957 35.9448594,21.5669014" id="Path" stroke="#FFD400"></path>
            <path d="M35.9448425,21.5669014 C35.9474578,17.7534638 34.4307048,14.0961081 31.7300469,11.4037559" id="Path" stroke="#FFD400"></path>
            <path d="M31.7300469,11.4037559 C29.0376947,8.70309806 25.380339,7.18634505 21.5669014,7.18896035" id="Path" stroke="#FFD400"></path>
            <path d="M21.5669014,7.18896035 C17.7534638,7.18634505 14.0961081,8.70309806 11.4037559,11.4037559" id="Path" stroke="#1E196A"></path>
            <path d="M16.5058685,16.4319249 C15.1405249,17.7814677 14.373917,19.6225106 14.377903,21.5422535" id="Path" stroke="#FFD400" stroke-width="4"></path>
            <path d="M14.3779343,21.5669014 C14.3674326,23.458953 15.105819,25.2783371 16.4319249,26.6279343" id="Path" stroke="#FFD400"></path>
            <path d="M16.4319249,26.6279343 C17.7874621,27.9993928 19.6386207,28.766513 21.5669014,28.7558685" id="Path" stroke="#FFD400"></path>
            <path d="M21.5669014,28.7558991 C23.474542,28.7598162 25.3049841,28.0027997 26.6525822,26.6525822" id="Path" stroke="#FFD400"></path>
            <path d="M26.6525822,16.4812207 C25.3049841,15.1310031 23.474542,14.3739867 21.5669014,14.3779037" id="Path" stroke="#FFD400" stroke-width="4"></path>
            <path d="M47.8826291,16.4319249 L48.1784038,16.1032864 C49.3943662,14.657277 50.2159624,14.1807512 51.4647887,14.1807512 C52.286385,14.1807512 53.1079812,14.5093897 53.1079812,14.8298122 C53.1003567,14.9303019 53.0810562,15.029562 53.0504695,15.1255869 L52.2288732,17.4589202 C52.1384977,17.6643192 52.0809859,17.721831 51.9659624,17.721831 C51.9061784,17.7324323 51.8449953,17.7324323 51.7852113,17.721831 C51.4245664,17.5542468 51.0326149,17.4646579 50.6349765,17.4589202 C50.0105634,17.4589202 49.3368545,17.8697183 48.4495305,18.8474178 L48.4495305,28.3615023 C48.4495305,28.8051643 48.3920188,28.8626761 47.9483568,28.8626761 L45.2535211,28.8626761 C44.842723,28.8626761 44.7769953,28.8051643 44.7769953,28.3615023 L44.7769953,19.6361502 C44.8178236,18.4063266 44.5849034,17.1827939 44.0950704,16.0539906 L43.9143192,15.6431925 C43.8845146,15.5667213 43.8651694,15.4865766 43.8568075,15.4049296 C43.8568075,15.24738 43.9660114,15.1108751 44.1197183,15.0762911 L46.4530516,14.2546948 C46.5607153,14.2259966 46.670679,14.206753 46.7816901,14.1971831 C47.1431925,14.1971831 47.5868545,15.0598592 47.8826291,16.4319249 Z" id="Path" fill="#1E196A"></path>
            <path d="M61.7347418,20.0551643 L61.7347418,19.1678404 C61.7347418,17.5246479 61.2910798,17.0070423 59.8122066,17.0070423 C58.7076957,17.0605974 57.6232891,17.3226391 56.6161972,17.7793427 C56.520154,17.8098575 56.4209024,17.8291565 56.3204225,17.8368545 C56.1725352,17.8368545 56.0821596,17.7793427 56.0246479,17.5739437 L55.4002347,15.8321596 C55.3750502,15.7348332 55.3558437,15.6360571 55.342723,15.536385 C55.342723,15.2734742 55.5481221,15.1255869 56.1643192,14.8873239 C57.4835938,14.4202559 58.8727871,14.1813147 60.2723005,14.1807512 C62.8438967,14.1807512 64.5035211,15.1584507 65.0046948,16.9330986 C65.154721,17.5427777 65.2156041,18.1709802 65.185446,18.7981221 L65.185446,24.6478873 C65.1520972,25.7235936 65.3864184,26.7907435 65.8673709,27.7535211 C65.9159482,27.8455026 65.9466167,27.945872 65.9577465,28.0492958 C65.9467757,28.187531 65.8522133,28.3049188 65.7194836,28.3450704 L63.4518779,29.2488263 C63.3490553,29.2995227 63.2375261,29.3301932 63.1232394,29.3392019 C62.8274648,29.3392019 62.564554,28.8051643 62.2359155,27.6220657 C61.3239393,28.6932489 59.97806,29.2967822 58.5715962,29.2652582 C57.3960374,29.3571828 56.2389427,28.9312226 55.4035819,28.0990201 C54.5682211,27.2668175 54.1378811,26.1113447 54.2253521,24.935446 C54.0830528,23.1939776 55.0780504,21.558865 56.6901408,20.8849765 C58.2135152,20.2451033 59.8635987,19.9639988 61.5129108,20.0633803 L61.7347418,20.0551643 Z M61.7347418,22.4213615 L61.4389671,22.4213615 C58.8673709,22.4213615 57.7089202,23.1279343 57.7089202,24.7300469 C57.6821384,25.2374417 57.8617146,25.7340976 58.206799,26.1070365 C58.5518835,26.4799753 59.0331352,26.6974875 59.5410798,26.7100939 C60.4004094,26.6774567 61.2009442,26.2651512 61.7265258,25.584507 L61.7347418,22.4213615 Z" id="Shape" fill="#1E196A" fill-rule="nonzero"></path>
            <path d="M77.3861502,27.8028169 C76.2692295,28.780951 74.8445716,29.3362768 73.3603286,29.3720657 C70.435446,29.3720657 68.685446,26.7100939 68.685446,22.306338 C68.685446,19.2007042 69.1866197,17.3767606 70.3697183,15.9225352 C71.2561966,14.8066654 72.6090056,14.1636261 74.0340376,14.1807512 C75.0403384,14.1795894 76.026234,14.4645304 76.8767606,15.0023474 L76.8767606,9.16901408 C76.8767606,8.75821596 76.8767606,8.72535211 77.2875587,8.63497653 L79.9823944,8.07629108 C80.0974178,8.07629108 80.1877934,8.07629108 80.2453052,8.07629108 C80.4507042,8.07629108 80.508216,8.2241784 80.508216,8.57746479 L80.508216,25.3215962 C80.4387042,26.1779167 80.624542,27.0356296 81.0422535,27.786385 C81.0663677,27.8449493 81.0856037,27.9054051 81.0997653,27.9671362 C81.0997653,28.0821596 81.0093897,28.1478873 80.8368545,28.2300469 L78.4706573,29.1748826 C78.3739717,29.2028087 78.274988,29.2220555 78.1748826,29.2323944 C77.8873239,29.2488263 77.5586854,28.657277 77.3861502,27.8028169 Z M76.8849765,17.5985915 C76.2455457,17.2664907 75.5350776,17.0945123 74.814554,17.0974178 C73.0070423,17.0974178 72.3497653,18.3380282 72.3497653,21.8298122 C72.3497653,25.3215962 72.9988263,26.5293427 74.6255869,26.5293427 C75.4902675,26.5248011 76.3143396,26.1618523 76.9014085,25.5269953 L76.8849765,17.5985915 Z" id="Shape" fill="#1E196A" fill-rule="nonzero"></path>
            <path d="M91.6737089,20.0551643 L91.6737089,19.1678404 C91.6737089,17.5246479 91.2300469,17.0070423 89.7511737,17.0070423 C88.6466628,17.0605974 87.5622563,17.3226391 86.5551643,17.7793427 C86.459103,17.8097866 86.3598597,17.8290839 86.2593897,17.8368545 C86.1115023,17.8368545 86.0211268,17.7793427 85.963615,17.5739437 L85.3392019,15.8321596 C85.3140173,15.7348332 85.2948109,15.6360571 85.2816901,15.536385 C85.2816901,15.2734742 85.4870892,15.1255869 86.1032864,14.8873239 C87.422561,14.4202559 88.8117542,14.1813147 90.2112676,14.1807512 C92.7828638,14.1807512 94.4424883,15.1584507 94.943662,16.9330986 C95.0936881,17.5427777 95.1545712,18.1709802 95.1244131,18.7981221 L95.1244131,24.6478873 C95.0910643,25.7235936 95.3253856,26.7907435 95.806338,27.7535211 C95.8549154,27.8455026 95.8855838,27.945872 95.8967136,28.0492958 C95.8857428,28.187531 95.7911804,28.3049188 95.6584507,28.3450704 L93.407277,29.2652582 C93.3044544,29.3159546 93.1929252,29.3466251 93.0786385,29.3556338 C92.7828638,29.3556338 92.5199531,28.8215962 92.1913146,27.6384977 C91.2793383,28.7096808 89.933459,29.3132141 88.5269953,29.2816901 C87.3524689,29.3666387 86.1992904,28.9351828 85.3689766,28.1001334 C84.5386628,27.2650839 84.1137722,26.1094703 84.2053991,24.935446 C84.0630998,23.1939776 85.0580974,21.558865 86.6701878,20.8849765 C88.1935621,20.2451033 89.8436456,19.9639988 91.4929577,20.0633803 L91.6737089,20.0551643 Z M91.6737089,22.4213615 L91.3779343,22.4213615 C88.806338,22.4213615 87.6478873,23.1279343 87.6478873,24.7300469 C87.6211055,25.2374417 87.8006817,25.7340976 88.1457662,26.1070365 C88.4908506,26.4799753 88.9721023,26.6974875 89.4800469,26.7100939 C90.3393766,26.6774567 91.1399113,26.2651512 91.665493,25.584507 L91.6737089,22.4213615 Z" id="Shape" fill="#1E196A" fill-rule="nonzero"></path>
            <path d="M102.913146,16.4319249 L103.20892,16.1032864 C104.424883,14.657277 105.246479,14.1807512 106.495305,14.1807512 C107.316901,14.1807512 108.138498,14.5093897 108.138498,14.8298122 C108.130727,14.9302822 108.11143,15.0295255 108.080986,15.1255869 L107.25939,17.4589202 C107.169014,17.6643192 107.111502,17.721831 106.996479,17.721831 C106.936695,17.7324323 106.875512,17.7324323 106.815728,17.721831 C106.455003,17.5544809 106.063102,17.4649035 105.665493,17.4589202 C105.04108,17.4589202 104.367371,17.8697183 103.480047,18.8474178 L103.480047,28.3615023 C103.480047,28.8051643 103.422535,28.8626761 102.978873,28.8626761 L100.316901,28.8626761 C99.9061033,28.8626761 99.8403756,28.8051643 99.8403756,28.3615023 L99.8403756,19.6361502 C99.8809295,18.4063479 99.6480206,17.1828749 99.1584507,16.0539906 L98.9776995,15.6431925 C98.9478949,15.5667213 98.9285496,15.4865766 98.9201878,15.4049296 C98.9201878,15.24738 99.0293917,15.1108751 99.1830986,15.0762911 L101.516432,14.2546948 C101.624105,14.2260373 101.734065,14.2067943 101.84507,14.1971831 C102.173709,14.1971831 102.617371,15.0598592 102.913146,16.4319249 Z" id="Path" fill="#1E196A"></path>
            <path d="M21.5669014,14.3779343 C19.6748499,14.3674326 17.8554658,15.105819 16.5058685,16.4319249" id="Path" stroke="#1E196A" stroke-width="4"></path>
            <path d="M21.5669014,35.9448588 C25.355017,35.9496486 28.9910815,34.4550518 31.6807512,31.7875587" id="Path" stroke="#FFD400" stroke-width="4"></path>
            <path d="M47.2910798,39.6173709 C48.1126761,39.6173709 49.2546948,39.6173709 49.2546948,40.8579812 C49.2670914,41.7369255 48.7188028,42.526329 47.8908451,42.8215962 C48.458879,42.9738985 48.8383462,43.5086023 48.7946009,44.0950704 C48.7898801,44.8744411 48.3990234,45.6007574 47.7511737,46.0340376 C47.2181306,46.3021117 46.6190051,46.4105249 46.0258216,46.3462441 L44.6455399,46.3462441 C44.5962441,46.3462441 44.5633803,46.3462441 44.5633803,46.2805164 L45.9600939,39.7077465 C45.9600939,39.6255869 46.0176056,39.6091549 46.0751174,39.6091549 L47.2910798,39.6173709 Z M46.3462441,45.713615 C46.7404462,45.7478434 47.1324575,45.6269978 47.4389671,45.3767606 C47.7904934,45.0637608 47.9909203,44.6150438 47.9894366,44.1443662 C47.9894366,43.3884977 47.3157277,43.2652582 46.8556338,43.2652582 L46.0093897,43.2652582 L45.5,45.7300469 L46.3462441,45.713615 Z M46.7570423,42.6079812 C47.1527994,42.6458131 47.5477212,42.527926 47.8579812,42.2793427 C48.2153779,41.9778723 48.4372721,41.5459181 48.4741784,41.0798122 C48.4741784,40.4061033 48.0469484,40.258216 47.6032864,40.258216 L46.6338028,40.258216 L46.1408451,42.5833333 L46.7570423,42.6079812 Z" id="Shape" fill="#1E196A" fill-rule="nonzero"></path>
            <path d="M53.4694836,45.0809859 C53.4330128,45.2402559 53.4110141,45.4024967 53.4037559,45.5657277 C53.4192404,45.7708235 53.4634922,45.9727225 53.5352113,46.165493 C53.5352113,46.165493 53.4859155,46.2312207 53.4448357,46.2476526 L53.0915493,46.3955399 C53.0473116,46.4179233 53.0003652,46.4344927 52.9518779,46.4448357 C52.8615023,46.4448357 52.7464789,46.1983568 52.7464789,45.9847418 C52.7388064,45.8588805 52.7388064,45.7326688 52.7464789,45.6068075 C52.358439,46.1805225 51.7137043,46.5274512 51.0211268,46.5352113 C50.7582671,46.5208901 50.5127823,46.3993937 50.3419739,46.199082 C50.1711655,45.9987703 50.0899811,45.7371728 50.1173709,45.4753521 C50.1246707,45.2807492 50.1550074,45.0876972 50.2077465,44.9002347 L50.8650235,41.7946009 C50.8650235,41.7370892 50.8650235,41.6549296 50.963615,41.6384977 L51.4565728,41.5234742 C51.4866574,41.521262 51.5168638,41.521262 51.5469484,41.5234742 C51.629108,41.5234742 51.629108,41.5234742 51.6126761,41.6056338 L50.9389671,44.6948357 C50.8844941,44.8909336 50.8487316,45.0917535 50.8321596,45.2946009 C50.8321596,45.6396714 50.9964789,45.8450704 51.3333333,45.8450704 C51.7794398,45.8062037 52.192468,45.5937892 52.4835681,45.2535211 C52.7695609,44.8458911 52.9527768,44.3751672 53.0176056,43.8814554 L53.4694836,41.7946009 C53.4694836,41.7370892 53.4694836,41.6549296 53.5680751,41.6384977 L54.0610329,41.5234742 C54.0911205,41.5213473 54.1213208,41.5213473 54.1514085,41.5234742 C54.2335681,41.5234742 54.2171362,41.5234742 54.2171362,41.6056338 L53.4694836,45.0809859 Z" id="Path" fill="#1E196A"></path>
            <path d="M55.6220657,43.2652582 C55.6862814,43.0209733 55.7221205,42.7700996 55.7288732,42.5176056 C55.7210133,42.2846747 55.6879568,42.0532793 55.6302817,41.8274648 C55.6302817,41.7699531 55.6877934,41.7288732 55.7288732,41.7124413 L56.1232394,41.5481221 C56.1668475,41.5420491 56.2110868,41.5420491 56.2546948,41.5481221 C56.3450704,41.5481221 56.435446,41.8603286 56.435446,42.2546948 C56.4508042,42.3416589 56.4508042,42.4306416 56.435446,42.5176056 C56.6873896,41.9690133 57.2077337,41.5919975 57.8075117,41.5234742 C57.963615,41.5234742 58.185446,41.5809859 58.185446,41.6549296 C58.1931337,41.6873438 58.1931337,41.7211069 58.185446,41.7535211 L57.9882629,42.2053991 C57.9882629,42.2546948 57.9882629,42.2711268 57.9225352,42.2711268 C57.8220422,42.2360183 57.7167354,42.2166197 57.6103286,42.213615 C57.2488263,42.213615 56.7887324,42.6737089 56.6737089,42.8955399 C56.4309955,43.2747765 56.2687993,43.6998425 56.1971831,44.1443662 L55.7453052,46.2969484 C55.7453052,46.3626761 55.7453052,46.3955399 55.6302817,46.3955399 L55.0469484,46.3955399 C54.9976526,46.3955399 54.9647887,46.3955399 54.9647887,46.3380282 C54.9598343,46.2861117 54.9598343,46.2338414 54.9647887,46.1819249 L55.6220657,43.2652582 Z" id="Path" fill="#1E196A"></path>
            <path d="M61.3157277,45.7546948 C61.3157277,45.7546948 61.3157277,45.7546948 61.3157277,45.8039906 C60.8208868,46.2638115 60.1671836,46.5141033 59.491784,46.5023474 C58.3744131,46.5023474 57.8978873,45.7957746 57.8978873,44.6948357 C57.8978873,43.0516432 58.9248826,41.4906103 60.3626761,41.4906103 C60.7144649,41.4351542 61.0724203,41.5422575 61.3359375,41.7818186 C61.5994546,42.0213796 61.7400872,42.367538 61.7183099,42.7230047 C61.7183099,44.4401408 59.5492958,44.4401408 58.6784038,44.4483568 C58.6784038,44.5387324 58.6784038,44.6126761 58.6784038,44.6948357 C58.6784038,45.3931925 58.9577465,45.7793427 59.5985915,45.7793427 C60.1040415,45.7510912 60.5923923,45.5864147 61.0117371,45.3028169 C61.0494955,45.3059334 61.0832977,45.3274439 61.1021127,45.3603286 L61.3157277,45.7546948 Z M61.0199531,42.7887324 C61.0371572,42.5956622 60.9649011,42.4053605 60.8238915,42.2723628 C60.6828819,42.1393652 60.4886835,42.0783518 60.2969484,42.1068075 C59.1713615,42.1068075 58.8591549,43.3884977 58.7523474,43.8732394 C59.2946009,43.8732394 61.0199531,43.8732394 61.0199531,42.7887324 Z" id="Shape" fill="#1E196A" fill-rule="nonzero"></path>
            <path d="M65.9166667,44.8591549 C65.8678484,45.1168209 65.8376451,45.3776674 65.8262911,45.6396714 C65.8343527,45.8390591 65.8618699,46.0371828 65.9084507,46.2312207 C65.9084507,46.2312207 65.8591549,46.2969484 65.8180751,46.3133803 L65.4647887,46.4612676 C65.4205153,46.4835675 65.37358,46.5001329 65.3251174,46.5105634 C65.2429577,46.5105634 65.1361502,46.2147887 65.1361502,45.9107981 C65.1095841,45.766865 65.1095841,45.6192852 65.1361502,45.4753521 C64.8429592,46.0702751 64.2604688,46.4689852 63.5997653,46.5269953 C62.8685446,46.5269953 62.4823944,45.935446 62.4823944,45.0809859 C62.4823944,43.7992958 63.2053991,41.5234742 64.7992958,41.5234742 C65.2149051,41.5041631 65.6093467,41.7076449 65.834507,42.0575117 L65.9741784,41.7535211 C65.9741784,41.7535211 65.9741784,41.6631455 66.064554,41.6631455 L66.5492958,41.6631455 C66.5492958,41.6631455 66.6314554,41.6631455 66.6314554,41.7206573 C66.6345468,41.7561927 66.6345468,41.7919294 66.6314554,41.8274648 L65.9166667,44.8591549 Z M65.7276995,42.5833333 C65.5000685,42.3291751 65.1810131,42.1755559 64.8403756,42.1561033 C63.7558685,42.1561033 63.2793427,44.1607981 63.2793427,45.0152582 C63.2793427,45.5 63.42723,45.8368545 63.879108,45.8368545 C64.7007042,45.8368545 65.2676056,44.6948357 65.4401408,43.9143192 L65.7276995,42.5833333 Z" id="Shape" fill="#1E196A" fill-rule="nonzero"></path>
            <path d="M70.8544601,45.0809859 C70.8181206,45.2402798 70.7961235,45.4025087 70.7887324,45.5657277 C70.8041085,45.7708394 70.8483637,45.9727534 70.9201878,46.165493 C70.9201878,46.165493 70.870892,46.2312207 70.8298122,46.2476526 L70.4765258,46.3955399 C70.4322524,46.4178398 70.3853171,46.4344052 70.3368545,46.4448357 C70.2464789,46.4448357 70.1314554,46.1983568 70.1314554,45.9847418 C70.1240003,45.858874 70.1240003,45.7326753 70.1314554,45.6068075 C69.7434155,46.1805225 69.0986808,46.5274512 68.4061033,46.5352113 C68.1392449,46.5337214 67.8850155,46.4213646 67.704267,46.2250343 C67.5235185,46.028704 67.4325196,45.7660715 67.4530516,45.5 C67.4603514,45.3053971 67.4906882,45.112345 67.5434272,44.9248826 L68.2007042,41.8192488 C68.2007042,41.7617371 68.2007042,41.6795775 68.2992958,41.6631455 L68.7922535,41.5481221 C68.8223402,41.5459675 68.8525424,41.5459675 68.8826291,41.5481221 C68.9647887,41.5481221 68.9647887,41.5481221 68.9483568,41.6302817 L68.3075117,44.7441315 C68.2530387,44.9402294 68.2172763,45.1410493 68.2007042,45.3438967 C68.2007042,45.6889671 68.3650235,45.8943662 68.7018779,45.8943662 C69.1479844,45.8554995 69.5610126,45.643085 69.8521127,45.3028169 C70.1378177,44.8950328 70.3210052,44.4243819 70.3861502,43.9307512 L70.8380282,41.8438967 C70.8380282,41.786385 70.8380282,41.7042254 70.9366197,41.6877934 L71.4295775,41.57277 C71.4596641,41.5706154 71.4898664,41.5706154 71.5199531,41.57277 C71.6021127,41.57277 71.5856808,41.57277 71.5856808,41.6549296 L70.8544601,45.0809859 Z" id="Path" fill="#1E196A"></path>
            <path d="M75.9976526,46.3626761 C75.9976526,46.4201878 75.9483568,46.4448357 75.8826291,46.4448357 L75.5211268,46.4448357 C75.4307512,46.4448357 75.4061033,46.4448357 75.4061033,46.3380282 L74.8392019,41.9014085 C74.8351625,41.8686687 74.8351625,41.8355566 74.8392019,41.8028169 C74.8392019,41.7535211 74.8392019,41.7370892 74.9213615,41.7206573 L75.471831,41.6056338 L75.5622066,41.6056338 C75.5622066,41.6056338 75.5622066,41.6056338 75.5622066,41.6713615 L75.8579812,44.7441315 C75.8579812,44.8838028 75.8579812,45.2206573 75.8579812,45.3931925 C75.8579812,45.286385 76.120892,44.8838028 76.2687793,44.5715962 L77.8298122,41.6138498 C77.8298122,41.6138498 77.8298122,41.564554 77.8873239,41.564554 L78.0516432,41.564554 L78.5528169,41.6795775 C78.6021127,41.6795775 78.6103286,41.6795775 78.6103286,41.7370892 C78.6192399,41.7665554 78.6192399,41.7979986 78.6103286,41.8274648 L75.9976526,46.3626761 Z" id="Path" fill="#1E196A"></path>
            <path d="M82.8497653,43.1666667 C82.8497653,44.7359155 81.9788732,46.5105634 80.3028169,46.5105634 C79.3826291,46.5105634 78.8157277,46.0340376 78.8157277,44.8673709 C78.8157277,43.2241784 79.6373239,41.5070423 81.3380282,41.5070423 C82.2746479,41.4988263 82.8497653,42.0410798 82.8497653,43.1666667 Z M81.2065728,42.1396714 C80.0152582,42.1396714 79.5633803,43.7007042 79.5633803,44.842723 C79.5633803,45.491784 79.8098592,45.8697183 80.3849765,45.8697183 C81.5598592,45.8697183 82.028169,44.2265258 82.028169,43.1748826 C82.1021127,42.435446 81.7323944,42.1396714 81.2312207,42.1396714 L81.2065728,42.1396714 Z" id="Shape" fill="#1E196A" fill-rule="nonzero"></path>
            <path d="M87.7382629,43.1666667 C87.7382629,44.7359155 86.8673709,46.5105634 85.1913146,46.5105634 C84.2711268,46.5105634 83.7042254,46.0340376 83.7042254,44.8673709 C83.7042254,43.2241784 84.5258216,41.5070423 86.2265258,41.5070423 C87.1631455,41.4988263 87.7382629,42.0410798 87.7382629,43.1666667 Z M86.0950704,42.1396714 C84.9037559,42.1396714 84.4518779,43.7007042 84.4518779,44.842723 C84.4518779,45.491784 84.6983568,45.8697183 85.2734742,45.8697183 C86.4483568,45.8697183 86.9166667,44.2265258 86.9166667,43.1748826 C86.9906103,42.435446 86.620892,42.1396714 86.1197183,42.1396714 L86.0950704,42.1396714 Z" id="Shape" fill="#1E196A" fill-rule="nonzero"></path>
            <path d="M89.1842723,43.2652582 C89.248488,43.0209733 89.2843271,42.7700996 89.2910798,42.5176056 C89.2832198,42.2846747 89.2501634,42.0532793 89.1924883,41.8274648 C89.1924883,41.7699531 89.25,41.7288732 89.2910798,41.7124413 L89.685446,41.5481221 C89.7290612,41.542153 89.7732862,41.542153 89.8169014,41.5481221 C89.907277,41.5481221 89.9976526,41.8603286 89.9976526,42.2546948 C90.0130108,42.3416589 90.0130108,42.4306416 89.9976526,42.5176056 C90.2495962,41.9690133 90.7699403,41.5919975 91.3697183,41.5234742 C91.5258216,41.5234742 91.7476526,41.5809859 91.7476526,41.6549296 C91.7550481,41.6873774 91.7550481,41.7210733 91.7476526,41.7535211 L91.5504695,42.2053991 C91.5504695,42.2546948 91.5504695,42.2711268 91.4847418,42.2711268 C91.3842488,42.2360183 91.278942,42.2166197 91.1725352,42.213615 C90.8110329,42.213615 90.350939,42.6737089 90.2359155,42.8955399 C89.9932021,43.2747765 89.8310059,43.6998425 89.7593897,44.1443662 L89.3075117,46.2969484 C89.3075117,46.3626761 89.3075117,46.3955399 89.1924883,46.3955399 L88.6830986,46.3955399 C88.6338028,46.3955399 88.600939,46.3955399 88.600939,46.3380282 C88.5959845,46.2861117 88.5959845,46.2338414 88.600939,46.1819249 L89.1842723,43.2652582 Z" id="Path" fill="#1E196A"></path>
            <path d="M96.8826291,42.2875587 C96.8620164,42.3422056 96.8095781,42.378257 96.7511737,42.3779343 C96.475536,42.2481898 96.1765064,42.1755284 95.8720657,42.1643192 C95.370892,42.1643192 95.0504695,42.443662 95.0504695,42.8626761 C95.0504695,43.2816901 95.7323944,43.5938967 96.1514085,43.9882629 C96.4351479,44.2115035 96.5966162,44.5557662 96.5868545,44.9166667 C96.5937526,45.3663902 96.4083486,45.7976721 96.0772503,46.1020942 C95.7461521,46.4065163 95.3008499,46.5551254 94.8532864,46.5105634 C94.0809859,46.5105634 93.4319249,46.1819249 93.4319249,46.0504695 C93.4253304,46.0124119 93.4253304,45.9735036 93.4319249,45.935446 L93.5880282,45.5985915 C93.5880282,45.5328638 93.6455399,45.5 93.6948357,45.5 C94.0767158,45.7091379 94.5006786,45.829869 94.935446,45.8532864 C95.3892011,45.8532864 95.7570423,45.4854452 95.7570423,45.0316901 C95.7570423,44.0786385 94.2206573,44.1443662 94.2206573,42.9284038 C94.2298381,42.5125873 94.4127365,42.1196182 94.7249715,41.8448513 C95.0372066,41.5700845 95.4502406,41.4386332 95.8638498,41.4823944 C96.4471831,41.4823944 96.9894366,41.7124413 96.9894366,41.8767606 C96.9957434,41.903784 96.9957434,41.9318967 96.9894366,41.9589202 L96.8826291,42.2875587 Z" id="Path" fill="#1E196A"></path>
            <path d="M101.738263,43.1666667 C101.738263,44.7359155 100.867371,46.5105634 99.1913146,46.5105634 C98.2711268,46.5105634 97.7042254,46.0340376 97.7042254,44.8673709 C97.7042254,43.2241784 98.5258216,41.5070423 100.226526,41.5070423 C101.163146,41.4988263 101.738263,42.0410798 101.738263,43.1666667 Z M100.09507,42.1396714 C98.9037559,42.1396714 98.4518779,43.7007042 98.4518779,44.842723 C98.4518779,45.491784 98.6983568,45.8697183 99.2734742,45.8697183 C100.448357,45.8697183 100.916667,44.2265258 100.916667,43.1748826 C100.982394,42.435446 100.620892,42.1396714 100.119718,42.1396714 L100.09507,42.1396714 Z" id="Shape" fill="#1E196A" fill-rule="nonzero"></path>
            <path d="M105.566901,45.7957746 C105.566901,45.7957746 105.566901,45.8450704 105.566901,45.8779343 C105.130444,46.307313 104.535423,46.536396 103.923709,46.5105634 C102.970657,46.5105634 102.535211,45.8861502 102.535211,44.8673709 C102.535211,43.2241784 103.422535,41.5070423 105.08216,41.5070423 C105.714789,41.5070423 106.298122,41.7617371 106.298122,41.9014085 C106.29525,41.9580762 106.27519,42.0125258 106.24061,42.0575117 L106.059859,42.3450704 C106.059859,42.3943662 106.002347,42.435446 105.961268,42.435446 C105.920188,42.435446 105.764085,42.3450704 105.665493,42.3039906 C105.458361,42.2126554 105.23459,42.1651042 105.008216,42.1643192 C103.816901,42.1643192 103.29108,43.7335681 103.29108,44.8591549 C103.29108,45.4424883 103.553991,45.8286385 104.178404,45.8286385 C104.58095,45.7888403 104.967514,45.6505802 105.303991,45.4260563 C105.329794,45.4128884 105.360347,45.4128884 105.38615,45.4260563 L105.566901,45.7957746 Z" id="Path" fill="#1E196A"></path>
            <path d="M107.514085,46.1737089 C107.514085,46.2640845 107.514085,46.370892 107.382629,46.370892 L106.856808,46.370892 C106.799296,46.370892 106.758216,46.370892 106.758216,46.3215962 C106.752928,46.2834374 106.752928,46.2447316 106.758216,46.2065728 L107.579812,42.213615 L106.799296,42.213615 C106.733568,42.213615 106.717136,42.213615 106.717136,42.1478873 C106.712963,42.1206598 106.712963,42.0929552 106.717136,42.0657277 L106.782864,41.7535211 C106.782864,41.6877934 106.83216,41.6467136 106.897887,41.6467136 L108.212441,41.6467136 C108.352113,41.6467136 108.368545,41.6467136 108.368545,41.7288732 C108.356784,41.8118985 108.340326,41.8941902 108.319249,41.9753521 L107.514085,46.1737089 Z M108.450704,40.4225352 C108.146688,40.4225352 107.900235,40.1760816 107.900235,39.8720657 C107.904647,39.5698962 108.148535,39.3260082 108.450704,39.3215962 C108.751091,39.3301839 108.992586,39.5716789 109.001174,39.8720657 C108.988142,40.1678011 108.746699,40.402037 108.450704,40.4061033 L108.450704,40.4225352 Z" id="Shape" fill="#1E196A" fill-rule="nonzero"></path>
            <path d="M112.558685,44.8591549 C112.509867,45.1168209 112.479664,45.3776674 112.46831,45.6396714 C112.476319,45.8390638 112.503837,46.0371926 112.550469,46.2312207 C112.550469,46.2312207 112.501174,46.2969484 112.460094,46.3133803 L112.106808,46.4612676 C112.062534,46.4835675 112.015599,46.5001329 111.967136,46.5105634 C111.884977,46.5105634 111.778169,46.2147887 111.778169,45.9107981 C111.751603,45.766865 111.751603,45.6192852 111.778169,45.4753521 C111.484978,46.0702751 110.902488,46.4689852 110.241784,46.5269953 C109.510563,46.5269953 109.124413,45.935446 109.124413,45.0809859 C109.124413,43.7992958 109.847418,41.5234742 111.441315,41.5234742 C111.856924,41.5041631 112.251365,41.7076449 112.476526,42.0575117 L112.616197,41.7535211 C112.616197,41.7535211 112.616197,41.6631455 112.706573,41.6631455 L113.142019,41.6631455 C113.142019,41.6631455 113.224178,41.6631455 113.224178,41.7206573 C113.227229,41.7561944 113.227229,41.7919276 113.224178,41.8274648 L112.558685,44.8591549 Z M112.34507,42.5833333 C112.117439,42.3291751 111.798384,42.1755559 111.457746,42.1561033 C110.373239,42.1561033 109.896714,44.1607981 109.896714,45.0152582 C109.896714,45.5 110.044601,45.8368545 110.496479,45.8368545 C111.318075,45.8368545 111.884977,44.6948357 112.057512,43.9143192 L112.34507,42.5833333 Z" id="Shape" fill="#1E196A" fill-rule="nonzero"></path>
            <path d="M115.730047,46.0751174 C115.730047,46.0751174 115.730047,46.157277 115.730047,46.1819249 C115.730047,46.2065728 115.245305,46.5105634 114.850939,46.5105634 C114.637797,46.5431381 114.42134,46.4777594 114.261869,46.3326406 C114.102397,46.1875218 114.016954,45.9781713 114.029343,45.7629108 C114.056142,45.3641553 114.116608,44.9683795 114.210094,44.5798122 L115.286385,39.5352113 C115.286385,39.4776995 115.286385,39.3955399 115.384977,39.379108 L115.877934,39.2640845 C115.908017,39.2618116 115.938228,39.2618116 115.96831,39.2640845 C116.034038,39.2640845 116.034038,39.2640845 116.034038,39.3462441 L114.916667,44.6126761 C114.843184,44.9397094 114.796473,45.2721867 114.776995,45.6068075 C114.776995,45.8532864 114.883803,45.935446 115.064554,45.935446 C115.245305,45.935446 115.491784,45.7711268 115.565728,45.7711268 C115.639671,45.7711268 115.623239,45.7711268 115.631455,45.8368545 L115.730047,46.0751174 Z" id="Path" fill="#1E196A"></path>
            <path d="M119.953052,45.7546948 C119.953052,45.7546948 119.953052,45.7546948 119.953052,45.8039906 C119.458211,46.2638115 118.804508,46.5141033 118.129108,46.5023474 C117.011737,46.5023474 116.535211,45.7957746 116.535211,44.6948357 C116.535211,43.0516432 117.562207,41.4906103 119,41.4906103 C119.343937,41.4513462 119.687686,41.5657591 119.939488,41.8033089 C120.191291,42.0408587 120.325517,42.3773651 120.306338,42.7230047 C120.306338,44.4401408 118.137324,44.4401408 117.266432,44.4483568 C117.266432,44.5387324 117.266432,44.6126761 117.266432,44.6948357 C117.266432,45.3931925 117.545775,45.7793427 118.18662,45.7793427 C118.69207,45.7510912 119.18042,45.5864147 119.599765,45.3028169 C119.637524,45.3059334 119.671326,45.3274439 119.690141,45.3603286 L119.953052,45.7546948 Z M119.657277,42.7887324 C119.674481,42.5956622 119.602225,42.4053605 119.461215,42.2723628 C119.320206,42.1393652 119.126007,42.0783518 118.934272,42.1068075 C117.808685,42.1068075 117.496479,43.3884977 117.389671,43.8732394 C117.890845,43.8732394 119.616197,43.8732394 119.616197,42.7887324 L119.657277,42.7887324 Z" id="Shape" fill="#1E196A" fill-rule="nonzero"></path>
            <path d="M124.619718,46.3626761 C124.619718,46.4201878 124.570423,46.4448357 124.504695,46.4448357 L124.143192,46.4448357 C124.052817,46.4448357 124.028169,46.4448357 124.028169,46.3380282 L123.469484,41.9014085 C123.465604,41.8686591 123.465604,41.8355662 123.469484,41.8028169 C123.469484,41.7535211 123.469484,41.7370892 123.551643,41.7206573 L124.102113,41.6056338 L124.192488,41.6056338 C124.192488,41.6056338 124.192488,41.6056338 124.192488,41.6713615 L124.488263,44.7441315 C124.488263,44.8838028 124.488263,45.2206573 124.488263,45.3931925 C124.488263,45.286385 124.751174,44.8838028 124.899061,44.5715962 L126.460094,41.6138498 C126.460094,41.6138498 126.460094,41.564554 126.517606,41.564554 L126.583333,41.564554 L127.084507,41.6795775 C127.133803,41.6795775 127.142019,41.6795775 127.142019,41.7370892 C127.15093,41.7665554 127.15093,41.7979986 127.142019,41.8274648 L124.619718,46.3626761 Z" id="Path" fill="#1E196A"></path>
            <path d="M128.037559,43.2652582 C128.101774,43.0209733 128.137613,42.7700996 128.144366,42.5176056 C128.136571,42.284669 128.103513,42.0532667 128.045775,41.8274648 C128.045775,41.7699531 128.103286,41.7288732 128.144366,41.7124413 L128.538732,41.5481221 C128.582348,41.542153 128.626573,41.542153 128.670188,41.5481221 C128.760563,41.5481221 128.850939,41.8603286 128.850939,42.2546948 C128.866297,42.3416589 128.866297,42.4306416 128.850939,42.5176056 C129.102883,41.9690133 129.623227,41.5919975 130.223005,41.5234742 C130.379108,41.5234742 130.600939,41.5809859 130.600939,41.6549296 C130.608335,41.6873774 130.608335,41.7210733 130.600939,41.7535211 L130.403756,42.2053991 C130.403756,42.2546948 130.403756,42.2711268 130.338028,42.2711268 C130.237535,42.2360183 130.132228,42.2166197 130.025822,42.213615 C129.664319,42.213615 129.204225,42.6737089 129.089202,42.8955399 C128.846488,43.2747765 128.684292,43.6998425 128.612676,44.1443662 L128.160798,46.2969484 C128.160798,46.3626761 128.160798,46.3955399 128.045775,46.3955399 L127.536385,46.3955399 C127.487089,46.3955399 127.454225,46.3955399 127.454225,46.3380282 C127.449271,46.2861117 127.449271,46.2338414 127.454225,46.1819249 L128.037559,43.2652582 Z" id="Path" fill="#1E196A"></path>
            <path d="M133.805164,44.8591549 C133.756318,45.1168166 133.726114,45.3776652 133.714789,45.6396714 C133.722798,45.8390638 133.750316,46.0371926 133.796948,46.2312207 C133.796948,46.2312207 133.747653,46.2969484 133.706573,46.3133803 L133.353286,46.4612676 C133.309013,46.4835675 133.262078,46.5001329 133.213615,46.5105634 C133.131455,46.5105634 133.024648,46.2147887 133.024648,45.9107981 C132.998082,45.766865 132.998082,45.6192852 133.024648,45.4753521 C132.731457,46.0702751 132.148966,46.4689852 131.488263,46.5269953 C130.757042,46.5269953 130.370892,45.935446 130.370892,45.0809859 C130.370892,43.7992958 131.093897,41.5234742 132.687793,41.5234742 C133.103403,41.5041631 133.497844,41.7076449 133.723005,42.0575117 L133.862676,41.7535211 C133.862676,41.7535211 133.862676,41.6631455 133.953052,41.6631455 L134.388498,41.6631455 C134.388498,41.6631455 134.470657,41.6631455 134.470657,41.7206573 C134.473708,41.7561944 134.473708,41.7919276 134.470657,41.8274648 L133.805164,44.8591549 Z M133.591549,42.5833333 C133.363918,42.3291751 133.044863,42.1755559 132.704225,42.1561033 C131.619718,42.1561033 131.143192,44.1607981 131.143192,45.0152582 C131.143192,45.5 131.29108,45.8368545 131.742958,45.8368545 C132.564554,45.8368545 133.131455,44.6948357 133.303991,43.9143192 L133.591549,42.5833333 Z" id="Shape" fill="#1E196A" fill-rule="nonzero"></path>
            <path d="M138.693662,44.8591549 C138.644872,45.1168252 138.614669,45.3776697 138.603286,45.6396714 C138.611348,45.8390591 138.638865,46.0371828 138.685446,46.2312207 C138.685446,46.2312207 138.63615,46.2969484 138.59507,46.3133803 L138.241784,46.4612676 C138.197511,46.4835675 138.150575,46.5001329 138.102113,46.5105634 C138.019953,46.5105634 137.913146,46.2147887 137.913146,45.9107981 C137.886579,45.766865 137.886579,45.6192852 137.913146,45.4753521 C137.617162,46.0615694 137.039161,46.4531187 136.384977,46.5105634 C135.653756,46.5105634 135.267606,45.9190141 135.267606,45.064554 C135.267606,43.7828638 135.99061,41.5070423 137.584507,41.5070423 C138.000116,41.4877312 138.394558,41.691213 138.619718,42.0410798 L138.75939,41.7370892 C138.75939,41.7370892 138.75939,41.6467136 138.849765,41.6467136 L139.285211,41.6467136 C139.285211,41.6467136 139.367371,41.6467136 139.367371,41.7042254 C139.370305,41.7397674 139.370305,41.7754908 139.367371,41.8110329 L138.693662,44.8591549 Z M138.480047,42.5833333 C138.252416,42.3291751 137.933361,42.1755559 137.592723,42.1561033 C136.508216,42.1561033 136.03169,44.1607981 136.03169,45.0152582 C136.03169,45.5 136.179577,45.8368545 136.631455,45.8368545 C137.453052,45.8368545 138.019953,44.6948357 138.192488,43.9143192 L138.480047,42.5833333 Z" id="Shape" fill="#1E196A" fill-rule="nonzero"></path>
            <path d="M143.573944,44.5387324 C143.426056,45.3603286 143.220657,46.4037559 143.097418,47.0856808 C142.928288,47.953975 142.129859,48.5536836 141.248826,48.4741784 C140.667092,48.473651 140.097393,48.3084384 139.605634,47.9976526 C139.602384,47.9538944 139.602384,47.9099554 139.605634,47.8661972 L139.769953,47.4389671 C139.784816,47.4062591 139.816293,47.3842247 139.852113,47.3814554 C140.300928,47.6039933 140.784365,47.7484689 141.28169,47.8086854 C142.514085,47.8086854 142.456573,46.2805164 142.678404,45.3931925 C142.408526,45.9203676 141.90047,46.2845767 141.314554,46.370892 C140.583333,46.370892 140.197183,45.7793427 140.197183,44.9248826 C140.197183,43.6842723 140.796948,41.5070423 142.481221,41.5070423 C142.904762,41.5298988 143.30899,41.6915902 143.631455,41.9671362 C143.721831,41.8028169 143.919014,41.5316901 144.058685,41.5316901 C144.087724,41.5202457 144.120023,41.5202457 144.149061,41.5316901 L144.428404,41.786385 C144.435922,41.8076493 144.435922,41.8308484 144.428404,41.8521127 C144.428404,41.9178404 144.321596,41.991784 144.247653,42.0985915 C144.033957,42.3872679 143.900704,42.7274875 143.861502,43.084507 L143.573944,44.5387324 Z M143.286385,42.5258216 C143.029774,42.2933999 142.695986,42.1645693 142.349765,42.1643192 C142.11022,42.1356963 141.871584,42.2244202 141.70892,42.4025822 C141.207665,43.1300439 140.922796,43.9846481 140.887324,44.8673709 C140.887324,45.3521127 141.035211,45.6889671 141.388498,45.6889671 C142.210094,45.6889671 142.801643,44.6455399 142.965962,43.9061033 L143.286385,42.5258216 Z" id="Shape" fill="#1E196A" fill-rule="nonzero"></path>
            <path d="M147.805164,42.2875587 C147.784552,42.3422056 147.732113,42.378257 147.673709,42.3779343 C147.398071,42.2481898 147.099042,42.1755284 146.794601,42.1643192 C146.293427,42.1643192 145.973005,42.443662 145.973005,42.8626761 C145.973005,43.2816901 146.65493,43.5938967 147.073944,43.9882629 C147.356641,44.2123297 147.51785,44.556039 147.50939,44.9166667 C147.516288,45.3663902 147.330884,45.7976721 146.999786,46.1020942 C146.668687,46.4065163 146.223385,46.5551254 145.775822,46.5105634 C145.003521,46.5105634 144.35446,46.1819249 144.35446,46.0504695 C144.347698,46.0124265 144.347698,45.973489 144.35446,45.935446 L144.510563,45.5985915 C144.510563,45.5328638 144.568075,45.5 144.617371,45.5 C144.999251,45.7091379 145.423214,45.829869 145.857981,45.8532864 C146.311736,45.8532864 146.679577,45.4854452 146.679577,45.0316901 C146.679577,44.0786385 145.143192,44.1443662 145.143192,42.9284038 C145.152373,42.5125873 145.335272,42.1196182 145.647507,41.8448513 C145.959742,41.5700845 146.372776,41.4386332 146.786385,41.4823944 C147.369718,41.4823944 147.911972,41.7124413 147.911972,41.8767606 C147.918279,41.903784 147.918279,41.9318967 147.911972,41.9589202 L147.805164,42.2875587 Z" id="Path" fill="#1E196A"></path>
            <path d="M151.173709,45.9518779 C151.173709,45.9518779 151.173709,46.0340376 151.173709,46.0586854 C151.173709,46.2558685 150.426056,46.5023474 149.785211,46.5023474 C149.144366,46.5023474 148.906103,46.165493 148.906103,45.5164319 C148.921735,45.320017 148.951943,45.1250355 148.996479,44.9330986 L149.579812,42.2053991 L148.856808,42.2053991 C148.807512,42.2053991 148.774648,42.2053991 148.774648,42.1478873 C148.769693,42.0959708 148.769693,42.0437005 148.774648,41.991784 L148.823944,41.7535211 C148.823944,41.6631455 148.823944,41.6384977 148.955399,41.6384977 L149.678404,41.6384977 L149.965962,40.2746479 C149.965962,40.2089202 149.965962,40.1842723 150.064554,40.1678404 L150.590376,40.0199531 L150.656103,40.0199531 C150.672088,40.0169662 150.688517,40.0220544 150.700015,40.0335527 C150.711514,40.0450511 150.716602,40.0614803 150.713615,40.0774648 C150.71724,40.112975 150.71724,40.1487621 150.713615,40.1842723 L150.352113,41.6384977 L151.691315,41.6384977 C151.74061,41.6384977 151.773474,41.6384977 151.773474,41.6960094 C151.778887,41.7314062 151.778887,41.7674201 151.773474,41.8028169 L151.617371,42.1314554 C151.617371,42.1971831 151.568075,42.213615 151.485915,42.213615 L150.269953,42.213615 L149.68662,44.9413146 C149.657156,45.1040686 149.640672,45.2689067 149.637324,45.4342723 C149.637324,45.7957746 149.776995,45.8943662 150.097418,45.8943662 C150.573944,45.8943662 150.877934,45.6068075 151.017606,45.6068075 C151.157277,45.6068075 151.075117,45.6068075 151.083333,45.6725352 L151.173709,45.9518779 Z" id="Path" fill="#1E196A"></path>
            <path d="M155.569249,45.0809859 C155.532909,45.2402798 155.510912,45.4025087 155.503521,45.5657277 C155.518897,45.7708394 155.563152,45.9727534 155.634977,46.165493 C155.634977,46.165493 155.585681,46.2312207 155.544601,46.2476526 L155.191315,46.3955399 C155.147041,46.4178398 155.100106,46.4344052 155.051643,46.4448357 C154.961268,46.4448357 154.846244,46.1983568 154.846244,45.9847418 C154.838808,45.8588734 154.838808,45.7326759 154.846244,45.6068075 C154.458204,46.1805225 153.81347,46.5274512 153.120892,46.5352113 C152.854034,46.5337214 152.599804,46.4213646 152.419056,46.2250343 C152.238307,46.028704 152.147308,45.7660715 152.16784,45.5 C152.17514,45.3053971 152.205477,45.112345 152.258216,44.9248826 L152.915493,41.8192488 C152.915493,41.7617371 152.915493,41.6795775 153.014085,41.6631455 L153.507042,41.5481221 C153.537129,41.5459675 153.567331,41.5459675 153.597418,41.5481221 C153.679577,41.5481221 153.679577,41.5481221 153.663146,41.6302817 L153.0223,44.7441315 C152.967827,44.9402294 152.932065,45.1410493 152.915493,45.3438967 C152.915493,45.6889671 153.079812,45.8943662 153.416667,45.8943662 C153.862773,45.8554995 154.275801,45.643085 154.566901,45.3028169 C154.852606,44.8950328 155.035794,44.4243819 155.100939,43.9307512 L155.552817,41.8438967 C155.552817,41.786385 155.552817,41.7042254 155.651408,41.6877934 L156.144366,41.57277 C156.174453,41.5706154 156.204655,41.5706154 156.234742,41.57277 C156.316901,41.57277 156.300469,41.57277 156.300469,41.6549296 L155.569249,45.0809859 Z" id="Path" fill="#1E196A"></path>
            <path d="M157.746479,46.2723005 C157.746479,46.3380282 157.746479,46.370892 157.631455,46.370892 L157.122066,46.370892 C157.07277,46.370892 157.039906,46.370892 157.039906,46.3133803 C157.03548,46.2916946 157.03548,46.2693382 157.039906,46.2476526 L158.469484,39.5352113 C158.469484,39.4776995 158.469484,39.3955399 158.568075,39.379108 L159.061033,39.2640845 C159.091119,39.2619015 159.121323,39.2619015 159.151408,39.2640845 C159.217136,39.2640845 159.233568,39.2640845 159.217136,39.3462441 L158.296948,43.6267606 L160.679577,41.5070423 C160.679577,41.5070423 160.728873,41.5070423 160.761737,41.5070423 C160.794601,41.5070423 160.819249,41.5070423 160.843897,41.5070423 L161.180751,41.786385 C161.180751,41.786385 161.180751,41.786385 161.180751,41.8438967 C161.191024,41.8646018 161.191024,41.8889193 161.180751,41.9096244 L159.003521,43.7335681 L160.482394,46.0997653 C160.482394,46.0997653 160.482394,46.0997653 160.482394,46.157277 C160.482394,46.2147887 160.482394,46.2230047 160.416667,46.2394366 L159.981221,46.5023474 C159.954325,46.5096837 159.925956,46.5096837 159.899061,46.5023474 C159.870517,46.4973995 159.846076,46.4790682 159.833333,46.4530516 L158.190141,43.7335681 L157.746479,46.2723005 Z" id="Path" fill="#1E196A"></path>
            <path d="M162.092723,46.2723005 C162.092723,46.3380282 162.092723,46.370892 161.9777,46.370892 L161.46831,46.370892 C161.419014,46.370892 161.38615,46.370892 161.38615,46.3133803 C161.381724,46.2916946 161.381724,46.2693382 161.38615,46.2476526 L162.815728,39.5352113 C162.815728,39.4776995 162.815728,39.3955399 162.914319,39.379108 L163.407277,39.2640845 C163.437363,39.2619015 163.467567,39.2619015 163.497653,39.2640845 C163.56338,39.2640845 163.579812,39.2640845 163.56338,39.3462441 L162.676056,43.5856808 L165.058685,41.4659624 C165.058685,41.4659624 165.107981,41.4659624 165.140845,41.4659624 C165.173709,41.4659624 165.198357,41.4659624 165.223005,41.4659624 L165.559859,41.7453052 C165.559859,41.7453052 165.559859,41.7453052 165.559859,41.8028169 C165.570132,41.823522 165.570132,41.8478395 165.559859,41.8685446 L163.382629,43.6924883 L164.861502,46.0586854 C164.861502,46.0586854 164.861502,46.0586854 164.861502,46.1161972 C164.861502,46.1737089 164.861502,46.1819249 164.795775,46.1983568 L164.360329,46.4612676 C164.333433,46.4686039 164.305064,46.4686039 164.278169,46.4612676 C164.249625,46.4563197 164.225184,46.4379884 164.212441,46.4119718 L162.569249,43.6924883 L162.092723,46.2723005 Z" id="Path" fill="#1E196A"></path>
            <path d="M169.043427,45.7546948 C169.043427,45.7546948 169.043427,45.7546948 169.043427,45.8039906 C168.548586,46.2638115 167.894883,46.5141033 167.219484,46.5023474 C166.102113,46.5023474 165.625587,45.7957746 165.625587,44.6948357 C165.625587,43.0516432 166.652582,41.4906103 168.090376,41.4906103 C168.440876,41.43792 168.796431,41.5462778 169.057971,41.7854916 C169.319511,42.0247054 169.459082,42.3692061 169.437793,42.7230047 C169.437793,44.4401408 167.268779,44.4401408 166.397887,44.4483568 C166.397887,44.5387324 166.397887,44.6126761 166.397887,44.6948357 C166.397887,45.3931925 166.67723,45.7793427 167.318075,45.7793427 C167.823525,45.7510912 168.311876,45.5864147 168.731221,45.3028169 C168.768979,45.3059334 168.802781,45.3274439 168.821596,45.3603286 L169.043427,45.7546948 Z M168.747653,42.7887324 C168.764857,42.5956622 168.692601,42.4053605 168.551591,42.2723628 C168.410581,42.1393652 168.216383,42.0783518 168.024648,42.1068075 C166.899061,42.1068075 166.586854,43.3884977 166.480047,43.8732394 C167.0223,43.8732394 168.747653,43.8732394 168.747653,42.7887324 Z" id="Shape" fill="#1E196A" fill-rule="nonzero"></path>
            <path d="M170.892019,42.9284038 C170.92906,42.7442687 170.951042,42.5574225 170.957746,42.3697183 C170.94979,42.1703212 170.922271,41.9721873 170.875587,41.778169 C170.875587,41.778169 170.924883,41.7124413 170.965962,41.6960094 L171.319249,41.5481221 C171.363487,41.5257386 171.410433,41.5091693 171.45892,41.4988263 C171.54108,41.4988263 171.647887,41.7946009 171.647887,42.0985915 C171.647887,42.4025822 171.647887,42.4518779 171.647887,42.5422535 C172.011252,41.9345547 172.650228,41.5444107 173.356808,41.4988263 C173.866197,41.4988263 174.252347,41.7617371 174.252347,42.3204225 C174.244423,42.5533479 174.211368,42.7847363 174.153756,43.0105634 L173.455399,46.2969484 C173.455399,46.3626761 173.455399,46.3955399 173.340376,46.3955399 L172.830986,46.3955399 C172.78169,46.3955399 172.748826,46.3955399 172.748826,46.3380282 C172.744615,46.3163213 172.744615,46.2940073 172.748826,46.2723005 L173.438967,42.9859155 C173.472616,42.8569819 173.491903,42.7247227 173.496479,42.5915493 C173.510831,42.4714205 173.468052,42.3515091 173.380905,42.2675902 C173.293759,42.1836713 173.172319,42.1454462 173.052817,42.1643192 C171.984742,42.1643192 171.409624,43.4788732 171.269953,44.1279343 L170.892019,46.2723005 C170.892019,46.3380282 170.892019,46.370892 170.776995,46.370892 L170.267606,46.370892 C170.21831,46.370892 170.185446,46.370892 170.185446,46.3133803 C170.181234,46.2916735 170.181234,46.2693594 170.185446,46.2476526 L170.892019,42.9284038 Z" id="Path" fill="#1E196A"></path>
        </g>
    </g>
</svg>