<?xml version="1.0" encoding="utf-8"?>
<!-- Generator: Adobe Illustrator 23.0.3, SVG Export Plug-In . SVG Version: 6.00 Build 0)  -->
<svg version="1.1" id="Layer_1" xmlns="http://www.w3.org/2000/svg" xmlns:xlink="http://www.w3.org/1999/xlink" x="0px" y="0px"
	 viewBox="0 0 293 140" style="enable-background:new 0 0 293 140;" xml:space="preserve">
<style type="text/css">
	.st0{fill:#EC473F;}
	.st1{fill:#ED4A43;}
	.st2{fill:#ED4B43;}
	.st3{fill:#ED4A42;}
</style>
<title>4ps</title>
<desc>Created with Sketch.</desc>
<g>
	<path class="st0" d="M134.11,69.66c0-3.93-0.01-7.87,0-11.8c0.01-3.54,0.48-4.02,3.88-4.03c5.67-0.01,11.34,0.12,17.01-0.04
		c7.44-0.21,13.77,6.88,10.14,14.19c-0.49,0.98-0.14,1.53,0.43,2.16c4.72,5.22,2.02,15.08-7.32,15.79
		c-7.09,0.54-14.26,0.18-21.39,0.17c-2.1,0-2.79-1.33-2.77-3.27C134.15,78.44,134.11,74.05,134.11,69.66z M149.55,79.54
		c2.01,0,4.01,0.01,6.02,0c2.96-0.01,4.6-1.21,4.63-3.4c0.04-2.24-1.59-3.61-4.52-3.63c-3.28-0.03-6.57,0.1-9.85,0.11
		c-4.8,0.03-4.73,0.01-4.72,4.8c0,1.65,0.41,2.28,2.13,2.16C145.34,79.43,147.46,79.54,149.55,79.54z M149.06,60.32
		c-1.01,0-2.01,0-3.02,0c-5.36,0-5.58,0.26-4.89,5.64c0.08,0.65,0.04,1.38,0.94,1.37c4.65-0.07,9.33,0.47,13.94-0.3
		c1.89-0.32,2.66-1.93,2.4-3.75c-0.26-1.82-1.4-2.94-3.35-2.96C153.09,60.31,151.07,60.32,149.06,60.32z"/>
	<path class="st1" d="M81.9,69.93c0,4.3,0.03,8.59-0.01,12.89c-0.03,2.73-0.7,3.22-4.12,3.23c-3.67,0-4.26-0.45-4.36-3.3
		c-0.19-6.17-0.19-6.17-6.38-6.17c-2.56,0-5.12-0.02-7.68,0.01c-3.4,0.04-3.9,0.56-3.94,4.06c-0.01,0.46,0,0.91,0,1.37
		c-0.02,3.66-0.4,4.03-4.14,4.04c-3.98,0-4.33-0.37-4.36-4.4c-0.03-3.78-0.21-7.61,3.53-10.05c0.59-0.39,0.59-0.8,0.3-1.37
		c-0.86-1.71-0.56-3.57-0.73-5.38c-0.58-6.07,4.62-11.02,10.68-11.02c5.94,0,11.88,0.03,17.83-0.02c2.43-0.02,3.46,1.05,3.4,3.51
		C81.83,61.52,81.9,65.73,81.9,69.93z M66.38,60.24c-1.72,0-3.46,0.04-5.18-0.01c-1.99-0.06-2.81,0.94-2.82,2.81c0,1,0.01,2,0,3
		c-0.04,2.03,0.99,3.03,2.99,3.05c3.46,0.02,6.91-0.04,10.37,0.03c1.23,0.02,1.72-0.3,1.81-1.65c0.5-7.23,0.54-7.23-6.62-7.23
		C66.75,60.24,66.57,60.24,66.38,60.24z"/>
	<path class="st2" d="M195.38,84.45c-2.65,0-5.3,0.09-7.95-0.02c-5.31-0.22-9.08-3.93-9.3-9.24c-0.14-3.47-0.13-6.94,0-10.41
		c0.2-5.36,4.07-9.15,9.57-9.29c5.3-0.14,10.59-0.01,15.89-0.04c2.3-0.02,2.94,1.19,2.94,3.31c0.02,2.17-0.51,3.56-2.99,3.55
		c-4.75-0.03-9.5-0.02-14.24,0.01c-0.8,0.01-1.72-0.01-2.4,0.34c-1.11,0.56-1.26,1.75-1.14,2.87c0.15,1.49,1.39,0.88,2.15,0.88
		c5.02,0.05,10.04,0.09,15.07,0.01c2.54-0.04,3.59,0.93,3.59,3.56c-0.01,2.7-1.18,3.52-3.67,3.47c-4.84-0.1-9.68-0.08-14.52,0.02
		c-0.93,0.02-2.61-0.92-2.63,1.21c-0.02,1.8,0.77,3.02,2.71,3.08c1.92,0.06,3.84,0.03,5.76,0.03c3.2,0,6.39,0.06,9.59-0.02
		c2.28-0.05,2.75,1.21,2.72,3.14c-0.02,1.88-0.13,3.56-2.63,3.56c-2.83,0-5.66,0-8.5,0C195.38,84.47,195.38,84.46,195.38,84.45z"/>
	<path class="st2" d="M104.78,84.48c-2.74,0-5.48-0.02-8.22,0c-2.52,0.02-2.62-1.65-2.63-3.55c-0.02-1.9,0.35-3.2,2.68-3.17
		c4.85,0.07,9.68,0.02,14.53,0.03c1.02,0,2.04,0.01,2.79-0.81c0.76-0.82,0.78-1.87,0.54-2.84c-0.28-1.15-1.35-0.69-2.08-0.69
		c-4.85-0.04-9.68-0.02-14.53-0.03c-3.4-0.01-3.89-0.45-3.91-3.39c-0.02-3.12,0.33-3.45,3.76-3.46c4.85-0.01,9.68,0.02,14.53-0.02
		c1.01-0.01,2.38,0.4,2.32-1.41c-0.05-1.49-0.42-2.79-2.25-2.82c-2.74-0.04-5.48-0.02-8.22-0.03c-2.47-0.01-4.93,0-7.4-0.02
		c-2.58-0.03-2.76-1.73-2.76-3.76c0-2.03,0.71-3.09,2.86-3.08c5.48,0.04,10.97-0.11,16.45,0.05c5.14,0.16,8.84,4.12,8.91,9.23
		c0.04,3.47,0.04,6.94,0,10.42c-0.06,5.17-3.68,9.01-8.85,9.28c-2.83,0.14-5.67,0.03-8.5,0.03
		C104.78,84.46,104.78,84.47,104.78,84.48z"/>
	<path class="st3" d="M232.05,86.04c-3.38,0-6.76-0.01-10.14,0c-1.41,0.01-3.03,0.07-3.36-1.61c-0.35-1.8-1.06-4.04,0.8-5.33
		c1.31-0.91,1.42-1.86,1.41-3.16c-0.03-4.3-0.03-8.59,0-12.88c0.01-1.11-0.05-1.9-1.29-2.63c-1.93-1.13-1.23-3.28-0.95-5
		c0.27-1.57,1.74-1.58,3.07-1.62c7.41-0.19,7.41-0.19,7.41,7.14c0,5.12,0.06,10.24-0.04,15.35c-0.04,1.64,0.38,2.24,2.12,2.18
		c3.55-0.13,7.13-0.04,10.69-0.04c3.82,0.01,4.32,0.47,4.32,3.89c-0.01,3.25-0.51,3.71-4.17,3.72
		C238.62,86.05,235.33,86.04,232.05,86.04z"/>
</g>
</svg>
