<?xml version="1.0" encoding="utf-8"?>
<!-- Generator: Adobe Illustrator 23.0.3, SVG Export Plug-In . SVG Version: 6.00 Build 0)  -->
<svg version="1.1" id="Layer_1" xmlns="http://www.w3.org/2000/svg" xmlns:xlink="http://www.w3.org/1999/xlink" x="0px" y="0px"
	 viewBox="0 0 293 140" style="enable-background:new 0 0 293 140;" xml:space="preserve">
<style type="text/css">
	.st0{fill-rule:evenodd;clip-rule:evenodd;fill:#131614;}
	.st1{fill-rule:evenodd;clip-rule:evenodd;fill:#FFFFFE;}
	.st2{fill-rule:evenodd;clip-rule:evenodd;fill:#D6232C;}
	.st3{filter:url(#Adobe_OpacityMaskFilter);}
	.st4{fill-rule:evenodd;clip-rule:evenodd;fill:#FFFFFF;}
	.st5{mask:url(#b_2_);fill-rule:evenodd;clip-rule:evenodd;fill:#D6232C;}
	.st6{fill-rule:evenodd;clip-rule:evenodd;fill:#F2AC54;}
	.st7{filter:url(#Adobe_OpacityMaskFilter_1_);}
	.st8{mask:url(#d_2_);fill-rule:evenodd;clip-rule:evenodd;fill:#D93433;}
	.st9{fill-rule:evenodd;clip-rule:evenodd;fill:#D93433;}
	.st10{filter:url(#Adobe_OpacityMaskFilter_2_);}
	.st11{mask:url(#f_2_);fill-rule:evenodd;clip-rule:evenodd;fill:#D93433;}
</style>
<title>4ps</title>
<desc>Created with Sketch.</desc>
<g>
	<path class="st0" d="M60.59,68.88c-0.02,0.27,0.06,0.7,0.22,1.32c0.11,0.41,0.61,0.76,1.5,1.07c0.89,0.3,1.99,0.52,3.32,0.64
		c1.32,0.13,2.8,0.13,4.42,0.02c1.63-0.11,3.25-0.38,4.82-0.81c3.05-0.83,5.19-1.79,6.43-2.89c1.23-1.09,1.66-2.31,1.3-3.65
		c-0.2-0.73-0.96-1.08-2.28-1.05c-1.33,0.03-2.95,0.21-4.87,0.53c-1.92,0.32-3.99,0.66-6.21,1.02c-2.22,0.36-4.34,0.5-6.37,0.42
		c-2.03-0.09-3.82-0.52-5.36-1.31c-1.54-0.79-2.58-2.15-3.11-4.1c-0.41-1.55-0.44-3.05-0.07-4.5c0.37-1.45,1.08-2.8,2.12-4.04
		c1.04-1.24,2.41-2.36,4.1-3.37c1.69-1,3.66-1.81,5.9-2.41c2.07-0.56,4.04-0.95,5.9-1.17c1.86-0.22,3.53-0.35,5-0.4
		c1.24-0.05,2.48-0.06,3.72-0.06c1.01,0.01,1.71-0.04,2.12-0.14c0.41-0.11,0.71-0.29,0.9-0.54c0.2-0.25,0.36-0.52,0.5-0.83
		l0.73,0.07l-1.92,9.61l-0.83-0.17l-0.18-0.67c-0.1-0.37-0.6-0.63-1.49-0.81c-0.9-0.17-2-0.24-3.3-0.23
		c-1.44,0.04-2.87,0.15-4.29,0.35c-1.56,0.2-3.06,0.5-4.48,0.88c-2.65,0.71-4.41,1.52-5.31,2.41c-0.89,0.9-1.25,1.69-1.06,2.38
		c0.19,0.69,0.69,1.11,1.52,1.26c0.83,0.15,1.85,0.15,3.07-0.01c1.39-0.18,2.76-0.41,4.13-0.69c1.58-0.31,3.17-0.58,4.76-0.79
		c1.64-0.22,3.26-0.36,4.87-0.4c1.61-0.04,3.09,0.14,4.47,0.53c1.35,0.38,2.59,1.08,3.63,2.03c1.04,0.96,1.8,2.32,2.28,4.07
		c0.36,1.34,0.44,2.74,0.25,4.19c-0.2,1.45-0.82,2.87-1.86,4.27c-1.04,1.39-2.59,2.7-4.64,3.9c-2.05,1.21-4.73,2.26-8.02,3.15
		c-2.56,0.69-4.8,1.17-6.72,1.42c-1.92,0.26-3.57,0.39-4.97,0.39c-1.4,0-2.51-0.03-3.34-0.12c-0.83-0.08-1.43-0.07-1.79,0.03
		c-0.24,0.06-0.44,0.21-0.58,0.42c-0.14,0.21-0.28,0.45-0.43,0.7l-0.78,0.02l1.58-12.08L60.59,68.88z"/>
	<path class="st0" d="M60.23,69.87l-1.36,10.35c0.08-0.14,0.17-0.27,0.25-0.39c0.21-0.31,0.5-0.52,0.85-0.62
		c0.42-0.11,1.06-0.12,1.96-0.04c0.8,0.08,1.89,0.11,3.29,0.11c1.36-0.01,3.01-0.13,4.9-0.39c1.89-0.25,4.13-0.73,6.66-1.41
		c3.24-0.87,5.9-1.91,7.9-3.1c1.98-1.17,3.5-2.44,4.5-3.78c0.99-1.32,1.58-2.68,1.77-4.04c0.19-1.38,0.11-2.72-0.23-4
		c-0.44-1.65-1.16-2.94-2.14-3.84c-0.98-0.9-2.15-1.56-3.43-1.92c-1.32-0.38-2.77-0.55-4.32-0.51c-1.61,0.04-3.22,0.17-4.81,0.39
		c-1.58,0.22-3.16,0.48-4.73,0.79c-1.38,0.28-2.77,0.51-4.17,0.7c-1.27,0.16-2.35,0.16-3.22,0.01c-1.27-0.23-1.73-1-1.9-1.61
		c-0.24-0.86,0.16-1.82,1.18-2.85c0.97-0.97,2.78-1.8,5.52-2.54c1.49-0.4,3.01-0.7,4.54-0.89c1.44-0.19,2.89-0.31,4.35-0.35
		c1.32-0.02,2.46,0.06,3.4,0.23c0.71,0.14,1.67,0.4,1.87,1.16l0.17,0.4l1.65-8.28c-0.07,0.1-0.14,0.2-0.21,0.29
		c-0.25,0.33-0.64,0.57-1.15,0.71c-0.46,0.12-1.22,0.18-2.26,0.16c-1.23-0.01-2.46,0.01-3.69,0.06c-1.46,0.04-3.13,0.18-4.96,0.39
		c-1.85,0.22-3.81,0.61-5.84,1.15c-2.17,0.58-4.12,1.38-5.78,2.36c-1.65,0.98-2.98,2.07-3.98,3.26c-0.99,1.18-1.67,2.47-2.02,3.85
		c-0.35,1.36-0.33,2.8,0.06,4.26c0.5,1.83,1.43,3.07,2.86,3.8c1.47,0.75,3.21,1.17,5.16,1.25c2,0.08,4.12-0.06,6.27-0.41
		c2.22-0.35,4.29-0.7,6.21-1.02c1.92-0.32,3.58-0.5,4.94-0.53c1.56-0.05,2.49,0.44,2.75,1.41c0.41,1.53-0.08,2.92-1.45,4.14
		c-1.29,1.16-3.46,2.14-6.62,2.99c-1.61,0.43-3.26,0.71-4.92,0.83c-1.67,0.11-3.18,0.11-4.5-0.02c-1.34-0.12-2.5-0.35-3.43-0.66
		c-1.06-0.37-1.66-0.83-1.81-1.4C60.3,70.17,60.27,70.02,60.23,69.87L60.23,69.87z M57.76,81.31l1.72-13.15l1.62,0.33l-0.03,0.42
		c-0.01,0.12,0.01,0.43,0.21,1.16c0.02,0.09,0.18,0.39,1.19,0.74c0.85,0.29,1.93,0.5,3.2,0.62c1.27,0.12,2.73,0.13,4.35,0.02
		c1.6-0.11,3.18-0.37,4.73-0.79c2.97-0.8,5.07-1.74,6.23-2.78c1.09-0.97,1.47-2.01,1.16-3.17c-0.13-0.49-0.75-0.73-1.8-0.7
		c-1.3,0.03-2.92,0.2-4.8,0.52c-2.07,0.35-4.14,0.69-6.21,1.02c-2.22,0.36-4.4,0.5-6.47,0.42c-2.09-0.09-3.96-0.55-5.56-1.36
		c-1.66-0.85-2.79-2.33-3.36-4.41c-0.43-1.62-0.46-3.22-0.07-4.75c0.39-1.52,1.13-2.94,2.21-4.23c1.06-1.27,2.49-2.44,4.23-3.47
		c1.73-1.02,3.76-1.85,6.02-2.46c2.07-0.56,4.08-0.96,5.97-1.18c1.67-0.2,3.35-0.34,5.04-0.4c1.25-0.05,2.49-0.06,3.74-0.06
		c1.17,0.01,1.73-0.06,1.99-0.13c0.3-0.08,0.52-0.21,0.64-0.37c0.18-0.23,0.32-0.47,0.44-0.73l0.14-0.31l1.61,0.15L83.8,52.88
		l-1.6-0.32l-0.26-0.96c-0.02-0.07-0.26-0.29-1.12-0.46c-0.87-0.16-1.96-0.23-3.2-0.22c-1.27,0.03-2.7,0.14-4.24,0.34
		c-1.49,0.19-2.96,0.48-4.41,0.87c-2.55,0.68-4.26,1.45-5.09,2.29c-0.76,0.76-1.07,1.4-0.93,1.91c0.09,0.32,0.3,0.76,1.14,0.91
		c0.77,0.14,1.76,0.13,2.93-0.01c1.37-0.18,2.74-0.41,4.1-0.69c1.59-0.31,3.19-0.58,4.79-0.8c1.63-0.22,3.28-0.36,4.92-0.4
		c1.64-0.04,3.2,0.14,4.61,0.55c1.42,0.4,2.73,1.14,3.82,2.14c1.11,1.02,1.92,2.47,2.41,4.3c0.38,1.4,0.46,2.88,0.26,4.38
		c-0.21,1.53-0.87,3.04-1.95,4.49c-1.08,1.44-2.69,2.8-4.78,4.03c-2.08,1.23-4.82,2.3-8.14,3.2c-2.57,0.69-4.85,1.18-6.78,1.43
		c-1.93,0.26-3.62,0.39-5.03,0.4c-1.44,0.02-2.55-0.04-3.39-0.12c-0.96-0.09-1.41-0.04-1.62,0.01c-0.12,0.03-0.23,0.11-0.3,0.22
		c-0.13,0.2-0.27,0.43-0.41,0.67l-0.14,0.24L57.76,81.31L57.76,81.31z"/>
	<path class="st1" d="M59.77,67.93c-0.02,0.27,0.06,0.7,0.22,1.31c0.11,0.41,0.61,0.76,1.5,1.07c0.89,0.3,1.99,0.52,3.32,0.64
		c1.32,0.13,2.8,0.13,4.42,0.02c1.63-0.11,3.25-0.38,4.82-0.81c3.05-0.83,5.19-1.79,6.43-2.89c1.23-1.09,1.66-2.31,1.3-3.65
		c-0.2-0.73-0.96-1.08-2.28-1.05c-1.33,0.03-2.95,0.21-4.87,0.53c-1.92,0.32-3.99,0.66-6.21,1.02c-2.22,0.36-4.34,0.5-6.37,0.42
		c-2.03-0.09-3.82-0.52-5.36-1.31c-1.54-0.79-2.58-2.15-3.11-4.1c-0.41-1.55-0.44-3.05-0.06-4.5c0.37-1.45,1.08-2.8,2.12-4.04
		c1.04-1.24,2.41-2.36,4.1-3.37c1.69-1,3.66-1.81,5.9-2.41c2.08-0.56,4.04-0.95,5.9-1.17c1.86-0.22,3.53-0.35,5-0.4
		c1.24-0.05,2.48-0.06,3.72-0.06c1.01,0.01,1.71-0.04,2.12-0.14c0.41-0.11,0.71-0.29,0.9-0.54c0.2-0.25,0.36-0.52,0.5-0.83
		l0.73,0.07l-1.92,9.61l-0.83-0.17l-0.18-0.67c-0.1-0.37-0.6-0.63-1.49-0.81c-0.9-0.17-2-0.24-3.3-0.22
		c-1.44,0.04-2.87,0.15-4.29,0.35c-1.56,0.2-3.06,0.5-4.48,0.88c-2.65,0.71-4.41,1.52-5.31,2.41c-0.89,0.9-1.25,1.69-1.06,2.38
		c0.19,0.69,0.69,1.11,1.52,1.26c0.83,0.15,1.85,0.15,3.07-0.01c1.39-0.18,2.76-0.42,4.13-0.69c1.53-0.3,3.12-0.56,4.76-0.79
		c1.61-0.22,3.24-0.35,4.87-0.4c1.6-0.04,3.09,0.14,4.47,0.53c1.35,0.38,2.59,1.08,3.63,2.03c1.04,0.96,1.8,2.32,2.28,4.07
		c0.36,1.37,0.45,2.79,0.25,4.19c-0.2,1.45-0.82,2.87-1.86,4.27c-1.04,1.39-2.59,2.7-4.64,3.9c-2.05,1.21-4.73,2.26-8.02,3.15
		c-2.56,0.69-4.8,1.17-6.72,1.42c-1.92,0.26-3.57,0.39-4.97,0.39c-1.4,0-2.51-0.03-3.34-0.12c-0.83-0.08-1.43-0.07-1.79,0.02
		c-0.24,0.06-0.44,0.21-0.58,0.42c-0.14,0.21-0.28,0.45-0.43,0.7l-0.78,0.02l1.58-12.08C59.07,67.79,59.77,67.93,59.77,67.93z"/>
	<path class="st1" d="M59.41,68.92l-1.36,10.35c0.08-0.14,0.17-0.27,0.25-0.39c0.2-0.31,0.5-0.52,0.85-0.62
		c0.43-0.11,1.05-0.13,1.96-0.04c0.8,0.08,1.89,0.11,3.29,0.11c1.36-0.01,3.01-0.14,4.9-0.39c1.89-0.25,4.13-0.73,6.66-1.41
		c3.23-0.87,5.89-1.91,7.9-3.1c1.98-1.17,3.5-2.44,4.5-3.78c0.99-1.32,1.58-2.68,1.77-4.04c0.19-1.38,0.11-2.72-0.23-4
		c-0.45-1.65-1.17-2.94-2.14-3.84c-0.98-0.9-2.15-1.56-3.43-1.92c-1.32-0.38-2.77-0.55-4.32-0.51c-1.61,0.04-3.22,0.17-4.82,0.39
		c-1.58,0.22-3.16,0.48-4.73,0.79c-1.38,0.28-2.77,0.51-4.17,0.7c-1.27,0.16-2.35,0.16-3.22,0.01c-1.27-0.23-1.73-1-1.9-1.61
		c-0.24-0.86,0.16-1.82,1.18-2.85c0.97-0.97,2.78-1.8,5.52-2.54c1.49-0.4,3.01-0.7,4.54-0.89c1.44-0.19,2.89-0.31,4.35-0.35
		c1.32-0.02,2.46,0.06,3.4,0.23c0.71,0.14,1.67,0.41,1.87,1.16l0.17,0.4l1.65-8.28c-0.07,0.1-0.14,0.2-0.21,0.29
		c-0.25,0.33-0.64,0.56-1.15,0.71c-0.46,0.12-1.21,0.18-2.26,0.16c-1.23-0.01-2.46,0.01-3.69,0.06c-1.46,0.05-3.13,0.18-4.96,0.39
		c-1.85,0.22-3.81,0.61-5.83,1.16c-2.17,0.58-4.12,1.38-5.78,2.36c-1.65,0.98-2.98,2.07-3.98,3.26c-0.99,1.18-1.67,2.47-2.02,3.85
		c-0.35,1.36-0.33,2.8,0.06,4.26c0.5,1.83,1.43,3.07,2.86,3.8c1.47,0.75,3.21,1.17,5.16,1.25c2,0.08,4.12-0.06,6.27-0.41
		c2.22-0.35,4.29-0.69,6.21-1.02c1.93-0.32,3.59-0.5,4.94-0.53c1.56-0.05,2.49,0.44,2.75,1.41c0.41,1.53-0.08,2.92-1.45,4.14
		c-1.3,1.16-3.46,2.13-6.62,2.99c-1.61,0.43-3.26,0.71-4.92,0.82c-1.67,0.11-3.18,0.11-4.5-0.02c-1.34-0.12-2.5-0.35-3.43-0.66
		c-1.06-0.37-1.66-0.82-1.81-1.4C59.48,69.22,59.44,69.07,59.41,68.92z M56.94,80.37l1.72-13.15l1.62,0.33l-0.03,0.42
		c-0.01,0.12,0.01,0.43,0.21,1.16c0.02,0.09,0.18,0.39,1.19,0.74c0.86,0.29,1.93,0.5,3.2,0.62c1.27,0.12,2.73,0.13,4.35,0.02
		c1.6-0.11,3.18-0.37,4.73-0.79c2.97-0.8,5.06-1.74,6.23-2.78c1.09-0.97,1.47-2.01,1.16-3.17c-0.13-0.49-0.75-0.73-1.8-0.7
		c-1.3,0.03-2.92,0.2-4.8,0.52c-1.92,0.32-3.99,0.66-6.21,1.02c-2.14,0.36-4.3,0.5-6.47,0.42c-2.09-0.09-3.96-0.55-5.56-1.36
		c-1.66-0.85-2.79-2.33-3.35-4.41c-0.43-1.62-0.46-3.22-0.07-4.75c0.39-1.52,1.13-2.94,2.21-4.23c1.07-1.27,2.49-2.44,4.23-3.47
		c1.74-1.02,3.76-1.85,6.02-2.46c2.07-0.56,4.08-0.96,5.97-1.18c1.67-0.21,3.35-0.34,5.04-0.4c1.25-0.05,2.49-0.06,3.74-0.06
		c1.17,0.01,1.73-0.06,1.99-0.13c0.3-0.08,0.52-0.21,0.64-0.37c0.17-0.22,0.32-0.46,0.44-0.73l0.14-0.31l1.61,0.15l-2.12,10.61
		l-1.6-0.32l-0.26-0.96c-0.02-0.07-0.26-0.29-1.12-0.46c-0.87-0.16-1.95-0.23-3.2-0.22c-1.27,0.03-2.7,0.14-4.24,0.34
		c-1.49,0.19-2.96,0.48-4.41,0.87c-2.55,0.68-4.26,1.45-5.09,2.29c-0.76,0.76-1.07,1.41-0.93,1.91c0.09,0.32,0.3,0.76,1.14,0.91
		c0.77,0.14,1.76,0.14,2.93-0.01c1.37-0.18,2.74-0.41,4.1-0.69c1.59-0.31,3.19-0.58,4.79-0.8c1.63-0.22,3.28-0.36,4.92-0.4
		c1.65-0.04,3.2,0.14,4.61,0.55c1.42,0.4,2.73,1.14,3.82,2.14c1.11,1.02,1.92,2.47,2.41,4.3c0.38,1.4,0.46,2.87,0.26,4.38
		c-0.21,1.53-0.87,3.04-1.95,4.49c-1.08,1.44-2.69,2.8-4.78,4.03c-2.08,1.23-4.82,2.3-8.14,3.2c-2.57,0.69-4.85,1.18-6.78,1.43
		c-1.93,0.26-3.62,0.39-5.03,0.4c-1.45,0.01-2.55-0.04-3.39-0.12c-0.96-0.09-1.42-0.05-1.62,0.01c-0.12,0.03-0.23,0.11-0.3,0.22
		c-0.13,0.2-0.27,0.43-0.41,0.68l-0.14,0.24L56.94,80.37L56.94,80.37z"/>
	<path class="st2" d="M59.03,66.97c-0.02,0.27,0.06,0.7,0.22,1.31c0.11,0.41,0.61,0.76,1.5,1.07c0.89,0.3,1.99,0.52,3.32,0.64
		c1.32,0.13,2.8,0.13,4.42,0.02c1.63-0.11,3.25-0.38,4.82-0.81c3.05-0.83,5.19-1.79,6.43-2.89c1.23-1.09,1.66-2.31,1.3-3.65
		c-0.2-0.73-0.96-1.08-2.28-1.05c-1.33,0.03-2.95,0.2-4.87,0.53c-1.92,0.32-3.99,0.66-6.21,1.02c-2.22,0.36-4.34,0.5-6.37,0.42
		c-2.03-0.09-3.82-0.52-5.36-1.31c-1.54-0.79-2.58-2.15-3.11-4.1c-0.41-1.55-0.44-3.05-0.07-4.5c0.37-1.45,1.08-2.8,2.12-4.04
		c1.04-1.24,2.41-2.36,4.1-3.37c1.69-1,3.66-1.81,5.9-2.41c2.08-0.56,4.04-0.95,5.9-1.17c1.86-0.22,3.53-0.35,5-0.4
		c1.24-0.05,2.48-0.06,3.72-0.06c1.01,0.01,1.71-0.04,2.12-0.14c0.41-0.11,0.71-0.29,0.9-0.54c0.2-0.25,0.36-0.52,0.5-0.83
		l0.73,0.07l-1.92,9.61l-0.83-0.17l-0.18-0.67c-0.1-0.37-0.6-0.63-1.49-0.81c-0.9-0.17-2-0.24-3.3-0.22
		c-1.44,0.04-2.87,0.15-4.29,0.35c-1.51,0.19-3.01,0.49-4.48,0.88c-2.65,0.71-4.41,1.52-5.31,2.41c-0.89,0.9-1.25,1.69-1.06,2.38
		c0.19,0.69,0.69,1.11,1.52,1.26c0.83,0.15,1.85,0.15,3.07-0.01c1.39-0.18,2.76-0.41,4.13-0.69c1.58-0.31,3.17-0.57,4.76-0.79
		c1.61-0.22,3.24-0.35,4.87-0.4c1.61-0.04,3.09,0.14,4.47,0.53c1.35,0.38,2.59,1.08,3.63,2.03c1.04,0.96,1.8,2.32,2.27,4.07
		c0.36,1.34,0.44,2.74,0.25,4.19c-0.2,1.45-0.82,2.87-1.86,4.27c-1.04,1.39-2.59,2.7-4.64,3.9c-2.05,1.21-4.73,2.26-8.02,3.15
		c-2.56,0.69-4.8,1.16-6.72,1.42c-1.91,0.26-3.57,0.39-4.97,0.39c-1.4,0-2.51-0.03-3.34-0.12c-0.83-0.08-1.43-0.07-1.79,0.02
		c-0.24,0.06-0.44,0.21-0.57,0.42c-0.14,0.21-0.28,0.45-0.43,0.7l-0.78,0.02l1.58-12.08L59.03,66.97L59.03,66.97z"/>
	<g transform="translate(1.007 2.659)">
		<defs>
			<filter id="Adobe_OpacityMaskFilter" filterUnits="userSpaceOnUse" x="51.41" y="38.06" width="37.67" height="38.19">
				<feColorMatrix  type="matrix" values="1 0 0 0 0  0 1 0 0 0  0 0 1 0 0  0 0 0 1 0"/>
			</filter>
		</defs>
		<mask maskUnits="userSpaceOnUse" x="51.41" y="38.06" width="37.67" height="38.19" id="b_2_">
			<g class="st3">
				<path id="a_2_" class="st4" d="M81.54,38.89c-0.19,0.25-0.5,0.42-0.9,0.54c-0.41,0.11-1.11,0.16-2.12,0.14
					c-1.24-0.01-2.48,0.01-3.72,0.06c-1.47,0.05-3.14,0.18-5,0.4c-1.86,0.22-3.83,0.6-5.9,1.17c-2.24,0.6-4.2,1.41-5.9,2.41
					c-1.69,1-3.06,2.13-4.1,3.37c-1.04,1.24-1.74,2.59-2.12,4.04c-0.37,1.45-0.35,2.95,0.07,4.5c0.53,1.95,1.56,3.32,3.11,4.1
					c1.54,0.78,3.33,1.22,5.36,1.31c2.03,0.08,4.16-0.05,6.37-0.42c2.22-0.36,4.29-0.69,6.21-1.02c1.92-0.32,3.54-0.5,4.87-0.53
					c1.32-0.03,2.08,0.32,2.28,1.05c0.36,1.34-0.07,2.56-1.3,3.65c-1.23,1.1-3.38,2.06-6.43,2.88c-1.58,0.42-3.19,0.7-4.82,0.81
					c-1.63,0.11-3.1,0.11-4.42-0.02c-1.32-0.12-2.42-0.34-3.32-0.64c-0.89-0.31-1.39-0.66-1.5-1.07c-0.17-0.61-0.24-1.05-0.22-1.31
					l-0.69-0.14l-1.58,12.08l0.78-0.02c0.15-0.26,0.29-0.49,0.43-0.7c0.14-0.21,0.33-0.35,0.57-0.42c0.37-0.1,0.96-0.1,1.8-0.02
					c0.83,0.08,1.94,0.12,3.34,0.12c1.39,0,3.05-0.14,4.97-0.39c1.92-0.26,4.16-0.73,6.72-1.42c3.3-0.89,5.97-1.94,8.02-3.15
					c2.05-1.21,3.6-2.51,4.64-3.9c1.04-1.39,1.66-2.82,1.86-4.27c0.2-1.4,0.12-2.82-0.25-4.19c-0.47-1.75-1.23-3.1-2.27-4.07
					c-1.03-0.95-2.27-1.65-3.63-2.03c-1.37-0.39-2.86-0.57-4.47-0.53c-1.6,0.04-3.23,0.17-4.87,0.4c-1.59,0.22-3.18,0.48-4.76,0.79
					c-1.37,0.28-2.75,0.51-4.13,0.69c-1.22,0.16-2.25,0.16-3.07,0.01c-0.83-0.15-1.33-0.57-1.52-1.26s0.17-1.48,1.06-2.38
					c0.9-0.9,2.66-1.7,5.31-2.41c1.47-0.39,2.97-0.69,4.48-0.88c1.42-0.19,2.86-0.31,4.29-0.35c1.3-0.02,2.4,0.06,3.3,0.23
					c0.9,0.17,1.4,0.44,1.49,0.81l0.18,0.67l0.83,0.17l1.92-9.61l-0.73-0.07C81.9,38.36,81.74,38.63,81.54,38.89z"/>
			</g>
		</mask>
		<path class="st5" d="M51.41,76.25h37.67V38.06H51.41V76.25z"/>
	</g>
	<path class="st6" d="M59.03,66.97c-0.02,0.27,0.06,0.7,0.22,1.31c0.11,0.41,0.61,0.76,1.5,1.07c0.89,0.3,1.99,0.52,3.32,0.64
		c1.32,0.13,2.8,0.13,4.42,0.02c1.63-0.11,3.25-0.38,4.82-0.81c3.05-0.83,5.19-1.79,6.43-2.89c1.23-1.09,1.66-2.31,1.3-3.65
		c-0.2-0.73-0.96-1.08-2.28-1.05c-1.33,0.03-2.95,0.2-4.87,0.53c-1.92,0.32-3.99,0.66-6.21,1.02c-2.22,0.36-4.34,0.5-6.37,0.42
		c-2.03-0.09-3.82-0.52-5.36-1.31c-1.54-0.79-2.58-2.15-3.11-4.1c-0.41-1.55-0.44-3.05-0.07-4.5c0.37-1.45,1.08-2.8,2.12-4.04
		c1.04-1.24,2.41-2.36,4.1-3.37c1.69-1,3.66-1.81,5.9-2.41c2.08-0.56,4.04-0.95,5.9-1.17c1.86-0.22,3.53-0.35,5-0.4
		c1.24-0.05,2.48-0.06,3.72-0.06c1.01,0.01,1.71-0.04,2.12-0.14c0.41-0.11,0.71-0.29,0.9-0.54c0.2-0.25,0.36-0.52,0.5-0.83
		l0.73,0.07l-1.92,9.61l-0.83-0.17l-0.18-0.67c-0.1-0.37-0.6-0.63-1.49-0.81c-0.9-0.17-2-0.24-3.3-0.22
		c-1.44,0.04-2.87,0.15-4.29,0.35c-1.51,0.19-3.01,0.49-4.48,0.88c-2.65,0.71-4.41,1.52-5.31,2.41c-0.89,0.9-1.25,1.69-1.06,2.38
		c0.19,0.69,0.69,1.11,1.52,1.26c0.83,0.15,1.85,0.15,3.07-0.01c1.39-0.18,2.76-0.41,4.13-0.69c1.58-0.31,3.17-0.57,4.76-0.79
		c1.61-0.22,3.24-0.35,4.87-0.4c1.61-0.04,3.09,0.14,4.47,0.53c1.35,0.38,2.59,1.08,3.63,2.03c1.04,0.96,1.8,2.32,2.27,4.07
		c0.36,1.34,0.44,2.74,0.25,4.19c-0.2,1.45-0.82,2.87-1.86,4.27c-1.04,1.39-2.59,2.7-4.64,3.9c-2.05,1.21-4.73,2.26-8.02,3.15
		c-2.56,0.69-4.8,1.16-6.72,1.42c-1.91,0.26-3.57,0.39-4.97,0.39c-1.4,0-2.51-0.03-3.34-0.12c-0.83-0.08-1.43-0.07-1.79,0.02
		c-0.24,0.06-0.44,0.21-0.57,0.42c-0.14,0.21-0.28,0.45-0.43,0.7l-0.78,0.02l1.58-12.08L59.03,66.97L59.03,66.97z"/>
	<g transform="translate(0 2.155)">
		<defs>
			<filter id="Adobe_OpacityMaskFilter_1_" filterUnits="userSpaceOnUse" x="51.99" y="37.99" width="38.54" height="39.31">
				<feColorMatrix  type="matrix" values="1 0 0 0 0  0 1 0 0 0  0 0 1 0 0  0 0 0 1 0"/>
			</filter>
		</defs>
		<mask maskUnits="userSpaceOnUse" x="51.99" y="37.99" width="38.54" height="39.31" id="d_2_">
			<g class="st7">
				<path id="c_2_" class="st4" d="M52.04,37.99h38.48V77.3H52.04V37.99z"/>
			</g>
		</mask>
		<path class="st8" d="M58.69,66.09l-1.29,9.82c0.04-0.06,0.08-0.12,0.11-0.18c0.21-0.32,0.52-0.54,0.88-0.64
			c0.43-0.11,1.06-0.13,1.98-0.04c0.79,0.08,1.91,0.13,3.29,0.11c1.36-0.01,3.01-0.14,4.9-0.39c1.88-0.25,4.12-0.73,6.65-1.41
			c3.23-0.87,5.89-1.91,7.89-3.09c1.98-1.16,3.49-2.43,4.49-3.76c0.98-1.31,1.57-2.66,1.76-4.02c0.19-1.33,0.11-2.68-0.23-3.98
			c-0.44-1.64-1.16-2.92-2.12-3.81c-0.97-0.89-2.14-1.55-3.41-1.91c-1.31-0.38-2.77-0.56-4.31-0.51c-1.61,0.04-3.21,0.17-4.81,0.39
			c-1.58,0.22-3.16,0.48-4.73,0.79c-1.38,0.28-2.77,0.51-4.17,0.7c-1.27,0.16-2.36,0.17-3.24,0.01c-1.3-0.23-1.77-1.02-1.94-1.65
			c-0.24-0.88,0.16-1.86,1.2-2.9c0.98-0.98,2.79-1.81,5.55-2.55c1.49-0.4,3.01-0.7,4.55-0.89c1.44-0.19,2.9-0.31,4.35-0.35
			c1.32-0.02,2.47,0.06,3.41,0.23c0.72,0.14,1.7,0.42,1.91,1.2l0.08,0.31l1.59-7.94c-0.02,0.03-0.04,0.06-0.07,0.09
			c-0.26,0.33-0.66,0.58-1.18,0.72c-0.47,0.13-1.21,0.18-2.27,0.16c-1-0.01-2.23,0.01-3.69,0.06c-1.46,0.05-3.13,0.18-4.95,0.39
			c-1.84,0.21-3.8,0.6-5.83,1.15c-2.17,0.58-4.11,1.37-5.76,2.35c-1.64,0.97-2.98,2.07-3.96,3.25c-0.98,1.17-1.66,2.46-2.01,3.83
			c-0.34,1.35-0.32,2.78,0.07,4.23c0.49,1.81,1.42,3.04,2.83,3.76c1.46,0.74,3.19,1.16,5.14,1.25c2,0.08,4.11-0.06,6.26-0.41
			c2.07-0.33,4.14-0.67,6.21-1.02c1.92-0.32,3.58-0.5,4.95-0.53c1.61-0.03,2.54,0.45,2.81,1.45c0.42,1.55-0.08,2.96-1.46,4.19
			c-1.3,1.16-3.47,2.14-6.64,3c-1.61,0.43-3.26,0.71-4.93,0.83c-1.67,0.11-3.19,0.11-4.51-0.02c-1.35-0.13-2.5-0.35-3.44-0.67
			c-1.1-0.38-1.68-0.83-1.85-1.44C58.73,66.27,58.69,66.09,58.69,66.09z M56.14,77.3l1.74-13.27l1.72,0.35l-0.03,0.47
			c-0.01,0.12,0.01,0.42,0.2,1.14c0.01,0.06,0.14,0.35,1.16,0.7c0.85,0.29,1.92,0.5,3.19,0.61c1.26,0.12,2.72,0.13,4.34,0.02
			c1.6-0.11,3.18-0.37,4.72-0.79c2.96-0.8,5.05-1.73,6.21-2.77c1.08-0.96,1.45-1.98,1.14-3.12c-0.12-0.46-0.71-0.67-1.75-0.66
			c-1.31,0.03-2.92,0.21-4.79,0.52c-1.92,0.32-3.99,0.66-6.21,1.02c-2.22,0.37-4.4,0.51-6.48,0.42c-2.1-0.09-3.98-0.55-5.58-1.36
			c-1.68-0.85-2.81-2.35-3.38-4.44c-0.44-1.63-0.46-3.24-0.07-4.77c0.39-1.53,1.14-2.96,2.23-4.25c1.06-1.27,2.49-2.45,4.24-3.48
			c1.74-1.03,3.77-1.85,6.03-2.46c2.08-0.56,4.09-0.96,5.98-1.18c1.68-0.21,3.36-0.34,5.05-0.4c1.25-0.05,2.49-0.07,3.74-0.06
			c1.18,0.02,1.73-0.06,1.98-0.13c0.29-0.08,0.5-0.2,0.61-0.35c0.17-0.22,0.31-0.45,0.44-0.72l0.16-0.35l1.71,0.16l-2.14,10.72
			l-1.68-0.34l-0.27-0.99c0,0-0.13-0.24-1.08-0.42c-0.87-0.16-1.95-0.24-3.19-0.22c-1.42,0.04-2.83,0.15-4.23,0.34
			c-1.49,0.19-2.96,0.48-4.41,0.87c-2.54,0.68-4.24,1.45-5.07,2.27c-0.74,0.75-1.05,1.37-0.92,1.86c0.09,0.33,0.3,0.73,1.1,0.87
			c0.77,0.14,1.75,0.13,2.91-0.01c1.26-0.16,2.64-0.39,4.1-0.69c1.59-0.31,3.19-0.58,4.79-0.8c1.63-0.22,3.28-0.36,4.93-0.4
			c1.66-0.04,3.21,0.15,4.63,0.55c1.44,0.41,2.73,1.14,3.84,2.15c1.12,1.03,1.93,2.48,2.43,4.32c0.38,1.41,0.47,2.89,0.26,4.4
			c-0.21,1.54-0.87,3.06-1.96,4.52c-1.08,1.45-2.7,2.81-4.8,4.04c-2.09,1.23-4.83,2.31-8.15,3.2c-2.58,0.69-4.86,1.18-6.79,1.43
			c-1.93,0.26-3.63,0.39-5.03,0.4c-1.44,0-2.55-0.04-3.39-0.12c-0.96-0.09-1.4-0.04-1.6,0.01c-0.11,0.03-0.21,0.1-0.27,0.19
			c-0.13,0.2-0.27,0.43-0.41,0.68l-0.15,0.26C57.85,77.26,56.14,77.3,56.14,77.3z"/>
	</g>
	<path class="st0" d="M116.32,50.53c0.02-0.09,0.03-0.19,0.03-0.29c0-0.12-0.01-0.24-0.03-0.36c-0.04-0.22-0.27-0.42-0.71-0.6
		c-0.44-0.17-1.01-0.3-1.71-0.39c-0.7-0.09-1.49-0.14-2.38-0.15c-0.89-0.01-1.81,0.05-2.76,0.19c-0.9,0.12-1.82,0.35-2.77,0.68
		c-0.92,0.31-1.78,0.77-2.56,1.35c-0.74,0.55-1.33,1.26-1.74,2.08c-0.41,0.82-0.53,1.77-0.36,2.85c0.17,1.08,0.57,1.96,1.2,2.63
		c0.64,0.68,1.42,1.2,2.29,1.53c0.89,0.34,1.84,0.54,2.86,0.61c1.02,0.06,1.97,0.03,2.87-0.09c0.39-0.05,0.99-0.2,1.81-0.44
		c0.82-0.24,1.62-0.54,2.43-0.88c0.8-0.34,1.5-0.7,2.1-1.07c0.6-0.37,0.87-0.71,0.83-1.02c-0.01-0.12-0.06-0.23-0.14-0.33
		c-0.08-0.08-0.16-0.18-0.23-0.27l0.52-0.44l5.64,6.04l-0.57,0.45c-0.08-0.13-0.18-0.21-0.29-0.24c-0.13-0.03-0.26-0.03-0.39-0.01
		c-0.21,0.03-0.61,0.21-1.2,0.53c-0.59,0.33-1.37,0.69-2.33,1.1c-0.96,0.41-2.09,0.81-3.4,1.21c-1.31,0.4-2.8,0.71-4.47,0.94
		c-1.79,0.24-3.6,0.27-5.43,0.08c-1.83-0.2-3.52-0.67-5.07-1.43c-1.52-0.74-2.87-1.8-3.95-3.1c-1.08-1.31-1.77-2.92-2.06-4.82
		c-0.29-1.9-0.11-3.62,0.53-5.17c0.64-1.54,1.62-2.92,2.86-4.04c1.26-1.14,2.73-2.08,4.42-2.8c1.67-0.72,3.42-1.21,5.21-1.46
		c1.79-0.25,3.35-0.37,4.68-0.36c1.33,0,2.45,0.06,3.38,0.16c0.9,0.11,1.6,0.21,2.1,0.3c0.5,0.09,0.87,0.12,1.11,0.08
		c0.26-0.03,0.5-0.2,0.62-0.43l0.51,0.06l-2.96,7.57C116.82,50.77,116.32,50.53,116.32,50.53z"/>
	<path class="st0" d="M111.96,43.52c-1.29,0-2.81,0.12-4.53,0.36c-1.72,0.24-3.44,0.72-5.09,1.42c-1.64,0.7-3.08,1.62-4.28,2.72
		c-1.19,1.07-2.12,2.39-2.74,3.87c-0.61,1.46-0.78,3.11-0.5,4.91c0.27,1.8,0.93,3.34,1.96,4.58c1.04,1.25,2.33,2.27,3.79,2.98
		c1.49,0.73,3.14,1.19,4.91,1.38c1.78,0.19,3.57,0.17,5.31-0.08c1.65-0.23,3.13-0.54,4.4-0.92c1.3-0.39,2.43-0.8,3.35-1.19
		c0.95-0.4,1.71-0.76,2.28-1.08c0.86-0.48,1.18-0.57,1.37-0.59c0.12-0.02,0.25-0.02,0.37-0.01l-4.37-4.68
		c0.03,0.74-0.78,1.24-1.06,1.41c-0.61,0.38-1.32,0.74-2.16,1.1c-0.82,0.35-1.66,0.65-2.48,0.9c-0.85,0.25-1.46,0.4-1.88,0.46
		c-0.98,0.13-1.97,0.16-2.96,0.1c-1.03-0.06-2.04-0.27-3-0.64c-0.94-0.35-1.78-0.92-2.47-1.65c-0.7-0.74-1.15-1.72-1.33-2.89
		c-0.18-1.17-0.04-2.23,0.41-3.14c0.44-0.89,1.09-1.66,1.88-2.25c0.82-0.61,1.72-1.09,2.69-1.42c0.93-0.33,1.89-0.57,2.87-0.71
		c0.94-0.13,1.89-0.19,2.83-0.19c0.89,0.01,1.71,0.06,2.44,0.15c0.72,0.09,1.33,0.24,1.82,0.42c0.21,0.08,0.78,0.31,0.96,0.79
		l2.2-5.63c-0.08,0.03-0.15,0.04-0.23,0.06c-0.3,0.04-0.7,0.01-1.26-0.09c-0.69-0.12-1.38-0.21-2.08-0.29
		c-0.91-0.1-2.03-0.15-3.33-0.16H111.96L111.96,43.52z M107.82,66.82c-0.82,0-1.64-0.04-2.46-0.13c-1.88-0.2-3.64-0.7-5.23-1.47
		c-1.59-0.77-2.99-1.87-4.11-3.23c-1.14-1.38-1.87-3.07-2.17-5.05c-0.3-1.97-0.11-3.8,0.56-5.43c0.67-1.61,1.69-3.04,2.98-4.21
		c1.28-1.17,2.82-2.14,4.55-2.89c1.71-0.73,3.5-1.23,5.34-1.49c1.57-0.22,3.16-0.34,4.75-0.36c1.33,0,2.48,0.06,3.43,0.16
		c0.92,0.11,1.63,0.21,2.14,0.3c0.56,0.1,0.83,0.1,0.96,0.08c0.1-0.02,0.19-0.05,0.27-0.19l0.16-0.28l1.45,0.17l-3.37,8.64
		l-1.3-0.62l0.07-0.36c0.01-0.06,0.02-0.13,0.02-0.2c0-0.08-0.01-0.17-0.03-0.29c-0.01,0-0.09-0.1-0.41-0.22
		c-0.41-0.16-0.95-0.28-1.59-0.36c-0.77-0.09-1.54-0.14-2.32-0.14c-0.87,0.01-1.77,0.05-2.69,0.18c-0.85,0.12-1.75,0.34-2.68,0.66
		c-0.87,0.3-1.69,0.73-2.43,1.28c-0.68,0.5-1.22,1.16-1.6,1.91c-0.36,0.73-0.47,1.59-0.32,2.56c0.15,0.99,0.51,1.77,1.08,2.37
		c0.59,0.63,1.31,1.11,2.11,1.41c0.87,0.33,1.79,0.52,2.72,0.57c0.98,0.06,1.91,0.03,2.77-0.09c0.36-0.05,0.95-0.19,1.74-0.43
		c0.81-0.24,1.6-0.53,2.38-0.86c0.8-0.34,1.47-0.68,2.03-1.04c0.58-0.36,0.61-0.55,0.61-0.55c-0.1-0.14-0.19-0.25-0.28-0.38
		l-0.27-0.36l1.22-1.03l6.31,6.76l-1.4,1.1l-0.28-0.46c-0.05-0.04-0.12-0.04-0.2-0.03c-0.04,0.01-0.26,0.05-1.03,0.48
		c-0.61,0.34-1.38,0.7-2.37,1.12c-0.96,0.41-2.12,0.82-3.45,1.23c-1.32,0.4-2.85,0.72-4.55,0.96
		C109.89,66.75,108.86,66.82,107.82,66.82L107.82,66.82z"/>
	<path class="st1" d="M115.63,49.59c0.02-0.09,0.03-0.19,0.03-0.29c0-0.1-0.01-0.22-0.03-0.36c-0.04-0.22-0.27-0.42-0.71-0.6
		c-0.44-0.17-1.01-0.3-1.71-0.39c-0.7-0.09-1.49-0.14-2.38-0.15c-0.92-0.01-1.85,0.06-2.76,0.19c-0.9,0.12-1.82,0.35-2.77,0.68
		c-0.92,0.31-1.78,0.77-2.56,1.35c-0.74,0.55-1.33,1.26-1.74,2.08c-0.41,0.82-0.53,1.77-0.36,2.85c0.17,1.08,0.57,1.96,1.2,2.63
		c0.64,0.68,1.42,1.2,2.29,1.53c0.89,0.34,1.84,0.54,2.86,0.61c1.02,0.06,1.97,0.03,2.87-0.09c0.39-0.05,0.99-0.2,1.81-0.44
		c0.83-0.25,1.64-0.54,2.43-0.88c0.8-0.34,1.5-0.7,2.1-1.07c0.6-0.37,0.87-0.71,0.83-1.02c-0.01-0.12-0.06-0.23-0.14-0.33
		c-0.08-0.08-0.16-0.18-0.23-0.27l0.71-0.6l5.66,6.03l-0.78,0.61c-0.06-0.11-0.17-0.2-0.29-0.24c-0.13-0.03-0.26-0.03-0.39-0.01
		c-0.21,0.03-0.61,0.21-1.2,0.53c-0.59,0.33-1.37,0.69-2.33,1.1c-0.96,0.41-2.09,0.81-3.4,1.21c-1.31,0.4-2.8,0.71-4.47,0.94
		c-1.8,0.25-3.62,0.27-5.43,0.08c-1.83-0.2-3.52-0.67-5.07-1.43c-1.52-0.74-2.87-1.8-3.95-3.1c-1.08-1.31-1.77-2.92-2.06-4.81
		c-0.29-1.9-0.11-3.62,0.53-5.17c0.64-1.54,1.62-2.92,2.86-4.04c1.26-1.14,2.73-2.08,4.42-2.8c1.67-0.72,3.42-1.21,5.21-1.46
		c1.79-0.25,3.35-0.37,4.68-0.36c1.33,0,2.45,0.06,3.38,0.16c0.9,0.11,1.6,0.21,2.1,0.3c0.5,0.09,0.87,0.12,1.11,0.08
		c0.26-0.03,0.5-0.2,0.62-0.43l0.51,0.06l-2.96,7.57C116.12,49.83,115.63,49.59,115.63,49.59z"/>
	<path class="st1" d="M111.26,42.58c-1.29,0-2.81,0.12-4.53,0.36c-1.75,0.24-3.47,0.72-5.09,1.42c-1.64,0.71-3.08,1.62-4.28,2.72
		c-1.19,1.07-2.12,2.39-2.74,3.87c-0.61,1.46-0.78,3.11-0.5,4.91c0.27,1.8,0.93,3.34,1.96,4.58c1.04,1.25,2.33,2.27,3.79,2.98
		c1.49,0.72,3.14,1.19,4.91,1.38c1.77,0.19,3.55,0.16,5.31-0.08c1.65-0.23,3.13-0.54,4.4-0.93c1.3-0.39,2.43-0.8,3.35-1.19
		c0.94-0.4,1.71-0.76,2.28-1.08c0.85-0.47,1.17-0.56,1.37-0.59c0.2-0.03,0.39-0.02,0.56,0.02c0.06,0.02,0.13,0.04,0.2,0.08
		l0.05-0.03l-4.99-5.31c0.09,0.13,0.14,0.28,0.17,0.46c0.11,0.79-0.76,1.33-1.05,1.51c-0.61,0.38-1.32,0.74-2.16,1.1
		c-0.83,0.35-1.66,0.66-2.48,0.9c-0.85,0.25-1.46,0.4-1.88,0.46c-0.98,0.13-1.97,0.16-2.96,0.1c-1.03-0.06-2.04-0.27-3-0.64
		c-0.94-0.35-1.78-0.92-2.47-1.65c-0.7-0.74-1.15-1.72-1.33-2.89c-0.18-1.17-0.04-2.23,0.41-3.14c0.44-0.89,1.09-1.66,1.88-2.25
		c0.82-0.61,1.72-1.09,2.69-1.42c0.93-0.33,1.89-0.57,2.87-0.71c0.94-0.13,1.89-0.2,2.83-0.19c0.81,0,1.63,0.05,2.44,0.15
		c0.73,0.1,1.34,0.24,1.82,0.42c0.21,0.08,0.78,0.31,0.96,0.79l2.2-5.63c-0.08,0.03-0.15,0.04-0.23,0.06
		c-0.29,0.04-0.7,0.01-1.26-0.09c-0.69-0.12-1.38-0.22-2.08-0.3c-0.91-0.1-2.03-0.15-3.33-0.16L111.26,42.58L111.26,42.58z
		 M107.13,65.88c-0.82,0-1.64-0.04-2.46-0.13c-1.88-0.2-3.64-0.7-5.23-1.47c-1.59-0.77-2.99-1.87-4.11-3.23
		c-1.14-1.38-1.87-3.07-2.17-5.05c-0.3-1.97-0.11-3.8,0.56-5.43c0.67-1.61,1.69-3.04,2.98-4.21c1.28-1.17,2.82-2.14,4.55-2.89
		c1.71-0.73,3.5-1.23,5.34-1.49c1.57-0.22,3.16-0.34,4.75-0.36c1.33,0,2.48,0.06,3.43,0.16c0.92,0.11,1.63,0.21,2.14,0.3
		c0.56,0.1,0.83,0.1,0.96,0.08c0.1-0.02,0.19-0.05,0.27-0.19l0.16-0.28l1.45,0.17l-3.37,8.64l-1.29-0.62l0.07-0.36
		c0.01-0.06,0.02-0.13,0.02-0.2c0-0.08-0.01-0.17-0.03-0.29c-0.01,0-0.09-0.1-0.41-0.22c-0.41-0.16-0.94-0.28-1.59-0.36
		c-0.77-0.09-1.54-0.14-2.32-0.14c-0.86-0.01-1.77,0.05-2.69,0.18c-0.85,0.12-1.75,0.34-2.68,0.66c-0.87,0.3-1.69,0.73-2.43,1.28
		c-0.68,0.5-1.22,1.16-1.6,1.91c-0.36,0.73-0.47,1.59-0.32,2.56c0.16,0.99,0.51,1.77,1.08,2.38c0.59,0.62,1.31,1.11,2.11,1.41
		c0.84,0.32,1.73,0.51,2.72,0.57c0.98,0.06,1.91,0.03,2.77-0.09c0.36-0.05,0.95-0.19,1.74-0.43c0.81-0.24,1.6-0.53,2.38-0.86
		c0.8-0.34,1.47-0.68,2.03-1.04c0.58-0.36,0.61-0.55,0.61-0.55c-0.09-0.14-0.19-0.25-0.28-0.38l-0.27-0.36l1.41-1.19l6.34,6.75
		l-1.62,1.26l-0.28-0.45c-0.05-0.04-0.12-0.04-0.2-0.03c-0.04,0.01-0.26,0.05-1.03,0.48c-0.6,0.33-1.4,0.71-2.38,1.12
		c-0.96,0.41-2.09,0.81-3.45,1.23c-1.31,0.4-2.84,0.72-4.55,0.96C109.19,65.81,108.16,65.88,107.13,65.88z"/>
	<path class="st6" d="M115.05,48.78c0.02-0.09,0.03-0.18,0.03-0.29c0-0.1-0.01-0.22-0.04-0.36c-0.03-0.22-0.27-0.42-0.71-0.6
		c-0.44-0.17-1.01-0.3-1.71-0.39c-0.7-0.09-1.49-0.14-2.38-0.15c-0.88-0.01-1.81,0.05-2.76,0.19c-0.95,0.14-1.87,0.36-2.77,0.68
		c-0.92,0.31-1.78,0.77-2.56,1.35c-0.74,0.55-1.33,1.26-1.74,2.08c-0.41,0.82-0.53,1.77-0.37,2.85c0.17,1.08,0.57,1.96,1.21,2.63
		c0.64,0.68,1.42,1.2,2.29,1.53c0.89,0.34,1.84,0.54,2.86,0.61c1.02,0.06,1.97,0.03,2.87-0.09c0.39-0.05,0.99-0.2,1.81-0.44
		c0.83-0.25,1.64-0.54,2.43-0.88c0.8-0.34,1.5-0.7,2.1-1.07c0.6-0.37,0.87-0.71,0.83-1.02c-0.01-0.12-0.06-0.24-0.14-0.33
		c-0.08-0.08-0.16-0.18-0.23-0.27l0.45-0.37l5.63,6.04l-0.49,0.37c-0.06-0.11-0.17-0.2-0.29-0.24c-0.13-0.03-0.26-0.03-0.39-0.01
		c-0.21,0.03-0.61,0.21-1.2,0.53c-0.59,0.33-1.37,0.69-2.33,1.1c-0.96,0.41-2.09,0.81-3.4,1.21c-1.31,0.4-2.8,0.71-4.47,0.94
		c-1.8,0.25-3.62,0.27-5.43,0.08c-1.83-0.2-3.52-0.67-5.07-1.43c-1.52-0.74-2.87-1.8-3.95-3.1c-1.08-1.31-1.77-2.92-2.06-4.81
		c-0.29-1.9-0.11-3.62,0.53-5.17c0.64-1.54,1.62-2.92,2.86-4.04c1.26-1.14,2.73-2.08,4.42-2.8c1.67-0.72,3.42-1.21,5.22-1.46
		c1.79-0.25,3.35-0.37,4.68-0.36c1.33,0,2.45,0.06,3.38,0.16c0.7,0.08,1.4,0.18,2.1,0.3c0.5,0.09,0.87,0.12,1.11,0.08
		c0.26-0.03,0.5-0.2,0.62-0.43l0.51,0.06l-2.96,7.57L115.05,48.78L115.05,48.78z"/>
	<path class="st9" d="M110.69,41.81c-1.29,0-2.81,0.12-4.52,0.36c-1.72,0.24-3.43,0.72-5.08,1.42c-1.63,0.7-3.07,1.61-4.27,2.7
		c-1.18,1.07-2.11,2.38-2.72,3.85c-0.6,1.45-0.77,3.09-0.5,4.88c0.27,1.79,0.93,3.32,1.95,4.55c1.03,1.25,2.32,2.26,3.77,2.96
		c1.48,0.72,3.13,1.19,4.89,1.38c1.77,0.19,3.56,0.17,5.3-0.08c1.65-0.23,3.13-0.54,4.39-0.92c1.3-0.39,2.42-0.79,3.35-1.19
		c0.94-0.4,1.71-0.76,2.28-1.08c0.86-0.48,1.19-0.57,1.39-0.6c0.04,0,0.07-0.01,0.11-0.01l-4.07-4.36
		c-0.14,0.62-0.81,1.04-1.06,1.19c-0.61,0.38-1.32,0.74-2.17,1.11c-0.82,0.35-1.66,0.65-2.49,0.9c-0.85,0.25-1.47,0.4-1.89,0.46
		c-0.93,0.13-1.91,0.16-2.97,0.1c-1.03-0.06-2.05-0.28-3.02-0.64c-0.95-0.36-1.8-0.93-2.49-1.66c-0.71-0.75-1.16-1.73-1.34-2.92
		c-0.18-1.18-0.04-2.25,0.41-3.17c0.44-0.9,1.1-1.68,1.9-2.27c0.82-0.61,1.73-1.1,2.7-1.43c0.93-0.33,1.9-0.57,2.88-0.71
		c0.97-0.13,1.93-0.2,2.84-0.19c0.82,0,1.63,0.05,2.44,0.15c0.73,0.1,1.34,0.24,1.83,0.43c0.19,0.08,0.71,0.28,0.94,0.71l2.11-5.41
		c-0.05,0.01-0.09,0.02-0.14,0.03c-0.3,0.04-0.71,0.01-1.28-0.09c-0.69-0.12-1.38-0.21-2.08-0.29c-0.91-0.1-2.03-0.15-3.32-0.16
		H110.69L110.69,41.81z M106.56,65.12c-0.82,0-1.64-0.04-2.47-0.13c-1.89-0.2-3.65-0.7-5.25-1.48c-1.59-0.77-3-1.88-4.13-3.24
		c-1.15-1.38-1.88-3.09-2.18-5.08c-0.3-1.99-0.11-3.82,0.57-5.46c0.67-1.61,1.69-3.06,2.99-4.23c1.29-1.17,2.82-2.15,4.57-2.9
		c1.71-0.74,3.51-1.24,5.35-1.5c1.8-0.25,3.38-0.41,4.76-0.37c1.33,0,2.49,0.06,3.44,0.16c0.92,0.11,1.63,0.21,2.14,0.3
		c0.56,0.1,0.82,0.1,0.94,0.08c0.09-0.01,0.16-0.05,0.23-0.17l0.18-0.31l1.55,0.18l-3.42,8.75l-1.39-0.67l0.08-0.41
		c0.01-0.06,0.02-0.12,0.02-0.18c0-0.07-0.01-0.17-0.03-0.27c0.01,0.02-0.09-0.08-0.38-0.19c-0.4-0.16-0.94-0.28-1.58-0.36
		c-0.69-0.09-1.47-0.14-2.31-0.14c-0.9,0-1.79,0.06-2.68,0.18c-0.85,0.12-1.75,0.34-2.67,0.66c-0.87,0.3-1.68,0.73-2.41,1.27
		c-0.67,0.5-1.21,1.15-1.58,1.89c-0.36,0.72-0.46,1.57-0.32,2.53c0.15,0.96,0.51,1.75,1.07,2.35c0.58,0.62,1.3,1.1,2.09,1.4
		c0.83,0.32,1.74,0.51,2.7,0.57c0.99,0.06,1.9,0.03,2.76-0.09c0.36-0.05,0.94-0.19,1.73-0.43c0.81-0.24,1.6-0.53,2.37-0.86
		c0.7-0.29,1.38-0.64,2.03-1.03c0.53-0.33,0.58-0.51,0.58-0.51c-0.09-0.11-0.18-0.22-0.27-0.33l-0.31-0.41l1.23-1.01l6.38,6.84
		l-1.43,1.08l-0.31-0.49c0.01-0.01-0.05-0.02-0.15-0.01c-0.03,0-0.24,0.04-1.01,0.47c-0.61,0.34-1.39,0.71-2.38,1.13
		c-0.96,0.41-2.12,0.82-3.46,1.23c-1.32,0.4-2.85,0.72-4.56,0.96C108.63,65.04,107.59,65.12,106.56,65.12L106.56,65.12z"/>
	<path class="st0" d="M143.31,54.87c-0.05-0.25-0.16-0.48-0.34-0.66c-0.17-0.18-0.46-0.26-0.86-0.26h-7.42v3.71h12.8
		c0.21,0,0.37-0.07,0.48-0.22c0.11-0.15,0.19-0.47,0.24-0.98h0.48v6.82h-0.48c-0.05-0.35-0.13-0.56-0.24-0.64
		c-0.11-0.08-0.26-0.12-0.48-0.12h-19.9v-0.48c0.5-0.06,0.82-0.14,0.94-0.26c0.12-0.12,0.19-0.29,0.18-0.46V42.75
		c0.01-0.17-0.06-0.34-0.18-0.46c-0.12-0.12-0.43-0.21-0.94-0.26v-0.48h19.9c0.21,0,0.37-0.08,0.48-0.22
		c0.11-0.14,0.19-0.45,0.24-0.9h0.48v6.94h-0.48c-0.05-0.45-0.13-0.75-0.24-0.9c-0.11-0.15-0.26-0.22-0.48-0.22h-12.8v3.31h7.42
		c0.4,0,0.68-0.09,0.86-0.26c0.18-0.18,0.3-0.41,0.34-0.65h0.48v6.22C143.79,54.87,143.31,54.87,143.31,54.87z"/>
	<path class="st0" d="M128.95,62.04h18.55c0.29,0,0.53,0.06,0.71,0.18v-4.32c-0.16,0.13-0.38,0.25-0.71,0.25h-13.28v-4.68h7.9
		c0.53,0,0.93,0.13,1.19,0.4v-4.22c-0.26,0.27-0.66,0.4-1.19,0.4h-7.9v-4.27h13.28c0.33,0,0.56,0.11,0.71,0.25v-4.23
		c-0.2,0.17-0.45,0.26-0.71,0.25h-18.55c0.16,0.19,0.24,0.44,0.24,0.71v18.58C129.19,61.6,129.11,61.85,128.95,62.04z M149.17,63.76
		h-1.38l-0.06-0.41c-0.01-0.12-0.04-0.23-0.08-0.34c-0.01,0-0.07-0.01-0.16-0.01h-20.39v-1.39l0.43-0.05
		c0.51-0.06,0.65-0.13,0.67-0.14v0c0,0,0.01-0.02,0.01-0.1l-0.04-18.7c-0.01,0-0.16-0.07-0.64-0.12l-0.43-0.05v-1.39h20.39
		c0.09-0.03,0.17-0.16,0.23-0.69l0.05-0.43h1.39v7.91h-1.39l-0.05-0.43c-0.06-0.54-0.14-0.67-0.15-0.67l-12.41-0.02v2.34h6.94
		c0.36,0,0.48-0.08,0.51-0.12c0.11-0.11,0.19-0.26,0.21-0.41l0.08-0.39h1.35v7.18h-1.35l-0.08-0.39c-0.03-0.16-0.1-0.3-0.21-0.41
		c-0.04-0.04-0.16-0.12-0.51-0.12h-6.94v2.75h12.32c0.09-0.02,0.17-0.16,0.23-0.76l0.04-0.43h1.4V63.76L149.17,63.76z"/>
	<path class="st1" d="M142.3,53.97c-0.06-0.26-0.15-0.61-0.33-0.78c-0.17-0.17-0.46-0.26-0.85-0.26h-7.42v3.71h12.8
		c0.21,0,0.37-0.07,0.48-0.22c0.1-0.15,0.18-0.47,0.24-0.98h0.48v6.82h-0.48c-0.05-0.35-0.13-0.56-0.24-0.64
		c-0.11-0.08-0.27-0.12-0.48-0.12h-19.9v-0.48c0.5-0.06,0.81-0.14,0.94-0.26c0.12-0.12,0.19-0.29,0.18-0.46V41.72
		c0.01-0.17-0.06-0.34-0.18-0.46c-0.12-0.12-0.43-0.21-0.94-0.26v-0.48h19.9c0.21,0,0.37-0.08,0.48-0.22
		c0.1-0.14,0.18-0.44,0.24-0.9h0.48v6.94h-0.48c-0.05-0.45-0.13-0.75-0.24-0.9c-0.11-0.15-0.27-0.22-0.48-0.22h-12.8v3.31h7.42
		c0.4,0,0.68-0.09,0.85-0.26c0.17-0.17,0.29-0.39,0.34-0.65h0.48l-0.01,6.35L142.3,53.97L142.3,53.97z"/>
	<path class="st1" d="M127.96,61.02h18.55c0.29,0,0.53,0.06,0.71,0.18v-4.33c-0.16,0.14-0.38,0.25-0.71,0.25h-13.28v-4.67h7.9
		c0.52,0,0.91,0.13,1.18,0.39l0.01-4.2c-0.26,0.26-0.65,0.4-1.19,0.4h-7.9v-4.27h13.28c0.33,0,0.56,0.11,0.71,0.25v-4.24
		c-0.16,0.14-0.39,0.25-0.71,0.25h-18.55c0.16,0.19,0.24,0.44,0.24,0.71V60.3C128.2,60.58,128.12,60.82,127.96,61.02z M148.18,62.74
		h-1.38l-0.06-0.41c-0.01-0.12-0.04-0.23-0.08-0.34c-0.05-0.01-0.11-0.01-0.16-0.01h-20.39v-1.39l0.43-0.05
		c0.51-0.06,0.65-0.13,0.67-0.14c0,0,0.02-0.02,0.02-0.1V41.72c0-0.08-0.02-0.1-0.03-0.12c0,0-0.1-0.07-0.65-0.12l-0.43-0.05v-1.39
		h20.39c0.09-0.03,0.18-0.16,0.23-0.69l0.05-0.43h1.39v7.91h-1.39l-0.05-0.43c-0.06-0.54-0.14-0.67-0.15-0.67l-12.41-0.02v2.34h6.94
		c0.36,0,0.47-0.08,0.51-0.12c0.11-0.11,0.19-0.26,0.21-0.41l0.08-0.39h1.36l-0.02,7.32l-1.35-0.02l-0.08-0.38
		c-0.09-0.43-0.19-0.53-0.19-0.54c-0.04-0.04-0.16-0.12-0.51-0.12h-6.94v2.75h12.32c0.09-0.02,0.17-0.16,0.23-0.76l0.04-0.43h1.4
		L148.18,62.74L148.18,62.74z"/>
	<path class="st6" d="M141.66,53c-0.05-0.25-0.16-0.48-0.34-0.66c-0.17-0.17-0.46-0.26-0.85-0.26h-7.42v3.71h12.8
		c0.21,0,0.37-0.07,0.48-0.22c0.11-0.15,0.18-0.47,0.24-0.98h0.48v6.82h-0.48c-0.05-0.35-0.13-0.56-0.24-0.64
		c-0.11-0.08-0.26-0.12-0.48-0.12h-19.9v-0.48c0.5-0.06,0.82-0.14,0.94-0.26c0.12-0.12,0.19-0.29,0.18-0.46V40.88
		c0.01-0.17-0.06-0.34-0.18-0.46c-0.12-0.12-0.43-0.21-0.94-0.26v-0.48h19.9c0.21,0,0.37-0.08,0.48-0.22
		c0.11-0.14,0.18-0.45,0.24-0.9h0.48v6.94h-0.48c-0.05-0.45-0.13-0.75-0.24-0.9c-0.11-0.15-0.26-0.22-0.48-0.22h-12.8v3.31h7.42
		c0.4,0,0.68-0.09,0.85-0.26c0.17-0.17,0.29-0.39,0.34-0.65h0.48V53H141.66z"/>
	<g transform="translate(80.083 .141)">
		<defs>
			<filter id="Adobe_OpacityMaskFilter_2_" filterUnits="userSpaceOnUse" x="45.32" y="37.89" width="22.17" height="23.92">
				<feColorMatrix  type="matrix" values="1 0 0 0 0  0 1 0 0 0  0 0 1 0 0  0 0 0 1 0"/>
			</filter>
		</defs>
		<mask maskUnits="userSpaceOnUse" x="45.32" y="37.89" width="22.17" height="23.92" id="f_2_">
			<g class="st10">
				<path id="e_2_" class="st4" d="M45.32,37.95h22.17v23.87H45.32L45.32,37.95z"/>
			</g>
		</mask>
		<path class="st11" d="M47.32,59.98h18.44c0.26,0,0.48,0.05,0.66,0.14V56c-0.19,0.13-0.42,0.2-0.66,0.19H52.42v-4.78h7.96
			c0.48,0,0.87,0.11,1.14,0.33v-3.98c-0.27,0.22-0.65,0.33-1.14,0.33h-7.96v-4.38h13.34c0.29,0,0.5,0.08,0.66,0.19v-4.02
			c-0.16,0.11-0.37,0.19-0.66,0.19H47.32c0.12,0.19,0.19,0.41,0.19,0.66v18.58C47.51,59.57,47.44,59.8,47.32,59.98z M67.49,61.81
			h-1.48l-0.07-0.46c-0.01-0.1-0.04-0.2-0.07-0.3c-0.02,0-0.06,0-0.12,0H45.32v-1.49l0.48-0.05c0.51-0.06,0.64-0.13,0.65-0.13
			l-0.01-18.63c0-0.06-0.13-0.13-0.64-0.19l-0.48-0.05v-1.5h20.44c0.05,0,0.12-0.13,0.18-0.64L66,37.89h1.49v8.01H66l-0.05-0.47
			c-0.06-0.51-0.14-0.64-0.14-0.65l-12.31,0.01v2.24h6.88c0.28,0,0.42-0.05,0.47-0.1c0.1-0.11,0.17-0.24,0.2-0.39l0.09-0.43h1.45
			v7.29h-1.45l-0.09-0.43c-0.02-0.14-0.09-0.28-0.19-0.38c-0.06-0.06-0.21-0.11-0.48-0.11h-6.88v2.64h12.27
			c0.03,0,0.12-0.14,0.18-0.72l0.05-0.48h1.5C67.49,53.92,67.49,61.81,67.49,61.81z"/>
	</g>
	<path class="st0" d="M176.23,59.88c0.21,0.01,0.37-0.04,0.49-0.18c0.12-0.14,0.22-0.43,0.31-0.88l0.48,0.04l-0.52,6.9l-0.48-0.03
		c-0.02-0.43-0.08-0.7-0.18-0.8c-0.1-0.1-0.25-0.16-0.47-0.18l-20.76-1.58l0.04-0.48c0.5-0.02,0.83-0.08,0.95-0.19
		c0.13-0.11,0.21-0.27,0.21-0.44l1.4-18.59c0.02-0.17-0.03-0.34-0.14-0.47c-0.11-0.13-0.42-0.24-0.92-0.33l0.04-0.48l8.19,0.62
		l-0.04,0.48c-0.51,0.01-0.83,0.08-0.95,0.19c-0.13,0.11-0.21,0.27-0.21,0.44l-1.13,14.92C162.54,58.84,176.23,59.88,176.23,59.88z"
		/>
	<path class="st0" d="M156.48,62.79l19.41,1.48c0.29,0.02,0.52,0.1,0.7,0.25l0.33-4.35c-0.17,0.12-0.41,0.22-0.73,0.2l0,0
		l-14.16-1.08l1.16-15.4c0.02-0.27,0.12-0.51,0.3-0.7L158,42.77c0.15,0.21,0.21,0.47,0.19,0.74l-1.4,18.58
		C156.77,62.35,156.66,62.6,156.48,62.79L156.48,62.79z M177.43,66.27l-1.39-0.1l-0.02-0.43c-0.01-0.31-0.05-0.45-0.07-0.5
		c-0.01,0.01-0.05-0.01-0.13-0.01l-21.25-1.62l0.11-1.39l0.43-0.01c0.53-0.02,0.67-0.08,0.67-0.09h0c0,0,0.02-0.02,0.03-0.1
		l1.4-18.58c-0.01-0.11-0.13-0.2-0.66-0.29l-0.43-0.08l0.11-1.39l9.15,0.69l-0.11,1.4l-0.43,0.01c-0.53,0.01-0.67,0.09-0.68,0.09
		l0,0c0,0-0.02,0.02-0.03,0.1l-1.09,14.44l13.2,1c0.08,0,0.09-0.01,0.09-0.02c0-0.01,0.09-0.13,0.2-0.66l0.08-0.42l1.38,0.1
		L177.43,66.27L177.43,66.27z"/>
	<path class="st1" d="M175.23,58.67c0.21,0.01,0.37-0.04,0.49-0.18c0.12-0.14,0.22-0.43,0.31-0.88l0.48,0.04l-0.52,6.88l-0.48-0.04
		c-0.02-0.43-0.08-0.69-0.18-0.79c-0.1-0.1-0.25-0.16-0.47-0.17l-20.76-1.57l0.04-0.48c0.51-0.02,0.83-0.08,0.95-0.19
		c0.13-0.11,0.21-0.27,0.21-0.44l1.4-18.53c0.02-0.17-0.03-0.34-0.14-0.47c-0.11-0.13-0.42-0.24-0.92-0.33l0.04-0.48l8.19,0.62
		l-0.04,0.48c-0.51,0.01-0.83,0.08-0.96,0.19c-0.13,0.11-0.21,0.27-0.21,0.44l-1.13,14.87L175.23,58.67L175.23,58.67z"/>
	<path class="st1" d="M155.49,61.57l19.41,1.47c0.29,0.02,0.52,0.1,0.7,0.25l0.33-4.33c-0.16,0.12-0.4,0.22-0.73,0.2h0l-14.16-1.07
		l1.16-15.35c0.02-0.26,0.12-0.5,0.3-0.69l-5.49-0.41c0.15,0.22,0.21,0.48,0.18,0.74l-1.4,18.52
		C155.77,61.15,155.67,61.39,155.49,61.57L155.49,61.57z M176.44,65.05l-1.38-0.1l-0.02-0.43c-0.01-0.31-0.05-0.45-0.07-0.5
		c-0.01,0-0.05-0.01-0.13-0.01l-21.24-1.61l0.11-1.39l0.43-0.01c0.53-0.02,0.67-0.09,0.67-0.09l1.43-18.63
		c-0.01-0.1-0.13-0.19-0.66-0.29l-0.43-0.08l0.11-1.39l9.15,0.69l-0.11,1.39l-0.44,0.01c-0.54,0.01-0.67,0.09-0.68,0.09
		c0,0-0.02,0.02-0.02,0.09l-1.09,14.39l13.2,1c0.08,0,0.09-0.01,0.09-0.02c0.01-0.01,0.09-0.13,0.2-0.66l0.08-0.42l1.38,0.1
		L176.44,65.05L176.44,65.05z"/>
	<path class="st6" d="M174.52,57.61c0.21,0.01,0.37-0.04,0.49-0.18c0.12-0.14,0.22-0.43,0.31-0.88l0.47,0.04l-0.52,6.88l-0.48-0.04
		c-0.02-0.43-0.08-0.69-0.18-0.79c-0.1-0.1-0.25-0.16-0.47-0.18l-20.76-1.57l0.04-0.48c0.5-0.02,0.83-0.08,0.95-0.19
		c0.13-0.11,0.21-0.27,0.21-0.44l1.4-18.53c0.02-0.17-0.03-0.34-0.14-0.47c-0.11-0.13-0.42-0.24-0.92-0.33l0.04-0.48l8.19,0.62
		l-0.04,0.48c-0.51,0.01-0.83,0.08-0.96,0.19c-0.13,0.11-0.21,0.27-0.21,0.44l-1.13,14.87L174.52,57.61L174.52,57.61z"/>
	<path class="st9" d="M154.89,60.46l19.3,1.46c0.26,0.02,0.48,0.09,0.65,0.2l0.31-4.13c-0.2,0.12-0.44,0.17-0.67,0.14h0l-14.22-1.08
		l1.17-15.41c0.02-0.24,0.1-0.46,0.24-0.64l-5.28-0.4c0.11,0.2,0.16,0.43,0.13,0.68l-1.4,18.52
		C155.11,60.06,155.03,60.28,154.89,60.46L154.89,60.46z M175.77,64.04l-1.49-0.11l-0.02-0.47c0-0.15-0.02-0.3-0.05-0.45
		c-0.02,0-0.05,0-0.1-0.01l-21.3-1.62l0.12-1.49l0.48-0.01c0.51-0.02,0.64-0.08,0.65-0.08l1.4-18.58c0.01-0.06-0.11-0.14-0.62-0.23
		l-0.48-0.09l0.12-1.49l9.26,0.7l-0.12,1.49l-0.48,0.01c-0.51,0.01-0.65,0.08-0.65,0.08l-1.08,14.39l13.15,1c0.04,0,0.06,0,0.06,0
		c-0.01,0,0.08-0.12,0.18-0.63l0.09-0.46l1.48,0.11L175.77,64.04L175.77,64.04z"/>
	<path class="st0" d="M184.31,66.7c0.51,0.04,0.83,0.01,0.97-0.08c0.14-0.1,0.24-0.25,0.26-0.42l2.72-14.67l-6.75-1.25
		c-0.21-0.04-0.38,0.01-0.51,0.13c-0.13,0.12-0.26,0.41-0.4,0.84l-0.47-0.09l1.29-6.98l0.47,0.09c-0.03,0.45-0.01,0.76,0.07,0.93
		c0.07,0.16,0.22,0.26,0.43,0.3l19.37,3.59c0.21,0.04,0.38,0,0.51-0.13c0.13-0.12,0.27-0.4,0.4-0.84l0.47,0.09l-1.29,6.98
		l-0.47-0.09c0.03-0.45,0.01-0.76-0.07-0.92c-0.08-0.17-0.22-0.27-0.43-0.3l-6.74-1.25l-2.72,14.67c-0.04,0.17,0,0.34,0.09,0.48
		c0.09,0.14,0.39,0.28,0.87,0.43l-0.09,0.47l-8.08-1.5L184.31,66.7L184.31,66.7z"/>
	<path class="st0" d="M185.64,66.94l5.41,1c-0.12-0.23-0.16-0.49-0.11-0.74l2.81-15.14l7.22,1.34c0.33,0.06,0.53,0.22,0.66,0.38
		l0.8-4.33c-0.17,0.1-0.42,0.17-0.74,0.12l-19.38-3.59c-0.26-0.04-0.49-0.17-0.66-0.38l-0.8,4.33c0.18-0.1,0.42-0.17,0.75-0.12
		l7.22,1.34l-2.81,15.14C185.96,66.54,185.83,66.77,185.64,66.94L185.64,66.94z M192.69,69.23l-9.04-1.67l0.27-1.37l0.43,0.03
		c0.53,0.04,0.67-0.01,0.68-0.01c0,0,0.02,0,0.04-0.1l2.63-14.19l-6.27-1.16c-0.09,0-0.2,0.12-0.36,0.64l-0.13,0.41l-1.37-0.25
		l1.47-7.93l1.37,0.25l-0.03,0.43c-0.04,0.53,0.02,0.67,0.03,0.68l19.45,3.63c0.1-0.02,0.2-0.13,0.36-0.64l0.13-0.41l1.37,0.25
		l-1.47,7.93l-1.37-0.26l0.02-0.42c0.03-0.53-0.02-0.67-0.02-0.68l-6.35-1.2l-2.63,14.19c-0.01,0.08,0,0.1,0.02,0.12
		c0.01,0,0.14,0.1,0.61,0.24l0.42,0.12L192.69,69.23L192.69,69.23z"/>
	<path class="st1" d="M183.43,65.32c0.51,0.04,0.83,0.01,0.97-0.08c0.14-0.1,0.24-0.25,0.26-0.42l2.72-14.67l-6.75-1.25
		c-0.21-0.04-0.38,0.01-0.51,0.13c-0.13,0.12-0.27,0.41-0.4,0.84l-0.47-0.09l1.3-6.98l0.47,0.09c-0.03,0.45,0,0.76,0.07,0.93
		c0.08,0.16,0.22,0.26,0.43,0.3l19.37,3.59c0.21,0.04,0.38,0,0.51-0.13c0.13-0.12,0.26-0.4,0.4-0.84l0.47,0.09l-1.29,7.09
		l-0.47-0.09c0.03-0.56,0.01-0.87-0.07-1.03c-0.08-0.17-0.22-0.27-0.43-0.31l-6.74-1.25l-2.72,14.67c-0.04,0.17,0,0.34,0.09,0.48
		c0.1,0.14,0.39,0.28,0.94,0.43l-0.09,0.47l-8.15-1.5L183.43,65.32L183.43,65.32z"/>
	<path class="st1" d="M184.76,65.56l5.4,0.99c-0.12-0.23-0.15-0.48-0.1-0.73l2.81-15.14l7.22,1.34c0.28,0.05,0.52,0.19,0.67,0.39
		l0.79-4.35c-0.17,0.1-0.42,0.17-0.75,0.12l-19.38-3.6c-0.33-0.06-0.53-0.21-0.66-0.37l-0.8,4.33c0.18-0.1,0.42-0.18,0.75-0.12
		l7.22,1.34l-2.81,15.14C185.09,65.16,184.96,65.39,184.76,65.56L184.76,65.56z M191.88,67.85l-9.11-1.67l0.26-1.37l0.43,0.03
		c0.53,0.04,0.67-0.01,0.68-0.01c0,0,0.02-0.02,0.04-0.1l2.63-14.19l-6.27-1.16c-0.09,0-0.2,0.12-0.36,0.64l-0.13,0.41l-1.37-0.25
		l1.47-7.93l1.37,0.25l-0.03,0.43c-0.04,0.53,0.02,0.67,0.03,0.68l19.46,3.63c0.1-0.02,0.2-0.13,0.36-0.64l0.13-0.41l1.37,0.25
		l-1.47,8.04L200,54.23l0.02-0.42c0.03-0.61-0.01-0.77-0.02-0.8l-6.35-1.2L191.01,66l0.02,0.12c0.01,0,0.16,0.1,0.66,0.23l0.43,0.11
		L191.88,67.85L191.88,67.85z"/>
	<path class="st6" d="M182.76,64.16c0.51,0.04,0.83,0.01,0.97-0.08c0.14-0.1,0.24-0.25,0.26-0.42l2.72-14.67l-6.75-1.25
		c-0.21-0.04-0.38,0.01-0.51,0.13c-0.13,0.12-0.26,0.41-0.4,0.84l-0.47-0.09l1.29-6.98l0.47,0.09c-0.03,0.45-0.01,0.76,0.07,0.93
		c0.08,0.16,0.22,0.26,0.43,0.3l19.37,3.59c0.21,0.04,0.38,0,0.51-0.13c0.13-0.12,0.27-0.41,0.4-0.84l0.47,0.09l-1.29,6.98
		l-0.47-0.09c0.03-0.45,0.01-0.76-0.07-0.92c-0.08-0.16-0.22-0.27-0.43-0.3l-6.74-1.25l-2.72,14.67c-0.04,0.17,0,0.34,0.09,0.48
		c0.1,0.14,0.39,0.28,0.88,0.43l-0.09,0.47l-8.08-1.5L182.76,64.16z"/>
	<path class="st9" d="M184.21,64.37l5.2,0.96c-0.09-0.22-0.11-0.46-0.07-0.69l2.81-15.19l7.27,1.35c0.25,0.05,0.46,0.15,0.61,0.31
		l0.76-4.11c-0.21,0.09-0.45,0.12-0.68,0.07l-19.38-3.59c-0.23-0.04-0.45-0.14-0.62-0.31l-0.76,4.11c0.21-0.1,0.45-0.12,0.68-0.07
		l7.28,1.35l-2.82,15.19C184.47,64,184.37,64.21,184.21,64.37L184.21,64.37z M191.18,66.75l-9.14-1.7l0.28-1.47l0.48,0.04
		c0.51,0.04,0.65-0.01,0.65-0.01l2.63-14.19l-6.22-1.15c-0.05-0.01-0.15,0.1-0.3,0.6l-0.14,0.46l-1.47-0.27l1.49-8.03l1.47,0.27
		l-0.03,0.48c-0.03,0.51,0.02,0.65,0.02,0.66l19.42,3.6c0.05,0,0.15-0.11,0.3-0.6l0.14-0.45l1.47,0.27l-1.49,8.03L199.27,53
		l0.03-0.47c0.03-0.51-0.02-0.65-0.02-0.66l-6.26-1.16l-2.62,14.14c-0.01,0.05,0.1,0.15,0.59,0.3l0.46,0.14L191.18,66.75
		L191.18,66.75z"/>
	<path class="st0" d="M206.21,73.31c-0.06,0.18-0.04,0.34,0.06,0.48c0.1,0.13,0.35,0.27,0.76,0.4l-0.22,0.67l-9.79-3.19l0.21-0.66
		c0.43,0.06,0.77,0.03,1-0.07c0.24-0.1,0.52-0.35,0.85-0.73c0.13-0.16,0.48-0.6,1.04-1.31c0.56-0.72,1.28-1.61,2.16-2.69
		c0.88-1.08,1.86-2.28,2.94-3.6c1.08-1.32,2.18-2.67,3.28-4.04c1.07-1.35,2.15-2.69,3.24-4.03c0.95-1.17,1.89-2.34,2.83-3.52
		c0.83-1.04,1.5-1.88,2.02-2.53c0.51-0.65,0.78-0.99,0.79-1.03c0.06-0.18-0.02-0.35-0.23-0.5c-0.22-0.15-0.45-0.29-0.7-0.41
		l0.22-0.66l14.44,4.7l-0.22,0.67c-0.25-0.05-0.51-0.08-0.77-0.07c-0.21,0.02-0.77,0.17-0.86,0.46c-0.03,0.07,0.03,0.61,0.1,1.61
		c0.06,1,0.13,2.17,0.22,3.77c0.09,1.6,0.24,3.54,0.37,5.57c0.14,2.02,0.3,4.09,0.47,6.2c0.17,2.12,0.31,4.18,0.46,6.18
		c0.14,2,0.09,3.67,0.23,5.26c0.08,0.76,0.71,1.42,0.84,1.7c0.13,0.29,0.36,0.49,0.7,0.6l-0.22,0.67l-10.9-3.55l0.22-0.67
		c0.72,0.19,1.14,0.09,1.27-0.32c0.01-0.03,0-0.32-0.03-0.84c-0.04-0.58-0.07-1.16-0.1-1.75c-0.04-0.65-0.07-1.26-0.11-1.84
		c-0.04-0.58-0.04-0.97-0.02-1.17l-13.11-4.26c-0.57,0.71-1.13,1.42-1.68,2.14c-0.43,0.56-0.77,1-1.01,1.32
		c-0.25,0.33-0.43,0.56-0.54,0.71C206.3,73.12,206.23,73.23,206.21,73.31L206.21,73.31z M222.76,68.17l-1.09-14.91l-9.21,11.57
		L222.76,68.17L222.76,68.17z"/>
	<path class="st0" d="M213.27,64.58l8.95,2.91l-0.94-12.97C221.28,54.52,213.27,64.58,213.27,64.58z M223.29,68.85l-11.64-3.79
		l10.41-13.08L223.29,68.85z M222.69,79.51l9.01,2.93c-0.08-0.1-0.14-0.21-0.19-0.32c-0.03-0.06-0.09-0.14-0.16-0.24
		c-0.26-0.37-0.65-0.94-0.72-1.61c-0.07-0.83-0.09-1.66-0.12-2.56c-0.02-0.85-0.04-1.74-0.11-2.72l-0.07-1
		c-0.12-1.72-0.25-3.45-0.39-5.17c-0.17-2.07-0.33-4.14-0.47-6.21l-0.15-2.14c-0.09-1.24-0.17-2.41-0.23-3.43l-0.03-0.55
		c-0.08-1.32-0.13-2.34-0.19-3.22c-0.02-0.32-0.04-0.64-0.07-0.97c-0.04-0.58-0.05-0.69,0-0.83c0.17-0.54,0.87-0.72,1.16-0.77
		l-12.39-4.03c0.38,0.36,0.32,0.76,0.26,0.92c-0.04,0.12-0.05,0.14-0.88,1.18l-2.02,2.53c-0.83,1.04-1.77,2.21-2.83,3.52
		c-1.08,1.34-2.16,2.68-3.23,4.02c-1.09,1.36-2.18,2.71-3.28,4.05l-2.94,3.6c-0.73,0.89-1.44,1.78-2.15,2.68
		c-0.57,0.72-0.91,1.16-1.05,1.32c-0.39,0.45-0.72,0.73-1.03,0.87c-0.13,0.06-0.26,0.1-0.4,0.12l7.82,2.55
		c-0.12-0.19-0.23-0.48-0.1-0.87c0.04-0.13,0.12-0.27,0.26-0.47c0.12-0.16,0.3-0.4,0.55-0.73c0.17-0.22,0.39-0.51,0.65-0.85
		l0.36-0.47c0.42-0.55,0.99-1.27,1.68-2.15l0.21-0.26l13.8,4.49l-0.04,0.39c-0.01,0.1-0.02,0.37,0.02,1.09l0.11,1.84
		c0.03,0.64,0.07,1.22,0.1,1.74c0.05,0.88,0.04,0.92,0.01,1.02C223.36,79.17,223.07,79.44,222.69,79.51L222.69,79.51z M232.74,83.79
		l-11.82-3.84l0.51-1.56l0.44,0.12c0.06,0.02,0.63,0.17,0.68,0h0c-0.01,0-0.03-0.25-0.05-0.66c-0.04-0.58-0.07-1.17-0.1-1.75
		l-0.11-1.84c-0.02-0.28-0.03-0.57-0.03-0.85l-12.45-4.05c-0.6,0.75-1.09,1.38-1.46,1.87l-0.37,0.48c-0.26,0.34-0.47,0.62-0.64,0.84
		c-0.25,0.33-0.43,0.57-0.54,0.71c-0.05,0.06-0.09,0.13-0.12,0.19c-0.01,0.02-0.01,0.03-0.01,0.05c0.01,0,0.12,0.09,0.52,0.22
		l0.46,0.15l-0.52,1.58l-10.71-3.49l0.49-1.51l0.4,0.06c0.44,0.06,0.65,0,0.74-0.03c0.08-0.04,0.31-0.17,0.68-0.61
		c0.35-0.43,0.69-0.86,1.03-1.3c0.56-0.72,1.28-1.62,2.16-2.7l2.95-3.6c1.08-1.32,2.17-2.67,3.27-4.04c1.1-1.38,2.18-2.72,3.24-4.03
		c0.95-1.17,1.89-2.34,2.83-3.52l2.02-2.53c0.31-0.39,0.53-0.67,0.65-0.83c-0.2-0.14-0.4-0.27-0.62-0.38l-0.38-0.18l0.49-1.52
		l15.36,5l-0.5,1.53l-0.42-0.08c-0.21-0.05-0.43-0.07-0.65-0.06c-0.12,0.01-0.32,0.08-0.41,0.14c0,0.1,0.02,0.25,0.03,0.45
		c0.02,0.25,0.04,0.58,0.07,0.98c0.06,0.88,0.11,1.9,0.19,3.22l0.03,0.55c0.06,1.02,0.14,2.19,0.23,3.42l0.15,2.14
		c0.14,2.02,0.31,4.09,0.47,6.2c0.14,1.76,0.26,3.49,0.39,5.18l0.07,1.01c0.07,0.99,0.09,1.9,0.11,2.76
		c0.02,0.87,0.04,1.69,0.11,2.49c0.04,0.41,0.34,0.84,0.55,1.15c0.11,0.16,0.2,0.3,0.25,0.39c0.05,0.11,0.14,0.25,0.41,0.34
		l0.46,0.15L232.74,83.79L232.74,83.79z"/>
	<path class="st1" d="M205.89,71.92c-0.06,0.18-0.04,0.34,0.06,0.48c0.1,0.13,0.35,0.27,0.76,0.4l-0.22,0.67l-9.79-3.19l0.21-0.66
		c0.43,0.06,0.77,0.03,1-0.07c0.23-0.1,0.52-0.35,0.85-0.73c0.13-0.16,0.48-0.6,1.04-1.31c0.56-0.72,1.28-1.61,2.16-2.69
		c0.88-1.08,1.86-2.28,2.94-3.6c1.1-1.34,2.19-2.69,3.28-4.04c1.07-1.35,2.15-2.69,3.24-4.03c1.62-2.01,3.24-4.02,4.84-6.05
		c0.52-0.65,0.78-0.99,0.79-1.03c0.06-0.18-0.02-0.35-0.23-0.5c-0.22-0.15-0.45-0.29-0.7-0.41l0.22-0.66l14.44,4.7l-0.22,0.67
		c-0.25-0.05-0.51-0.08-0.77-0.07c-0.21,0.02-0.6,0.17-0.69,0.46c-0.02,0.07,0.02,0.61,0.09,1.61c0.06,1,0.15,2.3,0.24,3.9
		c0.09,1.6,0.22,3.41,0.35,5.44c0.14,2.02,0.3,4.09,0.47,6.2c0.17,2.11,0.32,4.18,0.46,6.18c0.14,2,0.21,3.8,0.35,5.4
		c0.08,0.76,0.23,1.28,0.36,1.57c0.13,0.29,0.57,0.49,0.9,0.6l-0.22,0.67l-10.9-3.55l0.22-0.67c0.72,0.19,1.14,0.08,1.27-0.32
		c0.01-0.03,0-0.32-0.03-0.84c-0.04-0.58-0.07-1.16-0.1-1.75l-0.11-1.84c-0.03-0.58-0.04-0.97-0.02-1.17l-13.11-4.26
		c-0.57,0.71-1.13,1.42-1.68,2.14c-0.43,0.56-0.77,1-1.01,1.32c-0.25,0.33-0.43,0.56-0.54,0.71
		C205.98,71.74,205.92,71.85,205.89,71.92L205.89,71.92z M222.44,66.78l-1.09-14.91l-9.21,11.57L222.44,66.78L222.44,66.78z"/>
	<path class="st1" d="M212.95,63.19l8.95,2.91l-0.94-12.97L212.95,63.19z M222.97,67.46l-11.64-3.78l10.41-13.08L222.97,67.46
		L222.97,67.46z M222.38,78.12l8.76,2.85c-0.06-0.07-0.11-0.15-0.15-0.24c-0.11-0.23-0.3-0.77-0.4-1.72
		c-0.08-0.97-0.14-1.94-0.2-2.92c-0.05-0.79-0.09-1.62-0.16-2.49c-0.14-2-0.29-4.06-0.46-6.18c-0.17-2.07-0.32-4.14-0.47-6.21
		l-0.11-1.66c-0.09-1.26-0.17-2.52-0.24-3.78c-0.09-1.6-0.17-2.9-0.24-3.89l-0.05-0.82c-0.05-0.71-0.06-0.84-0.01-0.98
		c0.15-0.46,0.63-0.7,0.98-0.77l-12.38-4.03c0.39,0.36,0.32,0.76,0.26,0.92c-0.03,0.11-0.04,0.13-0.87,1.18l-2.02,2.53
		c-0.83,1.04-1.77,2.21-2.83,3.52c-1.08,1.34-2.16,2.68-3.23,4.02c-1.09,1.36-2.18,2.7-3.28,4.05l-2.94,3.6
		c-0.73,0.89-1.44,1.78-2.15,2.68c-0.35,0.44-0.69,0.88-1.05,1.32c-0.39,0.45-0.72,0.73-1.03,0.87c-0.13,0.06-0.26,0.1-0.4,0.12
		l7.82,2.55c-0.17-0.26-0.2-0.58-0.1-0.87c0.04-0.12,0.12-0.26,0.26-0.46c0.12-0.16,0.3-0.4,0.55-0.73
		c0.16-0.21,0.37-0.49,0.62-0.81l0.39-0.51c0.55-0.72,1.11-1.44,1.68-2.15l0.21-0.26l13.81,4.49l-0.05,0.39
		c-0.01,0.1-0.02,0.37,0.02,1.08l0.11,1.85c0.03,0.62,0.07,1.19,0.1,1.7c0.06,0.91,0.04,0.95,0.02,1.05
		C223.07,77.66,222.87,78.01,222.38,78.12L222.38,78.12z M232.42,82.41l-11.82-3.85l0.51-1.56l0.44,0.12c0.06,0.02,0.63,0.17,0.68,0
		h0c-0.01,0-0.03-0.25-0.05-0.66c-0.03-0.55-0.07-1.12-0.1-1.75l-0.11-1.84c-0.02-0.28-0.03-0.57-0.03-0.85l-12.45-4.05
		c-0.6,0.75-1.09,1.38-1.46,1.87l-0.4,0.51c-0.24,0.32-0.45,0.59-0.61,0.81c-0.25,0.33-0.43,0.56-0.54,0.71
		c-0.05,0.06-0.09,0.13-0.13,0.2c0,0.01-0.01,0.03-0.01,0.04c0.01,0,0.12,0.09,0.52,0.22l0.46,0.15l-0.53,1.58l-10.71-3.49l0.49-1.5
		l0.4,0.05c0.45,0.06,0.65,0.01,0.74-0.03c0.1-0.05,0.32-0.18,0.68-0.61c0.35-0.43,0.69-0.86,1.02-1.29
		c0.71-0.91,1.43-1.81,2.17-2.7l2.95-3.6c1.1-1.34,2.19-2.69,3.27-4.04c1.07-1.35,2.15-2.69,3.24-4.03
		c0.95-1.17,1.89-2.34,2.83-3.52l2.02-2.53c0.31-0.4,0.53-0.67,0.65-0.83c-0.2-0.14-0.41-0.27-0.62-0.38l-0.37-0.19l0.49-1.52
		l15.36,5l-0.5,1.53l-0.42-0.08c-0.22-0.05-0.43-0.07-0.65-0.06c-0.09,0.01-0.24,0.09-0.26,0.13c0.01,0.01,0.03,0.24,0.06,0.61
		l0.05,0.82c0.06,1,0.15,2.3,0.24,3.9c0.07,1.15,0.15,2.4,0.24,3.77l0.11,1.66c0.14,2.02,0.3,4.09,0.47,6.2
		c0.17,2.12,0.32,4.18,0.46,6.18c0.06,0.87,0.11,1.71,0.16,2.51c0.06,1.03,0.12,1.99,0.19,2.88c0.09,0.86,0.27,1.3,0.32,1.41
		c0.02,0.05,0.18,0.2,0.62,0.34l0.46,0.15L232.42,82.41L232.42,82.41z"/>
	<path class="st6" d="M205.56,70.47c-0.06,0.18-0.04,0.34,0.06,0.48c0.1,0.13,0.35,0.27,0.76,0.4l-0.22,0.67l-9.79-3.19l0.21-0.66
		c0.43,0.06,0.77,0.03,1-0.07c0.23-0.1,0.52-0.35,0.85-0.73c0.13-0.16,0.48-0.6,1.04-1.31c0.56-0.72,1.28-1.61,2.16-2.69
		c0.88-1.08,1.86-2.28,2.95-3.6c1.08-1.32,2.17-2.67,3.28-4.04c1.07-1.35,2.15-2.69,3.24-4.02c0.95-1.17,1.89-2.34,2.83-3.52
		c0.83-1.04,1.5-1.88,2.02-2.53c0.52-0.65,0.78-0.99,0.79-1.03c0.06-0.18-0.02-0.35-0.23-0.5c-0.22-0.15-0.45-0.29-0.7-0.41
		l0.22-0.66l14.44,4.7l-0.22,0.67c-0.25-0.05-0.51-0.08-0.77-0.07c-0.21,0.02-0.36,0.17-0.46,0.46c-0.03,0.07-0.01,0.61,0.05,1.61
		c0.06,1,0.14,2.3,0.23,3.9c0.09,1.6,0.21,3.41,0.34,5.43c0.14,2.02,0.29,4.09,0.46,6.2c0.17,2.11,0.32,4.18,0.47,6.18
		c0.14,2,0.28,3.8,0.42,5.4c0.08,0.76,0.18,1.28,0.31,1.57c0.13,0.29,0.36,0.49,0.7,0.6l-0.22,0.67l-10.9-3.55l0.22-0.67
		c0.72,0.19,1.14,0.09,1.27-0.32c0.01-0.03,0-0.32-0.03-0.84c-0.04-0.58-0.07-1.16-0.1-1.75l-0.11-1.84
		c-0.04-0.58-0.04-0.97-0.02-1.17l-13.11-4.26c-0.69,0.87-1.26,1.59-1.68,2.14c-0.43,0.56-0.77,1-1.01,1.32
		c-0.25,0.33-0.43,0.56-0.54,0.71C205.65,70.28,205.58,70.39,205.56,70.47L205.56,70.47z M222.11,65.32l-1.09-14.91l-9.21,11.56
		L222.11,65.32L222.11,65.32z"/>
	<path class="st9" d="M212.71,61.7l8.8,2.86l-0.93-12.75L212.71,61.7z M222.7,66.08l-11.79-3.83L221.46,49L222.7,66.08z
		 M222.22,76.67l8.7,2.83c-0.04-0.06-0.08-0.13-0.11-0.2c-0.16-0.34-0.28-0.91-0.36-1.74c-0.15-1.8-0.29-3.61-0.42-5.41
		c-0.14-2-0.3-4.06-0.47-6.18c-0.31-3.88-0.58-7.77-0.8-11.65c-0.09-1.6-0.17-2.9-0.23-3.89c-0.1-1.61-0.07-1.69-0.03-1.82
		c0.14-0.45,0.4-0.66,0.63-0.75l-12.04-3.91c0.25,0.34,0.19,0.68,0.14,0.83c-0.04,0.12-0.04,0.13-0.88,1.19l-2.02,2.53
		c-0.94,1.18-1.88,2.35-2.83,3.52c-1.08,1.34-2.16,2.68-3.23,4.02c-1.09,1.35-2.18,2.7-3.28,4.05l-2.94,3.6
		c-0.73,0.89-1.44,1.78-2.15,2.68c-0.57,0.72-0.91,1.16-1.05,1.32c-0.39,0.46-0.73,0.74-1.05,0.88c-0.07,0.03-0.14,0.06-0.21,0.08
		l7.5,2.44c-0.11-0.25-0.13-0.53-0.04-0.79c0.04-0.13,0.12-0.26,0.27-0.48c0.12-0.16,0.3-0.4,0.56-0.73l1.01-1.32
		c0.42-0.55,0.99-1.27,1.68-2.15l0.23-0.29l13.88,4.52l-0.05,0.43c-0.01,0.1-0.02,0.36,0.02,1.08l0.11,1.85
		c0.03,0.64,0.07,1.22,0.11,1.74c0.05,0.87,0.04,0.92,0,1.05C222.77,76.3,222.53,76.55,222.22,76.67L222.22,76.67z M232.12,81.02
		l-11.92-3.88l0.54-1.66l0.49,0.13c0.48,0.13,0.61,0.05,0.61,0.05c-0.01,0-0.03-0.25-0.05-0.66c-0.04-0.58-0.08-1.17-0.11-1.75
		l-0.11-1.84c-0.02-0.27-0.03-0.54-0.03-0.81l-12.38-4.02c-0.58,0.74-1.07,1.36-1.44,1.84l-1.01,1.32
		c-0.25,0.33-0.43,0.57-0.54,0.71c-0.05,0.07-0.1,0.14-0.12,0.19c0,0,0,0.01,0,0.01c0.03,0,0.16,0.08,0.47,0.18l0.52,0.16
		l-0.56,1.69l-10.81-3.52l0.52-1.6l0.44,0.06c0.43,0.06,0.63,0.01,0.71-0.03c0.08-0.03,0.3-0.16,0.67-0.59
		c0.12-0.15,0.47-0.58,1.02-1.29c0.56-0.72,1.28-1.62,2.16-2.7l2.95-3.6c1.1-1.34,2.19-2.69,3.27-4.04
		c1.07-1.35,2.15-2.69,3.24-4.03c0.95-1.17,1.89-2.34,2.83-3.51l2.02-2.53c0.29-0.36,0.5-0.63,0.62-0.79
		c-0.18-0.13-0.37-0.24-0.57-0.34l-0.42-0.21l0.52-1.62l15.46,5.03l-0.53,1.63l-0.46-0.09c-0.19-0.04-0.39-0.06-0.59-0.06
		c0,0.02-0.01,0.05-0.03,0.1l0,0c0.01,0,0.01,0.28,0.08,1.41c0.06,1,0.14,2.3,0.23,3.9c0.09,1.6,0.21,3.41,0.34,5.43
		c0.14,2.02,0.29,4.09,0.46,6.2c0.17,2.12,0.32,4.18,0.47,6.18c0.14,2,0.28,3.8,0.42,5.39c0.09,0.9,0.21,1.26,0.27,1.39
		c0.05,0.1,0.13,0.23,0.38,0.31l0.51,0.17C232.68,79.33,232.12,81.02,232.12,81.02z"/>
	<path class="st2" d="M212.62,61.73l8.95,2.91l-0.94-12.97L212.62,61.73L212.62,61.73z M222.64,66L211,62.22l10.41-13.07L222.64,66
		L222.64,66z M222.04,76.67l9.01,2.93c-0.08-0.1-0.14-0.21-0.19-0.32c-0.16-0.34-0.27-0.9-0.35-1.72c-0.14-1.6-0.28-3.4-0.42-5.41
		c-0.15-2.06-0.3-4.12-0.47-6.18c-0.16-2.07-0.32-4.14-0.46-6.21c-0.12-1.81-0.24-3.63-0.34-5.44c-0.09-1.6-0.17-2.9-0.23-3.89
		c-0.1-1.6-0.07-1.68-0.03-1.8c0.17-0.54,0.51-0.72,0.75-0.77l-12.38-4.03c0.39,0.36,0.32,0.76,0.26,0.93
		c-0.03,0.11-0.04,0.12-0.87,1.18l-2.02,2.53c-0.94,1.18-1.88,2.35-2.83,3.52c-1.08,1.34-2.16,2.68-3.23,4.02
		c-1.09,1.36-2.18,2.7-3.28,4.05l-2.95,3.6c-0.73,0.89-1.44,1.78-2.15,2.68c-0.57,0.72-0.91,1.16-1.05,1.32
		c-0.39,0.45-0.72,0.73-1.03,0.87c-0.13,0.06-0.26,0.1-0.4,0.12l7.82,2.55c-0.12-0.19-0.22-0.48-0.1-0.87
		c0.04-0.12,0.11-0.25,0.26-0.47c0.12-0.16,0.3-0.4,0.55-0.73c0.17-0.22,0.39-0.51,0.65-0.85l0.36-0.47
		c0.42-0.55,0.98-1.27,1.68-2.15l0.21-0.26l13.8,4.49l-0.04,0.39c-0.01,0.1-0.02,0.37,0.02,1.09l0.11,1.85
		c0.03,0.64,0.07,1.22,0.11,1.74c0.05,0.89,0.04,0.92,0.01,1.02C222.71,76.32,222.41,76.6,222.04,76.67L222.04,76.67z M232.09,80.95
		l-11.82-3.85l0.51-1.56l0.44,0.12c0.06,0.02,0.63,0.17,0.68,0h0c-0.01,0-0.03-0.25-0.05-0.66c-0.03-0.52-0.07-1.11-0.11-1.75
		l-0.11-1.84c-0.02-0.28-0.03-0.57-0.03-0.85l-12.45-4.05c-0.6,0.75-1.09,1.38-1.46,1.87l-0.37,0.48c-0.26,0.34-0.47,0.62-0.64,0.84
		c-0.25,0.33-0.43,0.56-0.54,0.71c-0.09,0.13-0.12,0.18-0.13,0.2c-0.01,0.03-0.01,0.04-0.01,0.05c0.01,0,0.12,0.09,0.52,0.22
		l0.46,0.15l-0.52,1.59l-10.71-3.49l0.49-1.5l0.4,0.05c0.44,0.06,0.65,0.01,0.74-0.03c0.08-0.04,0.31-0.16,0.68-0.61
		c0.13-0.15,0.47-0.59,1.03-1.3c0.56-0.72,1.28-1.62,2.16-2.7l2.95-3.6c1.1-1.34,2.19-2.69,3.27-4.04c1.07-1.35,2.15-2.69,3.24-4.03
		c0.95-1.17,1.89-2.34,2.83-3.51l2.01-2.53c0.31-0.4,0.53-0.67,0.65-0.83c-0.23-0.17-0.42-0.28-0.62-0.38l-0.38-0.18l0.49-1.52
		l15.36,5l-0.5,1.53l-0.42-0.08c-0.21-0.04-0.42-0.06-0.63-0.06c0.01,0.01-0.02,0.05-0.05,0.13c0,0-0.01,0.07,0.08,1.43
		c0.06,1,0.14,2.3,0.23,3.9c0.09,1.6,0.21,3.41,0.34,5.43c0.14,2.02,0.29,4.09,0.46,6.2c0.17,2.12,0.32,4.18,0.47,6.18
		c0.14,2,0.28,3.8,0.42,5.39c0.09,0.91,0.21,1.27,0.27,1.41c0.05,0.11,0.14,0.25,0.41,0.34l0.46,0.15L232.09,80.95L232.09,80.95z"/>
	<path class="st0" d="M237.27,55.06c1.76,0,3.13,1.37,3.13,3.08c0,1.75-1.37,3.1-3.15,3.1c-1.76,0-3.17-1.35-3.17-3.1
		c0-1.71,1.41-3.08,3.17-3.08L237.27,55.06L237.27,55.06z M237.23,55.67c-1.35,0-2.37,1.11-2.37,2.46c0,1.37,1.01,2.46,2.4,2.46
		c1.35,0.02,2.35-1.09,2.35-2.46c0-1.35-1-2.46-2.37-2.46H237.23L237.23,55.67z M236.76,59.73h-0.71v-3.06
		c0.39-0.08,0.79-0.11,1.18-0.11c0.58,0,0.84,0.09,1.07,0.24c0.17,0.13,0.3,0.38,0.3,0.66c0,0.36-0.26,0.62-0.64,0.73v0.04
		c0.3,0.09,0.47,0.34,0.56,0.75c0.09,0.47,0.15,0.66,0.22,0.75h-0.77c-0.09-0.11-0.15-0.38-0.24-0.73
		c-0.06-0.34-0.24-0.49-0.64-0.49h-0.34V59.73L236.76,59.73z M236.78,58h0.34c0.39,0,0.71-0.13,0.71-0.45
		c0-0.28-0.21-0.47-0.66-0.47c-0.19,0-0.32,0.02-0.39,0.04C236.78,57.12,236.78,58,236.78,58z"/>
	<path class="st2" d="M180.61,82.67c-2.09-6.79-18.05-11.84-37.75-11.84l-0.15,0l-0.15,0c-19.7,0-35.66,5.06-37.75,11.84
		c-0.35,0.99-0.48,1.9-0.46,3.08c0.32,4.77,4.69,8.44,10.87,8.44c1.82,0,3.53-0.33,5.05-0.91c7.05-1.09,14.59-1.7,22.44-1.74
		c7.85,0.04,15.39,0.65,22.44,1.74c1.61,0.61,3.32,0.92,5.05,0.91c6.18,0,10.56-3.67,10.88-8.44
		C181.09,84.57,180.96,83.66,180.61,82.67"/>
	<path class="st2" d="M142.52,102.05c-1.32-0.05-8.17,0.26-10.66,0.47s-2.67,0.05-3.82-1.06c-1.15-1.11,0-2.59,0-2.59
		c0.79-1.27,0.73-1.53,0.73-1.53c0.94-2.13-0.68-2.73-1.6-2.9c2.31-0.49,8.89-1.56,15.35-1.56h0.37c6.47,0,13.05,1.07,15.35,1.56
		c-0.93,0.17-2.54,0.76-1.6,2.9c0,0-0.06,0.26,0.73,1.53c0,0,1.15,1.48,0,2.59c-1.15,1.11-1.33,1.27-3.82,1.06
		c-2.48-0.21-9.34-0.53-10.66-0.47H142.52z"/>
	<path class="st1" d="M114.2,80.77l1.26,3.9l0.02,0l-0.1-4.08l1.75-0.27l1.74,6.66l-1.34,0.21l-1.07-4.83l-0.02,0l0.05,1.7
		l-0.06,3.29l-1.01,0.16l-1.14-3.14l-0.45-1.48l-0.02-0.13l-0.02,0l0.56,4.9l-1.4,0.22l-0.47-6.86L114.2,80.77z M121.79,79.72
		l0.51,4.4c0.06,0.51,0.09,1.3,0.8,1.21c0.64-0.08,0.58-0.57,0.53-1.08l-0.55-4.69l1.31-0.15l0.58,4.96
		c0.08,0.72,0.15,1.96-1.74,2.18c-1.22,0.14-2.02-0.36-2.17-1.63l-0.59-5.05L121.79,79.72z M130.5,80.41
		c-0.28-0.21-0.63-0.39-0.99-0.36c-0.41,0.03-0.64,0.31-0.61,0.72c0.09,1.12,2.1,1.02,2.25,2.87c0.1,1.21-0.5,2.18-1.74,2.29
		c-0.37,0.03-0.84-0.05-1.16-0.25l-0.1-1.29c0.33,0.19,0.64,0.31,1.03,0.28c0.42-0.03,0.73-0.35,0.7-0.8
		c-0.04-0.52-0.47-0.69-0.86-0.93c-0.8-0.46-1.31-0.93-1.39-1.93c-0.09-1.08,0.44-2.06,1.58-2.15c0.41-0.03,0.82,0.05,1.19,0.24
		L130.5,80.41L130.5,80.41z M135.22,78.58l0.11,2.68l1.34-0.06l-0.11-2.68l1.32-0.06l0.29,6.84l-1.32,0.06l-0.12-2.89l-1.34,0.06
		l0.12,2.89l-1.32,0.06l-0.29-6.84L135.22,78.58z M141.24,85.25l0.03-6.85l1.33,0.01c0.84,0,2.35,0.1,2.34,1.97
		c0,0.75-0.3,1.4-0.96,1.77l1.15,3.12l-1.39-0.01l-1.15-3.17h-0.02l-0.01,3.16L141.24,85.25L141.24,85.25z M142.58,81.35l0.23,0.01
		c0.6,0,0.84-0.41,0.85-0.98c0-0.49-0.23-0.89-0.89-0.86h-0.18C142.58,79.52,142.58,81.35,142.58,81.35z M152.31,82.12
		c-0.12,2.57-1.34,3.47-2.51,3.42c-1.18-0.06-2.3-1.07-2.18-3.64c0.12-2.57,1.34-3.47,2.51-3.42
		C151.31,78.54,152.43,79.55,152.31,82.12 M149.85,84.29c0.88,0.04,1.02-1.69,1.05-2.23c0.03-0.61,0.05-2.28-0.83-2.32
		c-0.88-0.04-1.02,1.62-1.05,2.23C149,82.51,148.98,84.24,149.85,84.29 M159.71,82.74c-0.23,2.56-1.48,3.41-2.65,3.31
		c-1.17-0.11-2.25-1.17-2.02-3.73c0.23-2.56,1.48-3.41,2.66-3.31C158.86,79.11,159.94,80.18,159.71,82.74 M157.17,84.8
		c0.87,0.08,1.09-1.64,1.14-2.18c0.05-0.61,0.14-2.28-0.73-2.36c-0.87-0.08-1.08,1.58-1.14,2.19
		C156.39,82.98,156.29,84.72,157.17,84.8 M164.77,79.88l0.12,4.09l0.02,0l1.05-3.94l1.76,0.23l-0.19,6.88l-1.34-0.18l0.32-4.93
		l-0.02,0l-0.43,1.65l-0.98,3.14l-1.01-0.13l-0.22-3.33l-0.02-1.54l0.02-0.13l-0.02,0l-0.83,4.87l-1.4-0.18l1.47-6.72L164.77,79.88z
		 M173.51,82.75c-0.22-0.28-0.51-0.53-0.87-0.59c-0.4-0.07-0.7,0.14-0.77,0.55c-0.19,1.11,1.79,1.5,1.48,3.33
		c-0.2,1.2-1.02,1.99-2.24,1.79c-0.37-0.06-0.8-0.25-1.06-0.53l0.21-1.27c0.27,0.27,0.54,0.46,0.93,0.52
		c0.42,0.07,0.8-0.16,0.87-0.61c0.09-0.52-0.28-0.78-0.6-1.11c-0.66-0.64-1.04-1.22-0.88-2.21c0.18-1.07,0.93-1.89,2.05-1.7
		c0.41,0.07,0.79,0.25,1.1,0.52L173.51,82.75L173.51,82.75z"/>
</g>
</svg>
